<?xml version="1.0" standalone="no"?>
<!DOCTYPE svg PUBLIC "-//W3C//DTD SVG 20010904//EN"
 "http://www.w3.org/TR/2001/REC-SVG-20010904/DTD/svg10.dtd">
<svg version="1.0" xmlns="http://www.w3.org/2000/svg"
 width="522.000000pt" height="478.000000pt" viewBox="0 0 522.000000 478.000000"
 preserveAspectRatio="xMidYMid meet">

<g transform="translate(0.000000,478.000000) scale(0.100000,-0.100000)"
fill="#000000" stroke="none">
<path d="M1602 4231 c-82 -65 -122 -138 -122 -221 0 -48 -1 -49 -67 -98 -38
-28 -79 -62 -93 -77 -29 -31 -80 -60 -80 -46 0 5 4 12 9 16 25 15 42 105 39
206 l-3 104 -17 -32 c-10 -17 -40 -60 -67 -95 -27 -35 -58 -82 -68 -104 -39
-77 -52 -173 -29 -225 5 -11 -12 -38 -53 -87 -69 -82 -115 -149 -191 -276 -48
-81 -55 -87 -67 -70 -21 29 -16 44 37 100 68 72 94 132 86 204 -3 30 -9 83
-12 117 l-7 61 -31 -31 c-70 -71 -126 -195 -126 -278 0 -49 30 -173 47 -191
14 -16 13 -23 -12 -83 -32 -74 -52 -96 -42 -46 8 41 -19 114 -67 181 -20 28
-36 55 -36 60 0 6 -5 10 -11 10 -17 0 -5 -155 15 -202 9 -20 34 -52 57 -70 29
-24 39 -38 36 -53 -3 -11 -19 -67 -35 -125 -17 -58 -34 -129 -38 -158 -4 -29
-10 -55 -15 -58 -17 -10 -30 38 -24 89 8 69 -7 108 -89 232 l-66 99 0 -62 c0
-99 21 -213 46 -253 12 -20 40 -50 62 -67 22 -18 44 -44 50 -59 6 -16 12 -131
15 -257 l4 -230 -22 28 c-13 16 -33 66 -45 112 -29 111 -60 170 -127 246 -78
88 -83 90 -77 26 9 -91 35 -201 59 -248 28 -55 88 -114 135 -134 63 -26 88
-63 116 -172 35 -135 66 -227 113 -331 62 -138 12 -121 -61 19 -32 62 -59 96
-127 158 -47 44 -89 80 -93 80 -13 0 -9 -21 18 -107 43 -136 130 -238 210
-249 110 -14 101 -9 160 -99 30 -47 54 -89 54 -93 0 -5 25 -36 56 -70 54 -60
56 -87 3 -38 -45 41 -131 84 -204 101 -115 27 -165 33 -165 21 0 -21 112 -137
169 -175 101 -68 169 -84 254 -60 21 5 45 8 55 4 26 -9 186 -161 176 -168 -5
-3 -34 3 -64 14 -64 22 -194 27 -188 7 7 -20 119 -61 168 -61 25 0 64 3 86 8
41 7 46 5 160 -72 66 -43 181 -110 257 -148 148 -74 154 -90 27 -61 -38 9
-100 16 -138 16 -94 0 -222 -11 -222 -20 0 -9 151 -74 206 -89 53 -14 152 -14
195 0 19 7 48 25 64 40 17 16 39 29 49 29 9 0 56 -13 104 -29 48 -16 137 -39
197 -51 61 -12 116 -24 124 -26 7 -2 -13 -18 -46 -35 -33 -17 -73 -41 -89 -54
l-29 -23 48 -7 c65 -10 115 0 144 27 32 30 66 95 53 103 -5 3 -49 12 -98 20
-49 8 -113 21 -143 29 l-54 14 3 45 c4 50 -17 101 -65 157 -27 33 -173 153
-179 147 -4 -4 43 -156 60 -192 18 -37 70 -87 114 -109 42 -22 42 -40 0 -31
-60 13 -229 79 -332 130 -112 55 -123 72 -91 136 33 64 4 157 -95 301 l-67 97
-12 -82 c-6 -45 -11 -100 -11 -122 0 -55 40 -136 93 -189 46 -45 51 -64 13
-44 -36 19 -220 155 -244 181 l-23 25 20 38 c12 21 21 55 21 75 0 39 -37 155
-66 210 l-19 34 -3 -105 c-2 -58 2 -129 8 -158 7 -30 9 -57 5 -60 -7 -7 -87
74 -162 163 -49 57 -56 95 -20 95 28 0 51 23 67 65 15 39 3 268 -14 262 -6 -2
-29 -34 -51 -72 -36 -63 -40 -77 -44 -152 -1 -46 -7 -83 -12 -83 -13 0 -88
119 -143 225 l-46 88 38 17 c40 18 96 80 128 140 14 27 19 62 21 155 l4 120
-37 -40 c-97 -108 -146 -200 -159 -300 l-7 -49 -18 44 c-78 190 -78 280 1 315
85 39 154 159 169 298 5 44 8 82 7 83 -1 2 -27 -21 -56 -49 -111 -107 -171
-211 -171 -300 -1 -23 -7 -53 -14 -66 -12 -22 -14 -18 -27 60 -8 47 -14 154
-14 243 0 131 3 160 15 166 107 50 134 67 156 99 33 48 61 148 68 241 l6 75
-20 -25 c-12 -14 -44 -52 -73 -84 -70 -79 -109 -141 -109 -171 0 -27 -31 -60
-47 -50 -7 4 -6 13 3 28 8 12 20 56 26 97 13 75 69 268 97 326 12 27 21 32 61
38 95 12 189 82 256 190 25 40 46 75 46 79 0 3 -17 -1 -37 -9 -21 -7 -64 -21
-95 -29 -35 -10 -72 -29 -95 -50 -21 -18 -39 -32 -42 -30 -9 10 124 211 145
219 10 4 41 2 71 -4 85 -18 145 5 243 90 43 39 82 75 86 81 5 8 -20 10 -89 7
-89 -4 -98 -6 -149 -39 -78 -52 -119 -72 -112 -56 4 12 164 165 255 245 47 41
145 60 192 35 46 -23 129 -20 174 8 51 31 103 70 103 78 0 3 -46 6 -103 6 -90
0 -108 -3 -157 -27 -49 -24 -130 -46 -130 -35 0 7 160 102 253 150 86 44 90
46 156 40 59 -5 76 -2 122 19 30 14 66 38 81 54 14 16 43 49 64 73 l39 44 -89
-7 c-148 -11 -172 -20 -246 -96 -52 -53 -89 -79 -180 -126 -63 -32 -118 -60
-122 -62 -4 -2 -8 5 -8 16 0 14 11 24 35 32 44 15 81 52 107 108 21 47 40 142
27 142 -4 0 -30 -18 -57 -39z"/>
<path d="M3450 4237 c0 -95 62 -193 137 -218 22 -7 33 -17 33 -30 0 -10 -2
-19 -4 -19 -2 0 -58 28 -123 62 -93 49 -132 76 -183 128 -74 76 -105 88 -249
98 l-85 5 55 -66 c40 -49 70 -75 116 -98 58 -29 69 -31 130 -26 68 5 69 5 188
-56 121 -62 205 -114 205 -129 0 -14 -64 4 -110 31 -41 23 -55 26 -152 26 -60
0 -108 -3 -108 -7 0 -8 50 -46 103 -77 46 -28 128 -31 175 -7 26 14 42 15 93
7 53 -9 68 -17 122 -65 127 -113 227 -212 227 -224 0 -7 -24 3 -57 24 -98 63
-130 74 -218 74 l-79 0 39 -41 c112 -115 209 -159 302 -139 25 6 54 8 64 5 10
-3 38 -36 62 -73 95 -145 108 -175 55 -126 -18 17 -44 35 -58 41 -32 15 -156
53 -170 53 -13 0 32 -80 76 -136 48 -60 134 -114 204 -127 68 -13 66 -12 110
-142 41 -119 70 -253 69 -312 l0 -48 -20 54 c-18 52 -73 134 -122 184 -14 13
-39 43 -57 68 l-32 44 7 -80 c8 -98 36 -198 69 -247 17 -24 45 -45 83 -63 32
-15 65 -30 73 -34 28 -15 24 -284 -7 -459 -9 -51 -24 -25 -33 56 -10 97 -48
168 -141 266 -42 44 -79 79 -82 76 -2 -3 -1 -39 3 -80 13 -129 73 -237 160
-291 49 -30 70 -65 70 -118 0 -34 -56 -203 -76 -227 -9 -10 -13 -14 -10 -8 9
19 -13 127 -35 171 -12 23 -51 79 -87 125 l-66 83 -8 -40 c-8 -43 -2 -138 13
-197 13 -52 92 -155 134 -175 19 -9 35 -21 35 -26 0 -32 -160 -307 -179 -307
-3 0 -6 31 -7 70 0 60 -5 79 -38 144 -21 41 -46 82 -56 91 -17 15 -18 10 -25
-99 -4 -63 -4 -130 0 -148 9 -42 42 -78 72 -78 52 0 18 -57 -124 -210 -29 -30
-55 -51 -59 -47 -4 4 -2 24 4 46 15 50 16 279 2 265 -21 -21 -72 -160 -77
-211 -5 -41 -1 -60 17 -95 l22 -42 -44 -39 c-23 -21 -78 -64 -120 -95 -43 -30
-78 -59 -78 -64 0 -4 -11 -8 -25 -8 -14 0 -25 1 -25 3 0 2 20 26 45 53 50 54
85 135 84 192 0 20 -6 71 -13 112 l-12 74 -65 -94 c-100 -144 -122 -216 -93
-306 9 -29 14 -59 11 -66 -10 -28 -336 -172 -434 -193 -45 -9 -42 10 5 34 38
20 77 57 104 102 17 26 70 190 64 196 -6 7 -160 -119 -183 -150 -47 -62 -65
-107 -61 -155 l3 -45 -75 -18 c-41 -10 -102 -21 -135 -25 -33 -4 -68 -11 -78
-16 -16 -8 -16 -11 3 -46 26 -49 40 -66 67 -80 23 -13 102 -14 143 -3 24 7 22
9 -35 45 -33 21 -75 44 -95 51 -37 14 -32 19 30 29 68 10 216 45 318 76 l103
31 39 -35 c62 -56 147 -69 260 -42 61 15 200 75 200 86 0 22 -281 26 -363 5
-60 -16 -100 -19 -109 -9 -3 3 55 36 129 74 74 38 186 103 250 146 111 74 117
76 157 69 76 -15 129 -9 194 20 89 40 84 47 -29 47 -25 -1 -69 -10 -99 -22
-30 -12 -57 -17 -62 -12 -5 5 30 44 83 91 89 81 92 83 128 74 75 -17 154 -9
217 22 58 29 224 181 224 204 0 17 -56 13 -148 -9 -94 -22 -162 -54 -211 -99
-57 -51 -66 -35 -14 23 26 30 73 96 103 146 58 98 85 120 145 120 68 0 133 48
189 138 30 48 79 193 74 217 -2 10 -31 -11 -93 -69 -71 -65 -100 -102 -138
-169 -42 -77 -79 -118 -94 -104 -2 3 5 24 17 46 56 111 150 392 150 450 0 21
82 101 105 101 24 0 92 68 124 124 27 47 50 137 66 258 5 39 4 47 -8 42 -15
-5 -88 -87 -120 -133 -42 -61 -87 -179 -87 -230 0 -24 -44 -91 -59 -91 -4 0
-4 24 0 53 4 28 8 136 8 240 l1 187 64 63 c50 49 68 74 81 117 16 50 34 272
22 260 -3 -3 -33 -48 -68 -100 -74 -113 -91 -161 -83 -238 4 -42 2 -62 -9 -77
-15 -20 -15 -20 -20 5 -10 49 -66 276 -79 319 -11 36 -11 45 0 49 28 9 74 56
88 91 20 47 32 201 15 201 -6 0 -11 -4 -11 -9 0 -5 -21 -40 -47 -77 -43 -61
-48 -75 -50 -127 -1 -32 -4 -61 -7 -64 -6 -6 -66 119 -66 137 0 6 -15 34 -33
63 -19 28 -51 81 -72 116 -46 77 -124 182 -172 233 -34 35 -35 37 -23 73 26
80 -7 183 -101 310 -24 34 -53 78 -64 98 -11 20 -23 37 -28 37 -4 0 -6 -46 -3
-102 5 -102 23 -185 46 -213 27 -32 -12 -13 -73 35 -34 27 -82 65 -107 83 -43
31 -45 36 -50 92 -7 78 -40 145 -98 196 -72 63 -82 66 -82 26z"/>
<path d="M4206 3647 c-3 -34 -9 -87 -12 -117 -8 -71 21 -136 94 -214 29 -31
55 -56 56 -56 11 0 27 137 21 180 -9 64 -63 171 -114 227 l-38 43 -7 -63z"/>
<path d="M2262 3313 c-33 -87 -90 -237 -127 -333 -36 -96 -77 -202 -90 -235
-13 -33 -58 -150 -100 -260 -106 -280 -183 -480 -210 -550 -72 -183 -95 -243
-95 -249 0 -3 109 -6 243 -6 l244 0 38 103 c21 56 49 126 61 155 l23 52 319 0
c247 0 321 -3 325 -12 2 -7 23 -65 47 -128 23 -63 46 -127 52 -142 l10 -28
244 0 c140 0 244 4 244 9 0 5 -31 92 -69 193 -63 166 -147 391 -283 753 -27
72 -66 177 -88 235 -36 97 -118 316 -177 470 -14 36 -27 74 -30 85 -13 45 -14
45 -273 45 l-247 0 -61 -157z m406 -686 c51 -150 92 -276 92 -280 0 -4 -87 -7
-194 -7 l-194 0 27 78 c15 42 59 168 96 280 38 111 72 202 75 202 3 0 47 -123
98 -273z"/>
<path d="M2190 1290 l0 -141 88 3 c79 3 87 5 87 23 0 18 -8 20 -62 23 l-63 3
0 114 0 115 -25 0 -25 0 0 -140z"/>
<path d="M2404 1417 c-2 -7 -3 -69 -2 -138 l3 -124 28 -3 27 -3 0 140 0 141
-25 0 c-14 0 -28 -6 -31 -13z"/>
<path d="M2540 1402 c-16 -17 -30 -37 -30 -45 0 -26 36 -60 91 -86 56 -27 70
-54 38 -74 -23 -14 -70 0 -76 23 -7 27 -53 28 -53 2 0 -32 45 -64 98 -70 62
-6 106 26 104 77 -1 42 -14 56 -70 77 -59 22 -72 32 -72 54 0 34 63 41 82 10
16 -26 58 -27 58 -2 0 31 -36 55 -89 60 -46 4 -53 2 -81 -26z"/>
<path d="M2740 1410 c0 -17 7 -20 40 -20 l40 0 0 -120 0 -120 25 0 24 0 3 118
3 117 43 3 c34 3 42 7 42 23 0 18 -8 19 -110 19 -103 0 -110 -1 -110 -20z"/>
</g>
</svg>
