<svg width="20" height="24" viewBox="0 0 20 24" fill="black" xmlns="http://www.w3.org/2000/svg">
<path d="M13.3976 4.1344C13.8343 3.63118 14.1672 3.04666 14.3773 2.41442C14.5873 1.78217 14.6705 1.11465 14.6219 0.450195C13.2814 0.558397 12.0371 1.18883 11.1571 2.20568C10.7357 2.69303 10.4163 3.25998 10.2179 3.87298C10.0195 4.48597 9.94617 5.13254 10.0022 5.77439C10.656 5.77984 11.3024 5.63476 11.8912 5.35037C12.4799 5.06599 12.9954 4.64993 13.3976 4.1344V4.1344ZM16.308 12.727C16.3158 11.8421 16.5489 10.9736 16.9854 10.2038C17.4218 9.43387 18.0473 8.78788 18.8027 8.32677C18.326 7.63987 17.6957 7.07349 16.962 6.67255C16.2283 6.2716 15.4112 6.04713 14.5757 6.01693C12.774 5.83214 11.1109 7.06791 10.1523 7.06791C9.19372 7.06791 7.84246 6.04002 6.34106 6.06312C5.35952 6.09545 4.40312 6.38163 3.56514 6.89373C2.72715 7.40583 2.0362 8.12637 1.55967 8.98508C-0.472992 12.5191 1.03996 17.774 3.07262 20.6267C3.99656 22.0242 5.15148 23.6064 6.67598 23.5487C8.20048 23.4909 8.6971 22.6016 10.4641 22.6016C12.2312 22.6016 12.774 23.5487 14.2754 23.514C15.7768 23.4794 16.8393 22.0819 17.8094 20.6845C18.4967 19.6699 19.0335 18.5612 19.4032 17.3929C18.4879 17.0026 17.707 16.3527 17.157 15.5235C16.6069 14.6943 16.3118 13.7221 16.308 12.727V12.727Z" fill="#222325"/>
</svg>
