<svg width="16" height="16" viewBox="0 0 16 16" fill="black" xmlns="http://www.w3.org/2000/svg">
<path d="M8.62851 0.260354C8.28137 -0.0867847 7.71869 -0.0867846 7.37156 0.260354C7.02442 0.607493 7.02442 1.17018 7.37156 1.51732L12.9653 7.11117H0.888893L0.797747 7.11551C0.349629 7.16114 0 7.53991 0 8.00007C0 8.46024 0.349629 8.83901 0.797747 8.88463L0.888893 8.88897H12.9653L7.37156 14.4828L7.31079 14.5505C7.02604 14.8997 7.04612 15.4143 7.37156 15.7398C7.697 16.0652 8.21167 16.0853 8.5608 15.8006L8.62851 15.7398L15.7396 8.62855C16.0868 8.28141 16.0868 7.71873 15.7396 7.37159L8.62851 0.260354Z"/>
</svg>
