<svg width="16" height="16" viewBox="0 0 16 16" fill="black" xmlns="http://www.w3.org/2000/svg">
<path d="M7.37149 0.260354C7.71863 -0.0867847 8.28131 -0.0867846 8.62844 0.260354C8.97558 0.607493 8.97558 1.17018 8.62844 1.51732L3.03467 7.11117H15.1111L15.2023 7.11551C15.6504 7.16114 16 7.53991 16 8.00007C16 8.46024 15.6504 8.83901 15.2023 8.88463L15.1111 8.88897H3.03467L8.62844 14.4828L8.68921 14.5505C8.97396 14.8997 8.95388 15.4143 8.62844 15.7398C8.303 16.0652 7.78833 16.0853 7.4392 15.8006L7.37149 15.7398L0.260351 8.62855C-0.0867835 8.28141 -0.0867836 7.71873 0.260351 7.37159L7.37149 0.260354Z"/>
</svg>
