<svg width="18" height="18" viewBox="0 0 18 18" fill="black" xmlns="http://www.w3.org/2000/svg">
<path d="M5.661 8.361C5.57906 8.44659 5.51483 8.54752 5.472 8.658C5.38198 8.87711 5.38198 9.12288 5.472 9.342C5.51483 9.45247 5.57906 9.5534 5.661 9.639L8.361 12.339C8.53047 12.5085 8.76033 12.6037 9 12.6037C9.23967 12.6037 9.46952 12.5085 9.639 12.339C9.80847 12.1695 9.90368 11.9397 9.90368 11.7C9.90368 11.4603 9.80847 11.2305 9.639 11.061L8.469 9.9H11.7C11.9387 9.9 12.1676 9.80518 12.3364 9.63639C12.5052 9.46761 12.6 9.23869 12.6 9C12.6 8.7613 12.5052 8.53238 12.3364 8.3636C12.1676 8.19482 11.9387 8.1 11.7 8.1H8.469L9.639 6.939C9.72335 6.85533 9.79031 6.75579 9.836 6.64612C9.88169 6.53644 9.90522 6.41881 9.90522 6.3C9.90522 6.18119 9.88169 6.06355 9.836 5.95388C9.79031 5.84421 9.72335 5.74466 9.639 5.661C9.55533 5.57664 9.45579 5.50969 9.34612 5.464C9.23644 5.4183 9.11881 5.39478 9 5.39478C8.88119 5.39478 8.76355 5.4183 8.65388 5.464C8.54421 5.50969 8.44466 5.57664 8.361 5.661L5.661 8.361ZM0 9C0 10.78 0.527841 12.5201 1.51677 14.0001C2.50571 15.4802 3.91131 16.6337 5.55585 17.3149C7.20038 17.9961 9.00998 18.1743 10.7558 17.8271C12.5016 17.4798 14.1053 16.6226 15.364 15.364C16.6226 14.1053 17.4798 12.5016 17.8271 10.7558C18.1743 9.00998 17.9961 7.20038 17.3149 5.55585C16.6337 3.91131 15.4802 2.50571 14.0001 1.51677C12.5201 0.527841 10.78 0 9 0C7.8181 0 6.64778 0.232792 5.55585 0.685084C4.46392 1.13738 3.47177 1.80031 2.63604 2.63604C0.948211 4.32387 0 6.61305 0 9ZM16.2 9C16.2 10.424 15.7777 11.8161 14.9866 13.0001C14.1954 14.1841 13.0709 15.107 11.7553 15.6519C10.4397 16.1969 8.99201 16.3395 7.59535 16.0616C6.19868 15.7838 4.91577 15.0981 3.90883 14.0912C2.90189 13.0842 2.21616 11.8013 1.93835 10.4046C1.66053 9.00798 1.80312 7.56031 2.34807 6.24468C2.89302 4.92905 3.81586 3.80456 4.99989 3.01342C6.18393 2.22227 7.57597 1.8 9 1.8C10.9096 1.8 12.7409 2.55857 14.0912 3.90883C15.4414 5.25909 16.2 7.09044 16.2 9Z"/>
</svg>
