<svg width="28" height="29" viewBox="0 0 28 29" fill="none" xmlns="http://www.w3.org/2000/svg">
<path d="M26.15 10.7463C26.3273 10.7464 26.5029 10.7119 26.6667 10.6449C26.8305 10.5779 26.9793 10.4797 27.1047 10.3559C27.2301 10.2321 27.3295 10.0851 27.3973 9.92329C27.4652 9.76149 27.5 9.58809 27.5 9.41298V5.41288C27.5001 5.13311 27.411 4.8604 27.2454 4.63346C27.0797 4.40651 26.8459 4.23684 26.5772 4.14853L14.4272 0.148439C14.1499 0.0572912 13.8501 0.0572912 13.5728 0.148439L1.42285 4.14853C1.15407 4.23684 0.920267 4.40651 0.754618 4.63346C0.588969 4.8604 0.499884 5.13311 0.5 5.41288V9.41298C0.499954 9.58809 0.534841 9.76149 0.602669 9.92329C0.670496 10.0851 0.769935 10.2321 0.895303 10.3559C1.02067 10.4797 1.16951 10.5779 1.33332 10.6449C1.49713 10.7119 1.6727 10.7464 1.85 10.7463H3.2V20.3256C2.41259 20.5995 1.73034 21.1075 1.24691 21.7797C0.763479 22.4519 0.502568 23.2555 0.5 24.08V26.7467C0.499954 26.9218 0.534841 27.0952 0.602669 27.257C0.670496 27.4188 0.769935 27.5658 0.895303 27.6896C1.02067 27.8135 1.16951 27.9117 1.33332 27.9787C1.49713 28.0457 1.6727 28.0801 1.85 28.0801H26.15C26.3273 28.0801 26.5029 28.0457 26.6667 27.9787C26.8305 27.9117 26.9793 27.8135 27.1047 27.6896C27.2301 27.5658 27.3295 27.4188 27.3973 27.257C27.4652 27.0952 27.5 26.9218 27.5 26.7467V24.08C27.4974 23.2555 27.2365 22.4519 26.7531 21.7797C26.2697 21.1075 25.5874 20.5995 24.8 20.3256V10.7463H26.15ZM24.8 25.4133H3.2V24.08C3.20036 23.7265 3.3427 23.3875 3.5958 23.1375C3.8489 22.8876 4.19207 22.747 4.55 22.7466H23.45C23.8079 22.747 24.1511 22.8876 24.4042 23.1375C24.6573 23.3875 24.7996 23.7265 24.8 24.08V25.4133ZM5.9 20.0799V10.7463H8.6V20.0799H5.9ZM11.3 20.0799V10.7463H16.7V20.0799H11.3ZM19.4 20.0799V10.7463H22.1V20.0799H19.4ZM3.2 8.07961V6.37384L14 2.81775L24.8 6.37384V8.07961H3.2Z" fill="#429D1B"/>
</svg>
