<svg width="18" height="18" viewBox="0 0 18 18" fill="black" xmlns="http://www.w3.org/2000/svg">
<path d="M4.5 7.19791H6.3C6.53869 7.19791 6.76761 7.10312 6.9364 6.93439C7.10518 6.76565 7.2 6.5368 7.2 6.29817C7.2 6.05955 7.10518 5.8307 6.9364 5.66196C6.76761 5.49323 6.53869 5.39843 6.3 5.39843H4.5C4.26131 5.39843 4.03239 5.49323 3.8636 5.66196C3.69482 5.8307 3.6 6.05955 3.6 6.29817C3.6 6.5368 3.69482 6.76565 3.8636 6.93439C4.03239 7.10312 4.26131 7.19791 4.5 7.19791ZM17.1 1.79948H9.9V0.899739C9.9 0.661113 9.80518 0.432261 9.6364 0.263527C9.46761 0.0947936 9.23869 0 9 0C8.7613 0 8.53239 0.0947936 8.3636 0.263527C8.19482 0.432261 8.1 0.661113 8.1 0.899739V1.79948H0.9C0.661305 1.79948 0.432387 1.89427 0.263604 2.06301C0.0948211 2.23174 0 2.46059 0 2.69922V11.6966C0 12.4125 0.284464 13.099 0.790812 13.6052C1.29716 14.1114 1.98392 14.3958 2.7 14.3958H6.831L4.761 16.4562C4.67664 16.5399 4.60969 16.6394 4.564 16.749C4.51831 16.8587 4.49478 16.9763 4.49478 17.095C4.49478 17.2138 4.51831 17.3314 4.564 17.4411C4.60969 17.5507 4.67664 17.6502 4.761 17.7339C4.84467 17.8182 4.94421 17.8851 5.05388 17.9308C5.16355 17.9765 5.28119 18 5.4 18C5.51881 18 5.63645 17.9765 5.74612 17.9308C5.85579 17.8851 5.95533 17.8182 6.039 17.7339L8.1 15.6645V17.095C8.1 17.3337 8.19482 17.5625 8.3636 17.7313C8.53239 17.9 8.7613 17.9948 9 17.9948C9.23869 17.9948 9.46761 17.9 9.6364 17.7313C9.80518 17.5625 9.9 17.3337 9.9 17.095V15.6645L11.961 17.7339C12.0447 17.8182 12.1442 17.8851 12.2539 17.9308C12.3636 17.9765 12.4812 18 12.6 18C12.7188 18 12.8364 17.9765 12.9461 17.9308C13.0558 17.8851 13.1553 17.8182 13.239 17.7339C13.3234 17.6502 13.3903 17.5507 13.436 17.4411C13.4817 17.3314 13.5052 17.2138 13.5052 17.095C13.5052 16.9763 13.4817 16.8587 13.436 16.749C13.3903 16.6394 13.3234 16.5399 13.239 16.4562L11.169 14.3958H15.3C16.0161 14.3958 16.7028 14.1114 17.2092 13.6052C17.7155 13.099 18 12.4125 18 11.6966V2.69922C18 2.46059 17.9052 2.23174 17.7364 2.06301C17.5676 1.89427 17.3387 1.79948 17.1 1.79948V1.79948ZM16.2 11.6966C16.2 11.9352 16.1052 12.1641 15.9364 12.3328C15.7676 12.5016 15.5387 12.5963 15.3 12.5963H2.7C2.46131 12.5963 2.23239 12.5016 2.0636 12.3328C1.89482 12.1641 1.8 11.9352 1.8 11.6966V3.59896H16.2V11.6966ZM4.5 10.7969H9.9C10.1387 10.7969 10.3676 10.7021 10.5364 10.5333C10.7052 10.3646 10.8 10.1358 10.8 9.89713C10.8 9.6585 10.7052 9.42965 10.5364 9.26092C10.3676 9.09219 10.1387 8.99739 9.9 8.99739H4.5C4.26131 8.99739 4.03239 9.09219 3.8636 9.26092C3.69482 9.42965 3.6 9.6585 3.6 9.89713C3.6 10.1358 3.69482 10.3646 3.8636 10.5333C4.03239 10.7021 4.26131 10.7969 4.5 10.7969Z"/>
</svg>
