<svg width="17" height="17" viewBox="0 0 17 17" fill="none" xmlns="http://www.w3.org/2000/svg">
<path d="M13.85 2.35H12.25V1.55C12.25 1.33783 12.1657 1.13434 12.0157 0.984315C11.8657 0.834285 11.6622 0.75 11.45 0.75C11.2378 0.75 11.0343 0.834285 10.8843 0.984315C10.7343 1.13434 10.65 1.33783 10.65 1.55V2.35H5.85V1.55C5.85 1.33783 5.76571 1.13434 5.61569 0.984315C5.46566 0.834285 5.26217 0.75 5.05 0.75C4.83783 0.75 4.63434 0.834285 4.48431 0.984315C4.33429 1.13434 4.25 1.33783 4.25 1.55V2.35H2.65C2.01348 2.35 1.40303 2.60286 0.952944 3.05294C0.502856 3.50303 0.25 4.11348 0.25 4.75V14.35C0.25 14.9865 0.502856 15.597 0.952944 16.0471C1.40303 16.4971 2.01348 16.75 2.65 16.75H13.85C14.4865 16.75 15.097 16.4971 15.5471 16.0471C15.9971 15.597 16.25 14.9865 16.25 14.35V4.75C16.25 4.11348 15.9971 3.50303 15.5471 3.05294C15.097 2.60286 14.4865 2.35 13.85 2.35ZM14.65 14.35C14.65 14.5622 14.5657 14.7657 14.4157 14.9157C14.2657 15.0657 14.0622 15.15 13.85 15.15H2.65C2.43783 15.15 2.23434 15.0657 2.08431 14.9157C1.93429 14.7657 1.85 14.5622 1.85 14.35V8.75H14.65V14.35ZM14.65 7.15H1.85V4.75C1.85 4.53783 1.93429 4.33434 2.08431 4.18431C2.23434 4.03429 2.43783 3.95 2.65 3.95H4.25V4.75C4.25 4.96217 4.33429 5.16566 4.48431 5.31569C4.63434 5.46571 4.83783 5.55 5.05 5.55C5.26217 5.55 5.46566 5.46571 5.61569 5.31569C5.76571 5.16566 5.85 4.96217 5.85 4.75V3.95H10.65V4.75C10.65 4.96217 10.7343 5.16566 10.8843 5.31569C11.0343 5.46571 11.2378 5.55 11.45 5.55C11.6622 5.55 11.8657 5.46571 12.0157 5.31569C12.1657 5.16566 12.25 4.96217 12.25 4.75V3.95H13.85C14.0622 3.95 14.2657 4.03429 14.4157 4.18431C14.5657 4.33434 14.65 4.53783 14.65 4.75V7.15Z" fill="#ADB8CC"/>
</svg>
