<svg width="18" height="14" viewBox="0 0 18 14" fill="black" xmlns="http://www.w3.org/2000/svg">
<path d="M4.5 9.33333H7.2C7.43869 9.33333 7.66761 9.235 7.8364 9.05997C8.00518 8.88493 8.1 8.64754 8.1 8.4C8.1 8.15246 8.00518 7.91507 7.8364 7.74003C7.66761 7.565 7.43869 7.46667 7.2 7.46667H4.5C4.26131 7.46667 4.03239 7.565 3.8636 7.74003C3.69482 7.91507 3.6 8.15246 3.6 8.4C3.6 8.64754 3.69482 8.88493 3.8636 9.05997C4.03239 9.235 4.26131 9.33333 4.5 9.33333ZM15.3 0H2.7C1.98392 0 1.29716 0.294999 0.790812 0.820101C0.284464 1.3452 0 2.05739 0 2.8V11.2C0 11.9426 0.284464 12.6548 0.790812 13.1799C1.29716 13.705 1.98392 14 2.7 14H15.3C16.0161 14 16.7028 13.705 17.2092 13.1799C17.7155 12.6548 18 11.9426 18 11.2V2.8C18 2.05739 17.7155 1.3452 17.2092 0.820101C16.7028 0.294999 16.0161 0 15.3 0ZM16.2 11.2C16.2 11.4475 16.1052 11.6849 15.9364 11.86C15.7676 12.035 15.5387 12.1333 15.3 12.1333H2.7C2.46131 12.1333 2.23239 12.035 2.0636 11.86C1.89482 11.6849 1.8 11.4475 1.8 11.2V5.6H16.2V11.2ZM16.2 3.73333H1.8V2.8C1.8 2.55246 1.89482 2.31507 2.0636 2.14003C2.23239 1.965 2.46131 1.86667 2.7 1.86667H15.3C15.5387 1.86667 15.7676 1.965 15.9364 2.14003C16.1052 2.31507 16.2 2.55246 16.2 2.8V3.73333Z"/>
</svg>
