<svg width="18" height="18" viewBox="0 0 18 18" fill="black" xmlns="http://www.w3.org/2000/svg">
<path d="M16.7503 15.4723C17.314 14.7166 17.7009 13.844 17.8823 12.9188C18.0637 11.9937 18.0351 11.0396 17.7985 10.127C17.562 9.21434 17.1235 8.36649 16.5155 7.64598C15.9075 6.92547 15.1455 6.35069 14.2857 5.96406C14.0984 4.88649 13.668 3.86579 13.0271 2.97951C12.3863 2.09323 11.5519 1.3647 10.5873 0.849257C9.62266 0.333817 8.55327 0.0450368 7.46034 0.00485797C6.36742 -0.0353209 5.27971 0.174159 4.27988 0.61738C3.28004 1.0606 2.39438 1.7259 1.69018 2.56273C0.985988 3.39956 0.481792 4.38591 0.215903 5.44681C-0.0499859 6.50772 -0.0705713 7.61528 0.155711 8.68533C0.381993 9.75539 0.84919 10.7598 1.5218 11.6222L0.271497 12.8636C0.146685 12.9901 0.0621354 13.1507 0.0285175 13.3252C-0.00510052 13.4997 0.0137194 13.6803 0.0826025 13.8441C0.150083 14.0084 0.264677 14.149 0.411943 14.2482C0.55921 14.3475 0.732558 14.4009 0.910142 14.4018H6.02829C6.53799 15.4764 7.34159 16.3847 8.34607 17.0215C9.35055 17.6583 10.5148 17.9975 11.7041 18H17.1011C17.2787 17.9991 17.4521 17.9457 17.5993 17.8464C17.7466 17.7472 17.8612 17.6066 17.9287 17.4423C17.9975 17.2785 18.0164 17.0979 17.9827 16.9234C17.9491 16.7489 17.8646 16.5883 17.7398 16.4618L16.7503 15.4723ZM5.40764 11.7032C5.40887 12.0044 5.43293 12.3051 5.4796 12.6027H3.07793L3.39276 12.2969C3.47707 12.2132 3.54398 12.1138 3.58965 12.0041C3.63532 11.8945 3.65883 11.7769 3.65883 11.6582C3.65883 11.5394 3.63532 11.4219 3.58965 11.3122C3.54398 11.2026 3.47707 11.1031 3.39276 11.0195C2.88864 10.5209 2.48899 9.92678 2.21716 9.27189C1.94534 8.617 1.8068 7.91449 1.80964 7.20543C1.80964 5.77398 2.37825 4.40116 3.39038 3.38897C4.40252 2.37679 5.77526 1.80815 7.20663 1.80815C8.32353 1.80143 9.41444 2.14492 10.326 2.79033C11.2376 3.43574 11.924 4.35061 12.2888 5.40634C12.0909 5.40634 11.902 5.40634 11.7041 5.40634C10.0342 5.40634 8.43266 6.06975 7.25184 7.25064C6.07102 8.43152 5.40764 10.0331 5.40764 11.7032ZM14.8884 16.2009L14.9333 16.2459H11.7041C10.6637 16.244 9.65612 15.8815 8.853 15.22C8.04989 14.5586 7.50092 13.6391 7.29964 12.6183C7.09835 11.5975 7.25719 10.5385 7.7491 9.62163C8.24101 8.7048 9.03555 7.98687 9.99738 7.59017C10.9592 7.19346 12.0288 7.14251 13.024 7.446C14.0192 7.74948 14.8783 8.38863 15.4552 9.25456C16.032 10.1205 16.2908 11.1596 16.1874 12.1949C16.0841 13.2303 15.625 14.1977 14.8884 14.9325C14.7189 15.0986 14.6219 15.325 14.6185 15.5622C14.619 15.6812 14.6431 15.799 14.6894 15.9086C14.7357 16.0182 14.8034 16.1176 14.8884 16.2009V16.2009Z"/>
</svg>
