<svg width="19" height="19" viewBox="0 0 19 19" fill="none" xmlns="http://www.w3.org/2000/svg">
<path d="M5.25 7.94791H7.05C7.28869 7.94791 7.51761 7.85312 7.6864 7.68439C7.85518 7.51565 7.95 7.2868 7.95 7.04817C7.95 6.80955 7.85518 6.5807 7.6864 6.41196C7.51761 6.24323 7.28869 6.14843 7.05 6.14843H5.25C5.0113 6.14843 4.78239 6.24323 4.6136 6.41196C4.44482 6.5807 4.35 6.80955 4.35 7.04817C4.35 7.2868 4.44482 7.51565 4.6136 7.68439C4.78239 7.85312 5.0113 7.94791 5.25 7.94791ZM17.85 2.54948H10.65V1.64974C10.65 1.41111 10.5552 1.18226 10.3864 1.01353C10.2176 0.844794 9.98869 0.75 9.75 0.75C9.5113 0.75 9.28239 0.844794 9.1136 1.01353C8.94482 1.18226 8.85 1.41111 8.85 1.64974V2.54948H1.65C1.41131 2.54948 1.18239 2.64427 1.0136 2.81301C0.844821 2.98174 0.75 3.21059 0.75 3.44922V12.4466C0.75 13.1625 1.03446 13.849 1.54081 14.3552C2.04716 14.8614 2.73392 15.1458 3.45 15.1458H7.581L5.511 17.2062C5.42664 17.2899 5.35969 17.3894 5.314 17.499C5.26831 17.6087 5.24478 17.7263 5.24478 17.845C5.24478 17.9638 5.26831 18.0814 5.314 18.1911C5.35969 18.3007 5.42664 18.4002 5.511 18.4839C5.59467 18.5682 5.69421 18.6351 5.80388 18.6808C5.91355 18.7265 6.03119 18.75 6.15 18.75C6.26881 18.75 6.38645 18.7265 6.49612 18.6808C6.60579 18.6351 6.70533 18.5682 6.789 18.4839L8.85 16.4145V17.845C8.85 18.0837 8.94482 18.3125 9.1136 18.4813C9.28239 18.65 9.5113 18.7448 9.75 18.7448C9.98869 18.7448 10.2176 18.65 10.3864 18.4813C10.5552 18.3125 10.65 18.0837 10.65 17.845V16.4145L12.711 18.4839C12.7947 18.5682 12.8942 18.6351 13.0039 18.6808C13.1136 18.7265 13.2312 18.75 13.35 18.75C13.4688 18.75 13.5864 18.7265 13.6961 18.6808C13.8058 18.6351 13.9053 18.5682 13.989 18.4839C14.0734 18.4002 14.1403 18.3007 14.186 18.1911C14.2317 18.0814 14.2552 17.9638 14.2552 17.845C14.2552 17.7263 14.2317 17.6087 14.186 17.499C14.1403 17.3894 14.0734 17.2899 13.989 17.2062L11.919 15.1458H16.05C16.7661 15.1458 17.4528 14.8614 17.9592 14.3552C18.4655 13.849 18.75 13.1625 18.75 12.4466V3.44922C18.75 3.21059 18.6552 2.98174 18.4864 2.81301C18.3176 2.64427 18.0887 2.54948 17.85 2.54948ZM16.95 12.4466C16.95 12.6852 16.8552 12.9141 16.6864 13.0828C16.5176 13.2516 16.2887 13.3463 16.05 13.3463H3.45C3.21131 13.3463 2.98239 13.2516 2.8136 13.0828C2.64482 12.9141 2.55 12.6852 2.55 12.4466V4.34896H16.95V12.4466ZM5.25 11.5469H10.65C10.8887 11.5469 11.1176 11.4521 11.2864 11.2833C11.4552 11.1146 11.55 10.8858 11.55 10.6471C11.55 10.4085 11.4552 10.1797 11.2864 10.0109C11.1176 9.84219 10.8887 9.74739 10.65 9.74739H5.25C5.0113 9.74739 4.78239 9.84219 4.6136 10.0109C4.44482 10.1797 4.35 10.4085 4.35 10.6471C4.35 10.8858 4.44482 11.1146 4.6136 11.2833C4.78239 11.4521 5.0113 11.5469 5.25 11.5469Z" fill="#ADB8CC"/>
</svg>
