<svg width="26" height="26" viewBox="0 0 26 26" fill="black" xmlns="http://www.w3.org/2000/svg">
<path d="M7.33982 2.64061C10.2708 -0.290358 15.023 -0.290358 17.954 2.64061L22.9488 7.63539C25.8797 10.5664 25.8797 15.3187 22.9488 18.2496L17.954 23.2444L17.6737 23.5104C14.8226 26.0864 10.4713 26.0864 7.62016 23.5104L7.33982 23.2444L2.34506 18.2496C-0.494271 15.4103 -0.582786 10.8619 2.07903 7.91573L2.34506 7.63539L7.33982 2.64061ZM15.516 5.07865C13.9811 3.54373 11.5219 3.49635 9.92938 4.93553L9.77785 5.07865L4.78309 10.0734C3.19877 11.6578 3.19877 14.2273 4.78309 15.8116L9.77785 20.8064L9.92938 20.9495C11.5219 22.3887 13.9811 22.3413 15.516 20.8064L20.5107 15.8116C22.0951 14.2273 22.0951 11.6578 20.5107 10.0734L15.516 5.07865Z"/>
<path d="M10.9229 10.7876C10.9229 9.8354 11.6948 9.06348 12.647 9.06348C13.5992 9.06348 14.3711 9.8354 14.3711 10.7876V15.098C14.3711 16.0502 13.5992 16.8221 12.647 16.8221C11.6948 16.8221 10.9229 16.0502 10.9229 15.098V10.7876Z"/>
</svg>
