<svg width="12" height="12" viewBox="0 0 12 12" fill="black" xmlns="http://www.w3.org/2000/svg">
<path d="M10.5369 0.251054C10.8716 -0.0836847 11.4142 -0.0836847 11.7489 0.251054C12.0837 0.585793 12.0837 1.12838 11.7489 1.46312L7.21207 6L11.7489 10.5369L11.8075 10.6022C12.0821 10.9388 12.0628 11.4351 11.7489 11.7489C11.4351 12.0628 10.9388 12.0821 10.6022 11.8075L10.5369 11.7489L6 7.21207L1.46312 11.7489C1.12838 12.0837 0.585793 12.0837 0.251054 11.7489C-0.0836847 11.4142 -0.0836847 10.8716 0.251054 10.5369L4.78793 6L0.251054 1.46312L0.19246 1.39783C-0.0821293 1.06116 -0.062763 0.564871 0.251054 0.251054C0.564871 -0.062763 1.06116 -0.0821293 1.39783 0.19246L1.46312 0.251054L6 4.78793L10.5369 0.251054Z"/>
</svg>
