<svg width="14" height="18" viewBox="0 0 14 18" fill="black" xmlns="http://www.w3.org/2000/svg">
<path d="M10.1111 12.2727C10.5407 12.2727 10.8889 12.639 10.8889 13.0909C10.8889 13.5428 10.5407 13.9091 10.1111 13.9091H3.88889C3.45933 13.9091 3.11111 13.5428 3.11111 13.0909C3.11111 12.639 3.45933 12.2727 3.88889 12.2727H10.1111ZM10.1111 9C10.5407 9 10.8889 9.36631 10.8889 9.81818C10.8889 10.2701 10.5407 10.6364 10.1111 10.6364H3.88889C3.45933 10.6364 3.11111 10.2701 3.11111 9.81818C3.11111 9.36631 3.45933 9 3.88889 9H10.1111ZM5.44444 5.72727C5.874 5.72727 6.22222 6.09359 6.22222 6.54545C6.22222 6.99732 5.874 7.36364 5.44444 7.36364H3.88889C3.45933 7.36364 3.11111 6.99732 3.11111 6.54545C3.11111 6.09359 3.45933 5.72727 3.88889 5.72727H5.44444ZM9.33333 4.90909H11.3446L9.33333 2.79332V4.90909ZM14 15.5455C14 16.1964 13.754 16.8206 13.3164 17.2809C12.8788 17.7412 12.2855 18 11.6667 18H2.33333C1.71449 18 1.12118 17.7412 0.683594 17.2809C0.246009 16.8206 0 16.1964 0 15.5455V2.45455C0 1.80356 0.246009 1.17942 0.683594 0.719105C1.12118 0.258788 1.71449 0 2.33333 0H8.55556L8.63227 0.00399503C8.81038 0.0225596 8.9778 0.105403 9.10547 0.239702L13.7721 5.14879C13.918 5.30223 14 5.51028 14 5.72727V15.5455ZM1.55556 15.5455C1.55556 15.7624 1.63756 15.9705 1.78342 16.1239C1.92928 16.2774 2.12705 16.3636 2.33333 16.3636H11.6667C11.8729 16.3636 12.0707 16.2774 12.2166 16.1239C12.3624 15.9705 12.4444 15.7624 12.4444 15.5455V6.54545H8.55556C8.126 6.54545 7.77778 6.17914 7.77778 5.72727V1.63636H2.33333C2.12705 1.63636 1.92928 1.72263 1.78342 1.87607C1.63756 2.0295 1.55556 2.23755 1.55556 2.45455V15.5455Z"/>
</svg>
