<svg width="16" height="16" viewBox="0 0 16 16" fill="black" xmlns="http://www.w3.org/2000/svg">
<path d="M13.6929 2.52007C13.6843 2.42836 13.6627 2.33831 13.6289 2.25286C13.5838 2.13903 13.5176 2.0352 13.4343 1.94807C13.351 1.86099 13.2517 1.79174 13.1429 1.7446C13.0342 1.69756 12.9176 1.67351 12.7999 1.67351C12.5917 1.67351 12.3908 1.7491 12.2312 1.88597L12.1656 1.94807L2.32162 12.2433L1.89818 14.0132L3.5904 13.5711L13.4343 3.27511L13.4937 3.20729C13.5495 3.13614 13.595 3.05647 13.6289 2.97113C13.6739 2.8573 13.6968 2.7348 13.6968 2.61159L13.6929 2.52007ZM15.2 14.3262L15.282 14.3311C15.6852 14.374 15.9999 14.7298 16 15.1629C16 15.5961 15.6853 15.9526 15.282 15.9956L15.2 15.9997H7.99985C7.55802 15.9997 7.19984 15.625 7.19984 15.1629C7.19994 14.7009 7.55808 14.3262 7.99985 14.3262H15.2ZM15.2937 2.73988C15.2797 3.039 15.2168 3.33368 15.107 3.61095C14.9972 3.88822 14.8422 4.14326 14.65 4.36518L14.5656 4.45833L4.56542 14.9178C4.46289 15.025 4.3342 15.1016 4.19353 15.1384L0.993475 15.9751C0.720946 16.0463 0.432715 15.9623 0.234086 15.7545C0.0354479 15.5467 -0.044214 15.2454 0.0239261 14.9603L0.823941 11.6132L0.856754 11.5054C0.896853 11.4005 0.957198 11.3047 1.0341 11.2243L11.0343 0.764846L11.1241 0.675777C11.5822 0.241987 12.1791 0 12.7999 0C13.1278 0 13.4525 0.0673626 13.7554 0.198566C14.0584 0.329803 14.3337 0.522364 14.5656 0.764846C14.7975 1.00736 14.9815 1.29536 15.107 1.61222C15.2325 1.92904 15.2968 2.26867 15.2969 2.61159L15.2937 2.73988Z"/>
</svg>
