<svg width="14" height="16" viewBox="0 0 14 16" fill="black" xmlns="http://www.w3.org/2000/svg">
<path d="M0 13.8182V7.99991C0 7.59825 0.348223 7.27263 0.777778 7.27263C1.20733 7.27263 1.55556 7.59825 1.55556 7.99991V13.8182C1.55556 14.011 1.63756 14.196 1.78342 14.3324C1.92928 14.4688 2.12705 14.5454 2.33333 14.5454H11.6667C11.8729 14.5454 12.0707 14.4688 12.2166 14.3324C12.3624 14.196 12.4444 14.011 12.4444 13.8182V7.99991C12.4444 7.59825 12.7927 7.27263 13.2222 7.27263C13.6518 7.27263 14 7.59825 14 7.99991V13.8182C14 14.3968 13.754 14.9516 13.3164 15.3608C12.8788 15.77 12.2855 16 11.6667 16H2.33333C1.71449 16 1.12118 15.77 0.683594 15.3608C0.246009 14.9516 0 14.3968 0 13.8182ZM6.22222 10.1818V2.48281L4.4388 4.15044C4.13506 4.43446 3.64272 4.43446 3.33898 4.15044C3.03523 3.86642 3.03523 3.40604 3.33898 3.12202L6.45009 0.2129L6.50933 0.163184C6.81482 -0.069801 7.26516 -0.053369 7.54991 0.2129L10.661 3.12202L10.7142 3.17742C10.9634 3.46308 10.9458 3.88417 10.661 4.15044C10.3763 4.41671 9.92593 4.43314 9.62044 4.20016L9.5612 4.15044L7.77778 2.48281V10.1818C7.77778 10.5834 7.42955 10.909 7 10.909C6.57045 10.909 6.22222 10.5834 6.22222 10.1818Z"/>
</svg>
