<svg width="24" height="24" viewBox="0 0 24 24" fill="none" xmlns="http://www.w3.org/2000/svg">
<path d="M12 0.440918C8.93427 0.440918 5.99411 1.65877 3.82632 3.82656C1.65853 5.99435 0.440674 8.93451 0.440674 12.0002C0.440674 15.066 1.65853 18.0061 3.82632 20.1739C5.99411 22.3417 8.93427 23.5595 12 23.5595C15.0657 23.5595 18.0059 22.3417 20.1737 20.1739C22.3415 18.0061 23.5593 15.066 23.5593 12.0002C23.5593 8.93451 22.3415 5.99435 20.1737 3.82656C18.0059 1.65877 15.0657 0.440918 12 0.440918Z" fill="#222325"/>
<path d="M13.565 15.0641H16.5564L17.0261 12.0253H13.5643V10.3644C13.5643 9.10197 13.9768 7.98254 15.1577 7.98254H17.0553V5.33059C16.7219 5.28557 16.0167 5.18701 14.6844 5.18701C11.9022 5.18701 10.2712 6.65626 10.2712 10.0036V12.0253H7.41113V15.0641H10.2712V23.4167C10.8376 23.5018 11.4113 23.5596 12.0002 23.5596C12.5325 23.5596 13.0521 23.511 13.565 23.4416V15.0641Z" fill="white"/>
</svg>
