<svg width="18" height="18" viewBox="0 0 18 18" fill="black" xmlns="http://www.w3.org/2000/svg">
<path d="M9 0C13.9706 0 18 4.02944 18 9C18 13.9706 13.9706 18 9 18C4.02944 18 0 13.9706 0 9C0 4.02944 4.02944 0 9 0ZM5.27051 9.75C5.36718 11.6197 5.81933 13.2699 6.47607 14.4741C7.01347 15.4594 7.6352 16.0633 8.25 16.333V9.75H5.27051ZM9.75 16.333C10.3648 16.0633 10.9865 15.4594 11.5239 14.4741C12.1807 13.2699 12.6328 11.6197 12.7295 9.75H9.75V16.333ZM1.53662 9.75C1.78575 12.2594 3.27289 14.4035 5.37744 15.5669C5.30223 15.4449 5.22864 15.3207 5.15918 15.1934C4.36781 13.7425 3.86675 11.8373 3.76904 9.75H1.53662ZM14.231 9.75C14.1333 11.8373 13.6322 13.7425 12.8408 15.1934C12.7712 15.3209 12.6964 15.4446 12.6211 15.5669C14.7262 14.4036 16.2142 12.2598 16.4634 9.75H14.231ZM8.25 1.66553C7.63503 1.93509 7.01363 2.54036 6.47607 3.52588C5.81933 4.73012 5.36718 6.38027 5.27051 8.25H8.25V1.66553ZM12.6211 2.43164C12.6967 2.55423 12.771 2.6787 12.8408 2.80664C13.6322 4.25749 14.1333 6.16273 14.231 8.25H16.4634C16.2142 5.73994 14.7266 3.59485 12.6211 2.43164ZM9.75 8.25H12.7295C12.6328 6.38027 12.1807 4.73012 11.5239 3.52588C10.9864 2.54036 10.365 1.93509 9.75 1.66553V8.25ZM5.37744 2.43164C3.27256 3.595 1.78578 5.74039 1.53662 8.25H3.76904C3.86675 6.16273 4.36781 4.25749 5.15918 2.80664C5.22885 2.67893 5.302 2.55402 5.37744 2.43164Z"/>
</svg>
