<svg width="36" height="30" viewBox="0 0 36 30" fill="none" xmlns="http://www.w3.org/2000/svg">
<path d="M0.00488829 8.56034C0.00288604 7.51417 0.54999 6.46649 1.64722 5.86532L10.9487 0.766602V11.1528L1.64722 16.2515C0.553995 16.8506 0.00689053 17.8928 0.00488829 18.9355V8.56084V8.56034Z" fill="#0068FF"/>
<path d="M33.3975 11.3202L21.5186 17.8315C19.0459 19.1871 15.9889 19.1871 13.5162 17.831L1.64185 11.3202C0.549124 10.7211 0.00200772 9.67939 5.47557e-06 8.63672V19.0114C-0.00199677 20.0575 0.545119 21.1047 1.64185 21.7064L13.5122 28.2152C15.9874 29.5722 19.0469 29.5727 21.5221 28.2157L33.397 21.7064C34.4942 21.1052 35.0413 20.0575 35.0393 19.0114V8.63672C35.0378 9.67939 34.4902 10.7216 33.397 11.3207L33.3975 11.3202Z" fill="#0068FF"/>
<path d="M35.0287 8.56034C35.0307 7.51417 34.4836 6.46649 33.3864 5.86532L24.085 0.766602V11.1528L33.3864 16.2515C34.4796 16.8506 35.0267 17.8928 35.0287 18.9355V8.56084V8.56034Z" fill="#0068FF"/>
<path d="M16.9685 4.66748C15.8713 5.26865 15.3242 6.31633 15.3262 7.3625V15.9446L17.1798 14.9375L24.085 11.1522V0.766602L16.9685 4.66748Z" fill="#0068FF"/>
</svg>
