<svg width="101" height="20" viewBox="0 0 101 20" fill="none" xmlns="http://www.w3.org/2000/svg">
<path d="M6.6 15.12C5.28 15.12 4.12 14.82 3.12 14.22C2.13333 13.62 1.36667 12.7867 0.82 11.72C0.273333 10.64 0 9.38002 0 7.94002C0 6.51336 0.28 5.25336 0.84 4.16002C1.4 3.05336 2.2 2.19336 3.24 1.58002C4.29333 0.953356 5.54 0.640023 6.98 0.640023C8.60667 0.640023 9.95333 1.03336 11.02 1.82002C12.1 2.59336 12.8 3.67336 13.12 5.06002H10.42C10.22 4.36669 9.82667 3.82669 9.24 3.44002C8.65333 3.05336 7.89333 2.86002 6.96 2.86002C6.01333 2.86002 5.2 3.06669 4.52 3.48002C3.85333 3.88002 3.34 4.46669 2.98 5.24002C2.63333 6.00002 2.46 6.90669 2.46 7.96002C2.46 9.01336 2.63333 9.92002 2.98 10.68C3.34 11.44 3.84667 12.02 4.5 12.42C5.15333 12.8067 5.92 13 6.8 13C8.10667 13 9.09333 12.6334 9.76 11.9C10.4267 11.1667 10.82 10.2134 10.94 9.04002H7.32V7.22002H13.36V14.88H11.16L10.96 12.96C10.6533 13.4134 10.3 13.8067 9.9 14.14C9.5 14.46 9.02667 14.7067 8.48 14.88C7.94667 15.04 7.32 15.12 6.6 15.12Z" fill="white"/>
<path d="M20.5692 15.12C19.6092 15.12 18.7426 14.9 17.9692 14.46C17.2092 14.0067 16.6092 13.3867 16.1692 12.6C15.7426 11.8 15.5292 10.8867 15.5292 9.86002C15.5292 8.80669 15.7492 7.88669 16.1892 7.10002C16.6292 6.30002 17.2292 5.68002 17.9892 5.24002C18.7626 4.78669 19.6292 4.56002 20.5892 4.56002C21.5492 4.56002 22.4092 4.78669 23.1692 5.24002C23.9426 5.68002 24.5426 6.29336 24.9692 7.08002C25.4092 7.86669 25.6292 8.78669 25.6292 9.84002C25.6292 10.8934 25.4092 11.8134 24.9692 12.6C24.5292 13.3867 23.9226 14.0067 23.1492 14.46C22.3892 14.9 21.5292 15.12 20.5692 15.12ZM20.5692 13.06C21.0492 13.06 21.4826 12.94 21.8692 12.7C22.2692 12.46 22.5892 12.1 22.8292 11.62C23.0692 11.14 23.1892 10.5467 23.1892 9.84002C23.1892 9.13336 23.0692 8.54669 22.8292 8.08002C22.6026 7.60002 22.2892 7.24002 21.8892 7.00002C21.5026 6.76002 21.0692 6.64002 20.5892 6.64002C20.1226 6.64002 19.6892 6.76002 19.2892 7.00002C18.8892 7.24002 18.5692 7.60002 18.3292 8.08002C18.0892 8.54669 17.9692 9.13336 17.9692 9.84002C17.9692 10.5467 18.0892 11.14 18.3292 11.62C18.5692 12.1 18.8826 12.46 19.2692 12.7C19.6692 12.94 20.1026 13.06 20.5692 13.06Z" fill="white"/>
<path d="M31.6327 19.52C30.686 19.52 29.8527 19.4 29.1327 19.16C28.426 18.9334 27.8727 18.58 27.4727 18.1C27.086 17.6334 26.8927 17.0467 26.8927 16.34C26.8927 15.9267 26.9927 15.52 27.1927 15.12C27.406 14.7334 27.7193 14.3734 28.1327 14.04C28.5593 13.6934 29.0993 13.3934 29.7527 13.14L30.8127 14.3C30.1727 14.5267 29.726 14.8 29.4727 15.12C29.2193 15.44 29.0927 15.7667 29.0927 16.1C29.0927 16.4467 29.1993 16.7334 29.4127 16.96C29.6393 17.2 29.9393 17.38 30.3127 17.5C30.6993 17.62 31.1327 17.68 31.6127 17.68C32.0793 17.68 32.486 17.6134 32.8327 17.48C33.1793 17.36 33.446 17.1867 33.6327 16.96C33.8327 16.7334 33.9327 16.46 33.9327 16.14C33.9327 15.74 33.7927 15.4134 33.5127 15.16C33.2327 14.92 32.6793 14.7734 31.8527 14.72C31.146 14.6667 30.526 14.5934 29.9927 14.5C29.4593 14.3934 28.9993 14.2734 28.6127 14.14C28.2393 14.0067 27.9193 13.86 27.6527 13.7C27.386 13.5267 27.166 13.3534 26.9927 13.18V12.72L29.0927 10.52L30.8727 11.1L28.5127 13.4L29.1327 12.24C29.266 12.3334 29.3993 12.42 29.5327 12.5C29.6793 12.58 29.8593 12.6534 30.0727 12.72C30.2993 12.7734 30.5927 12.8267 30.9527 12.88C31.3127 12.9334 31.7793 12.9867 32.3527 13.04C33.246 13.1067 33.9727 13.2667 34.5327 13.52C35.0927 13.7734 35.506 14.1134 35.7727 14.54C36.0393 14.9667 36.1727 15.48 36.1727 16.08C36.1727 16.6667 36.006 17.22 35.6727 17.74C35.3527 18.26 34.8593 18.6867 34.1927 19.02C33.526 19.3534 32.6727 19.52 31.6327 19.52ZM31.6327 11.86C30.7927 11.86 30.066 11.7 29.4527 11.38C28.8527 11.0467 28.3927 10.6067 28.0727 10.06C27.7527 9.50002 27.5927 8.88669 27.5927 8.22002C27.5927 7.54002 27.7527 6.92669 28.0727 6.38002C28.3927 5.83336 28.8527 5.39336 29.4527 5.06002C30.066 4.72669 30.7927 4.56002 31.6327 4.56002C32.4727 4.56002 33.1927 4.72669 33.7927 5.06002C34.3927 5.39336 34.8527 5.83336 35.1727 6.38002C35.4927 6.92669 35.6527 7.54002 35.6527 8.22002C35.6527 8.88669 35.4927 9.50002 35.1727 10.06C34.8527 10.6067 34.3927 11.0467 33.7927 11.38C33.1927 11.7 32.4727 11.86 31.6327 11.86ZM31.6327 10C32.206 10 32.666 9.84669 33.0127 9.54002C33.3593 9.23336 33.5327 8.79336 33.5327 8.22002C33.5327 7.64669 33.3593 7.21336 33.0127 6.92002C32.666 6.61336 32.206 6.46002 31.6327 6.46002C31.0593 6.46002 30.5927 6.61336 30.2327 6.92002C29.8727 7.21336 29.6927 7.64669 29.6927 8.22002C29.6927 8.79336 29.8727 9.23336 30.2327 9.54002C30.5927 9.84669 31.0593 10 31.6327 10ZM33.2927 6.56002L32.8327 4.80002H36.9727V6.30002L33.2927 6.56002Z" fill="white"/>
<path d="M43.4012 15.12C42.4412 15.12 41.5746 14.9 40.8013 14.46C40.0413 14.0067 39.4412 13.3867 39.0013 12.6C38.5746 11.8 38.3613 10.8867 38.3613 9.86002C38.3613 8.80669 38.5813 7.88669 39.0213 7.10002C39.4613 6.30002 40.0613 5.68002 40.8213 5.24002C41.5946 4.78669 42.4613 4.56002 43.4212 4.56002C44.3812 4.56002 45.2413 4.78669 46.0013 5.24002C46.7746 5.68002 47.3746 6.29336 47.8013 7.08002C48.2412 7.86669 48.4613 8.78669 48.4613 9.84002C48.4613 10.8934 48.2412 11.8134 47.8013 12.6C47.3613 13.3867 46.7546 14.0067 45.9813 14.46C45.2213 14.9 44.3612 15.12 43.4012 15.12ZM43.4012 13.06C43.8812 13.06 44.3146 12.94 44.7013 12.7C45.1013 12.46 45.4212 12.1 45.6613 11.62C45.9013 11.14 46.0213 10.5467 46.0213 9.84002C46.0213 9.13336 45.9013 8.54669 45.6613 8.08002C45.4346 7.60002 45.1213 7.24002 44.7213 7.00002C44.3346 6.76002 43.9012 6.64002 43.4212 6.64002C42.9546 6.64002 42.5213 6.76002 42.1213 7.00002C41.7212 7.24002 41.4013 7.60002 41.1613 8.08002C40.9212 8.54669 40.8013 9.13336 40.8013 9.84002C40.8013 10.5467 40.9212 11.14 41.1613 11.62C41.4013 12.1 41.7146 12.46 42.1012 12.7C42.5013 12.94 42.9346 13.06 43.4012 13.06Z" fill="white"/>
<path d="M54.8306 15.12C53.9373 15.12 53.1573 14.98 52.4906 14.7C51.8373 14.4067 51.3173 14.0067 50.9306 13.5C50.5573 12.98 50.3373 12.3867 50.2706 11.72H52.6706C52.7373 12 52.8573 12.26 53.0306 12.5C53.204 12.7267 53.4373 12.9067 53.7306 13.04C54.0373 13.1734 54.3973 13.24 54.8106 13.24C55.2106 13.24 55.5373 13.1867 55.7906 13.08C56.044 12.96 56.2306 12.8067 56.3506 12.62C56.4706 12.4334 56.5306 12.2334 56.5306 12.02C56.5306 11.7 56.444 11.4534 56.2706 11.28C56.0973 11.1067 55.844 10.9734 55.5106 10.88C55.1906 10.7734 54.804 10.6734 54.3506 10.58C53.8706 10.4867 53.404 10.3734 52.9506 10.24C52.5106 10.0934 52.1106 9.91336 51.7506 9.70002C51.404 9.48669 51.124 9.21336 50.9106 8.88002C50.7106 8.54669 50.6106 8.14002 50.6106 7.66002C50.6106 7.07336 50.764 6.54669 51.0706 6.08002C51.3906 5.61336 51.844 5.24669 52.4306 4.98002C53.0306 4.70002 53.744 4.56002 54.5706 4.56002C55.744 4.56002 56.6773 4.83336 57.3706 5.38002C58.0773 5.91336 58.4906 6.66669 58.6106 7.64002H56.3306C56.264 7.26669 56.0773 6.98002 55.7706 6.78002C55.464 6.56669 55.0573 6.46002 54.5506 6.46002C54.0306 6.46002 53.6306 6.56002 53.3506 6.76002C53.084 6.94669 52.9506 7.20002 52.9506 7.52002C52.9506 7.72002 53.0306 7.90669 53.1906 8.08002C53.364 8.24002 53.6106 8.38002 53.9306 8.50002C54.2506 8.60669 54.644 8.71336 55.1106 8.82002C55.8573 8.96669 56.5173 9.14002 57.0906 9.34002C57.664 9.54002 58.1173 9.83336 58.4506 10.22C58.784 10.6067 58.9506 11.1534 58.9506 11.86C58.964 12.5 58.7973 13.0667 58.4506 13.56C58.1173 14.0534 57.644 14.44 57.0306 14.72C56.4173 14.9867 55.684 15.12 54.8306 15.12Z" fill="white"/>
<path d="M66.2422 14.88V0.880022H75.2822V2.82002H68.6422V6.84002H74.6822V8.74002H68.6422V12.94H75.2822V14.88H66.2422Z" fill="white"/>
<path d="M82.2047 15.12C81.2714 15.12 80.438 14.8934 79.7047 14.44C78.9714 13.9867 78.398 13.36 77.9847 12.56C77.5847 11.76 77.3847 10.8534 77.3847 9.84002C77.3847 8.82669 77.5914 7.92669 78.0047 7.14002C78.418 6.34002 78.9914 5.71336 79.7247 5.26002C80.4714 4.79336 81.3114 4.56002 82.2447 4.56002C83.0047 4.56002 83.6647 4.70669 84.2247 5.00002C84.798 5.28002 85.2514 5.68002 85.5847 6.20002V0.480022H87.9847V14.88H85.8247L85.5847 13.42C85.3714 13.7134 85.1114 13.9934 84.8047 14.26C84.498 14.5134 84.1314 14.72 83.7047 14.88C83.278 15.04 82.778 15.12 82.2047 15.12ZM82.7047 13.04C83.278 13.04 83.7847 12.9067 84.2247 12.64C84.6647 12.36 85.0047 11.98 85.2447 11.5C85.4847 11.02 85.6047 10.4667 85.6047 9.84002C85.6047 9.21336 85.4847 8.66002 85.2447 8.18002C85.0047 7.70002 84.6647 7.32669 84.2247 7.06002C83.7847 6.79336 83.278 6.66002 82.7047 6.66002C82.158 6.66002 81.6647 6.79336 81.2247 7.06002C80.7847 7.32669 80.438 7.70002 80.1847 8.18002C79.9447 8.66002 79.8247 9.21336 79.8247 9.84002C79.8247 10.4667 79.9447 11.02 80.1847 11.5C80.438 11.98 80.7847 12.36 81.2247 12.64C81.6647 12.9067 82.158 13.04 82.7047 13.04Z" fill="white"/>
<path d="M94.3944 15.12C93.581 15.12 92.881 14.96 92.2944 14.64C91.721 14.3067 91.281 13.8134 90.9744 13.16C90.6677 12.4934 90.5144 11.6734 90.5144 10.7V4.80002H92.9144V10.46C92.9144 11.3267 93.0944 11.9867 93.4544 12.44C93.8277 12.88 94.3877 13.1 95.1344 13.1C95.6144 13.1 96.041 12.9867 96.4144 12.76C96.801 12.5334 97.101 12.2067 97.3144 11.78C97.541 11.34 97.6544 10.8067 97.6544 10.18V4.80002H100.054V14.88H97.9344L97.7544 13.2C97.4477 13.7867 97.001 14.2534 96.4144 14.6C95.841 14.9467 95.1677 15.12 94.3944 15.12Z" fill="white"/>
</svg>
