<svg width="101" height="20" viewBox="0 0 101 20" fill="none" xmlns="http://www.w3.org/2000/svg">
<path d="M6.63906 15.1205C5.31906 15.1205 4.15906 14.8205 3.15906 14.2205C2.1724 13.6205 1.40573 12.7871 0.859063 11.7205C0.312396 10.6405 0.0390625 9.38047 0.0390625 7.94047C0.0390625 6.5138 0.319062 5.2538 0.879063 4.16047C1.43906 3.0538 2.23906 2.1938 3.27906 1.58047C4.3324 0.953802 5.57906 0.640469 7.01906 0.640469C8.64573 0.640469 9.9924 1.0338 11.0591 1.82047C12.1391 2.5938 12.8391 3.6738 13.1591 5.06047H10.4591C10.2591 4.36714 9.86573 3.82714 9.27906 3.44047C8.6924 3.0538 7.9324 2.86047 6.99906 2.86047C6.0524 2.86047 5.23906 3.06714 4.55906 3.48047C3.8924 3.88047 3.37906 4.46714 3.01906 5.24047C2.6724 6.00047 2.49906 6.90714 2.49906 7.96047C2.49906 9.0138 2.6724 9.92047 3.01906 10.6805C3.37906 11.4405 3.88573 12.0205 4.53906 12.4205C5.1924 12.8071 5.95906 13.0005 6.83906 13.0005C8.14573 13.0005 9.1324 12.6338 9.79906 11.9005C10.4657 11.1671 10.8591 10.2138 10.9791 9.04047H7.35906V7.22047H13.3991V14.8805H11.1991L10.9991 12.9605C10.6924 13.4138 10.3391 13.8071 9.93906 14.1405C9.53906 14.4605 9.06573 14.7071 8.51906 14.8805C7.98573 15.0405 7.35906 15.1205 6.63906 15.1205Z" fill="#222325"/>
<path d="M20.6083 15.1205C19.6483 15.1205 18.7816 14.9005 18.0083 14.4605C17.2483 14.0071 16.6483 13.3871 16.2083 12.6005C15.7816 11.8005 15.5683 10.8871 15.5683 9.86047C15.5683 8.80714 15.7883 7.88714 16.2283 7.10047C16.6683 6.30047 17.2683 5.68047 18.0283 5.24047C18.8016 4.78714 19.6683 4.56047 20.6283 4.56047C21.5883 4.56047 22.4483 4.78714 23.2083 5.24047C23.9816 5.68047 24.5816 6.2938 25.0083 7.08047C25.4483 7.86714 25.6683 8.78714 25.6683 9.84047C25.6683 10.8938 25.4483 11.8138 25.0083 12.6005C24.5683 13.3871 23.9616 14.0071 23.1883 14.4605C22.4283 14.9005 21.5683 15.1205 20.6083 15.1205ZM20.6083 13.0605C21.0883 13.0605 21.5216 12.9405 21.9083 12.7005C22.3083 12.4605 22.6283 12.1005 22.8683 11.6205C23.1083 11.1405 23.2283 10.5471 23.2283 9.84047C23.2283 9.1338 23.1083 8.54714 22.8683 8.08047C22.6416 7.60047 22.3283 7.24047 21.9283 7.00047C21.5416 6.76047 21.1083 6.64047 20.6283 6.64047C20.1616 6.64047 19.7283 6.76047 19.3283 7.00047C18.9283 7.24047 18.6083 7.60047 18.3683 8.08047C18.1283 8.54714 18.0083 9.1338 18.0083 9.84047C18.0083 10.5471 18.1283 11.1405 18.3683 11.6205C18.6083 12.1005 18.9216 12.4605 19.3083 12.7005C19.7083 12.9405 20.1416 13.0605 20.6083 13.0605Z" fill="#222325"/>
<path d="M31.6717 19.5205C30.7251 19.5205 29.8917 19.4005 29.1717 19.1605C28.4651 18.9338 27.9117 18.5805 27.5117 18.1005C27.1251 17.6338 26.9317 17.0471 26.9317 16.3405C26.9317 15.9271 27.0317 15.5205 27.2317 15.1205C27.4451 14.7338 27.7584 14.3738 28.1717 14.0405C28.5984 13.6938 29.1384 13.3938 29.7917 13.1405L30.8517 14.3005C30.2117 14.5271 29.7651 14.8005 29.5117 15.1205C29.2584 15.4405 29.1317 15.7671 29.1317 16.1005C29.1317 16.4471 29.2384 16.7338 29.4517 16.9605C29.6784 17.2005 29.9784 17.3805 30.3517 17.5005C30.7384 17.6205 31.1717 17.6805 31.6517 17.6805C32.1184 17.6805 32.5251 17.6138 32.8717 17.4805C33.2184 17.3605 33.4851 17.1871 33.6717 16.9605C33.8717 16.7338 33.9717 16.4605 33.9717 16.1405C33.9717 15.7405 33.8317 15.4138 33.5517 15.1605C33.2717 14.9205 32.7184 14.7738 31.8917 14.7205C31.1851 14.6671 30.5651 14.5938 30.0317 14.5005C29.4984 14.3938 29.0384 14.2738 28.6517 14.1405C28.2784 14.0071 27.9584 13.8605 27.6917 13.7005C27.4251 13.5271 27.2051 13.3538 27.0317 13.1805V12.7205L29.1317 10.5205L30.9117 11.1005L28.5517 13.4005L29.1717 12.2405C29.3051 12.3338 29.4384 12.4205 29.5717 12.5005C29.7184 12.5805 29.8984 12.6538 30.1117 12.7205C30.3384 12.7738 30.6317 12.8271 30.9917 12.8805C31.3517 12.9338 31.8184 12.9871 32.3917 13.0405C33.2851 13.1071 34.0117 13.2671 34.5717 13.5205C35.1317 13.7738 35.5451 14.1138 35.8117 14.5405C36.0784 14.9671 36.2117 15.4805 36.2117 16.0805C36.2117 16.6671 36.0451 17.2205 35.7117 17.7405C35.3917 18.2605 34.8984 18.6871 34.2317 19.0205C33.5651 19.3538 32.7117 19.5205 31.6717 19.5205ZM31.6717 11.8605C30.8317 11.8605 30.1051 11.7005 29.4917 11.3805C28.8917 11.0471 28.4317 10.6071 28.1117 10.0605C27.7917 9.50047 27.6317 8.88714 27.6317 8.22047C27.6317 7.54047 27.7917 6.92714 28.1117 6.38047C28.4317 5.8338 28.8917 5.3938 29.4917 5.06047C30.1051 4.72714 30.8317 4.56047 31.6717 4.56047C32.5117 4.56047 33.2317 4.72714 33.8317 5.06047C34.4317 5.3938 34.8917 5.8338 35.2117 6.38047C35.5317 6.92714 35.6917 7.54047 35.6917 8.22047C35.6917 8.88714 35.5317 9.50047 35.2117 10.0605C34.8917 10.6071 34.4317 11.0471 33.8317 11.3805C33.2317 11.7005 32.5117 11.8605 31.6717 11.8605ZM31.6717 10.0005C32.2451 10.0005 32.7051 9.84714 33.0517 9.54047C33.3984 9.2338 33.5717 8.7938 33.5717 8.22047C33.5717 7.64714 33.3984 7.2138 33.0517 6.92047C32.7051 6.6138 32.2451 6.46047 31.6717 6.46047C31.0984 6.46047 30.6317 6.6138 30.2717 6.92047C29.9117 7.2138 29.7317 7.64714 29.7317 8.22047C29.7317 8.7938 29.9117 9.2338 30.2717 9.54047C30.6317 9.84714 31.0984 10.0005 31.6717 10.0005ZM33.3317 6.56047L32.8717 4.80047H37.0117V6.30047L33.3317 6.56047Z" fill="#222325"/>
<path d="M43.4403 15.1205C42.4803 15.1205 41.6136 14.9005 40.8403 14.4605C40.0803 14.0071 39.4803 13.3871 39.0403 12.6005C38.6136 11.8005 38.4003 10.8871 38.4003 9.86047C38.4003 8.80714 38.6203 7.88714 39.0603 7.10047C39.5003 6.30047 40.1003 5.68047 40.8603 5.24047C41.6336 4.78714 42.5003 4.56047 43.4603 4.56047C44.4203 4.56047 45.2803 4.78714 46.0403 5.24047C46.8136 5.68047 47.4136 6.2938 47.8403 7.08047C48.2803 7.86714 48.5003 8.78714 48.5003 9.84047C48.5003 10.8938 48.2803 11.8138 47.8403 12.6005C47.4003 13.3871 46.7936 14.0071 46.0203 14.4605C45.2603 14.9005 44.4003 15.1205 43.4403 15.1205ZM43.4403 13.0605C43.9203 13.0605 44.3536 12.9405 44.7403 12.7005C45.1403 12.4605 45.4603 12.1005 45.7003 11.6205C45.9403 11.1405 46.0603 10.5471 46.0603 9.84047C46.0603 9.1338 45.9403 8.54714 45.7003 8.08047C45.4736 7.60047 45.1603 7.24047 44.7603 7.00047C44.3736 6.76047 43.9403 6.64047 43.4603 6.64047C42.9936 6.64047 42.5603 6.76047 42.1603 7.00047C41.7603 7.24047 41.4403 7.60047 41.2003 8.08047C40.9603 8.54714 40.8403 9.1338 40.8403 9.84047C40.8403 10.5471 40.9603 11.1405 41.2003 11.6205C41.4403 12.1005 41.7536 12.4605 42.1403 12.7005C42.5403 12.9405 42.9736 13.0605 43.4403 13.0605Z" fill="#222325"/>
<path d="M54.8697 15.1205C53.9764 15.1205 53.1964 14.9805 52.5297 14.7005C51.8764 14.4071 51.3564 14.0071 50.9697 13.5005C50.5964 12.9805 50.3764 12.3871 50.3097 11.7205H52.7097C52.7764 12.0005 52.8964 12.2605 53.0697 12.5005C53.243 12.7271 53.4764 12.9071 53.7697 13.0405C54.0764 13.1738 54.4364 13.2405 54.8497 13.2405C55.2497 13.2405 55.5764 13.1871 55.8297 13.0805C56.083 12.9605 56.2697 12.8071 56.3897 12.6205C56.5097 12.4338 56.5697 12.2338 56.5697 12.0205C56.5697 11.7005 56.483 11.4538 56.3097 11.2805C56.1364 11.1071 55.883 10.9738 55.5497 10.8805C55.2297 10.7738 54.843 10.6738 54.3897 10.5805C53.9097 10.4871 53.443 10.3738 52.9897 10.2405C52.5497 10.0938 52.1497 9.9138 51.7897 9.70047C51.443 9.48714 51.163 9.2138 50.9497 8.88047C50.7497 8.54714 50.6497 8.14047 50.6497 7.66047C50.6497 7.0738 50.803 6.54714 51.1097 6.08047C51.4297 5.6138 51.883 5.24714 52.4697 4.98047C53.0697 4.70047 53.783 4.56047 54.6097 4.56047C55.783 4.56047 56.7164 4.8338 57.4097 5.38047C58.1164 5.9138 58.5297 6.66714 58.6497 7.64047H56.3697C56.303 7.26714 56.1164 6.98047 55.8097 6.78047C55.503 6.56714 55.0964 6.46047 54.5897 6.46047C54.0697 6.46047 53.6697 6.56047 53.3897 6.76047C53.123 6.94714 52.9897 7.20047 52.9897 7.52047C52.9897 7.72047 53.0697 7.90714 53.2297 8.08047C53.403 8.24047 53.6497 8.38047 53.9697 8.50047C54.2897 8.60714 54.683 8.7138 55.1497 8.82047C55.8964 8.96714 56.5564 9.14047 57.1297 9.34047C57.703 9.54047 58.1564 9.8338 58.4897 10.2205C58.823 10.6071 58.9897 11.1538 58.9897 11.8605C59.003 12.5005 58.8364 13.0671 58.4897 13.5605C58.1564 14.0538 57.683 14.4405 57.0697 14.7205C56.4564 14.9871 55.723 15.1205 54.8697 15.1205Z" fill="#222325"/>
<path d="M66.2812 14.8805V0.880468H75.3213V2.82047H68.6813V6.84047H74.7213V8.74047H68.6813V12.9405H75.3213V14.8805H66.2812Z" fill="#222325"/>
<path d="M82.2438 15.1205C81.3104 15.1205 80.4771 14.8938 79.7438 14.4405C79.0104 13.9871 78.4371 13.3605 78.0238 12.5605C77.6237 11.7605 77.4238 10.8538 77.4238 9.84047C77.4238 8.82714 77.6304 7.92714 78.0437 7.14047C78.4571 6.34047 79.0304 5.7138 79.7637 5.26047C80.5104 4.7938 81.3504 4.56047 82.2838 4.56047C83.0438 4.56047 83.7038 4.70714 84.2637 5.00047C84.8371 5.28047 85.2904 5.68047 85.6237 6.20047V0.480469H88.0238V14.8805H85.8638L85.6237 13.4205C85.4104 13.7138 85.1504 13.9938 84.8438 14.2605C84.5371 14.5138 84.1704 14.7205 83.7438 14.8805C83.3171 15.0405 82.8171 15.1205 82.2438 15.1205ZM82.7438 13.0405C83.3171 13.0405 83.8237 12.9071 84.2637 12.6405C84.7038 12.3605 85.0438 11.9805 85.2838 11.5005C85.5238 11.0205 85.6438 10.4671 85.6438 9.84047C85.6438 9.2138 85.5238 8.66047 85.2838 8.18047C85.0438 7.70047 84.7038 7.32714 84.2637 7.06047C83.8237 6.7938 83.3171 6.66047 82.7438 6.66047C82.1971 6.66047 81.7038 6.7938 81.2637 7.06047C80.8237 7.32714 80.4771 7.70047 80.2237 8.18047C79.9837 8.66047 79.8637 9.2138 79.8637 9.84047C79.8637 10.4671 79.9837 11.0205 80.2237 11.5005C80.4771 11.9805 80.8237 12.3605 81.2637 12.6405C81.7038 12.9071 82.1971 13.0405 82.7438 13.0405Z" fill="#222325"/>
<path d="M94.4334 15.1205C93.6201 15.1205 92.9201 14.9605 92.3334 14.6405C91.7601 14.3071 91.3201 13.8138 91.0134 13.1605C90.7068 12.4938 90.5534 11.6738 90.5534 10.7005V4.80047H92.9534V10.4605C92.9534 11.3271 93.1334 11.9871 93.4934 12.4405C93.8668 12.8805 94.4268 13.1005 95.1734 13.1005C95.6534 13.1005 96.0801 12.9871 96.4534 12.7605C96.8401 12.5338 97.1401 12.2071 97.3534 11.7805C97.5801 11.3405 97.6934 10.8071 97.6934 10.1805V4.80047H100.093V14.8805H97.9734L97.7934 13.2005C97.4868 13.7871 97.0401 14.2538 96.4534 14.6005C95.8801 14.9471 95.2068 15.1205 94.4334 15.1205Z" fill="#222325"/>
</svg>
