<svg width="36" height="29" viewBox="0 0 36 29" fill="none" xmlns="http://www.w3.org/2000/svg">
<path d="M0.00488829 8.27421C0.00288604 7.22804 0.54999 6.18036 1.64722 5.57919L10.9487 0.480469V10.8666L1.64722 15.9653C0.553995 16.5645 0.00689053 17.6067 0.00488829 18.6493V8.27471V8.27421Z" fill="white"/>
<path d="M33.3975 11.0341L21.5186 17.5454C19.0459 18.9009 15.9889 18.9009 13.5162 17.5449L1.64185 11.0341C0.549124 10.4349 0.00200772 9.39326 5.47557e-06 8.35059V18.7252C-0.00199677 19.7714 0.545119 20.8186 1.64185 21.4202L13.5122 27.929C15.9874 29.2861 19.0469 29.2866 21.5221 27.9295L33.397 21.4202C34.4942 20.8191 35.0413 19.7714 35.0393 18.7252V8.35059C35.0378 9.39326 34.4902 10.4354 33.397 11.0346L33.3975 11.0341Z" fill="white"/>
<path d="M35.0292 8.27421C35.0312 7.22804 34.4841 6.18036 33.3869 5.57919L24.0854 0.480469V10.8666L33.3869 15.9653C34.4801 16.5645 35.0272 17.6067 35.0292 18.6493V8.27471V8.27421Z" fill="white"/>
<path d="M16.9685 4.38134C15.8713 4.98252 15.3242 6.03019 15.3262 7.07637V15.6585L17.1798 14.6514L24.085 10.8661V0.480469L16.9685 4.38134Z" fill="white"/>
</svg>
