<svg width="101" height="20" viewBox="0 0 101 20" fill="none" xmlns="http://www.w3.org/2000/svg">
<path d="M6.6 15.12C5.28 15.12 4.12 14.82 3.12 14.22C2.13333 13.62 1.36667 12.7866 0.82 11.72C0.273333 10.64 0 9.37998 0 7.93998C0 6.51331 0.28 5.25331 0.84 4.15998C1.4 3.05331 2.2 2.19331 3.24 1.57998C4.29333 0.953314 5.54 0.639981 6.98 0.639981C8.60667 0.639981 9.95333 1.03331 11.02 1.81998C12.1 2.59331 12.8 3.67331 13.12 5.05998H10.42C10.22 4.36665 9.82667 3.82665 9.24 3.43998C8.65333 3.05331 7.89333 2.85998 6.96 2.85998C6.01333 2.85998 5.2 3.06665 4.52 3.47998C3.85333 3.87998 3.34 4.46665 2.98 5.23998C2.63333 5.99998 2.46 6.90665 2.46 7.95998C2.46 9.01331 2.63333 9.91998 2.98 10.68C3.34 11.44 3.84667 12.02 4.5 12.42C5.15333 12.8066 5.92 13 6.8 13C8.10667 13 9.09333 12.6333 9.76 11.9C10.4267 11.1666 10.82 10.2133 10.94 9.03998H7.32V7.21998H13.36V14.88H11.16L10.96 12.96C10.6533 13.4133 10.3 13.8066 9.9 14.14C9.5 14.46 9.02667 14.7066 8.48 14.88C7.94667 15.04 7.32 15.12 6.6 15.12Z" fill="#222325"/>
<path d="M20.5692 15.12C19.6092 15.12 18.7426 14.9 17.9692 14.46C17.2092 14.0066 16.6092 13.3866 16.1692 12.6C15.7426 11.8 15.5292 10.8866 15.5292 9.85998C15.5292 8.80665 15.7492 7.88665 16.1892 7.09998C16.6292 6.29998 17.2292 5.67998 17.9892 5.23998C18.7626 4.78665 19.6292 4.55998 20.5892 4.55998C21.5492 4.55998 22.4092 4.78665 23.1692 5.23998C23.9426 5.67998 24.5426 6.29331 24.9692 7.07998C25.4092 7.86665 25.6292 8.78665 25.6292 9.83998C25.6292 10.8933 25.4092 11.8133 24.9692 12.6C24.5292 13.3866 23.9226 14.0066 23.1492 14.46C22.3892 14.9 21.5292 15.12 20.5692 15.12ZM20.5692 13.06C21.0492 13.06 21.4826 12.94 21.8692 12.7C22.2692 12.46 22.5892 12.1 22.8292 11.62C23.0692 11.14 23.1892 10.5466 23.1892 9.83998C23.1892 9.13331 23.0692 8.54665 22.8292 8.07998C22.6026 7.59998 22.2892 7.23998 21.8892 6.99998C21.5026 6.75998 21.0692 6.63998 20.5892 6.63998C20.1226 6.63998 19.6892 6.75998 19.2892 6.99998C18.8892 7.23998 18.5692 7.59998 18.3292 8.07998C18.0892 8.54665 17.9692 9.13331 17.9692 9.83998C17.9692 10.5466 18.0892 11.14 18.3292 11.62C18.5692 12.1 18.8826 12.46 19.2692 12.7C19.6692 12.94 20.1026 13.06 20.5692 13.06Z" fill="#222325"/>
<path d="M31.6327 19.52C30.686 19.52 29.8527 19.4 29.1327 19.16C28.426 18.9333 27.8727 18.58 27.4727 18.1C27.086 17.6333 26.8927 17.0466 26.8927 16.34C26.8927 15.9266 26.9927 15.52 27.1927 15.12C27.406 14.7333 27.7193 14.3733 28.1327 14.04C28.5593 13.6933 29.0993 13.3933 29.7527 13.14L30.8127 14.3C30.1727 14.5266 29.726 14.8 29.4727 15.12C29.2193 15.44 29.0927 15.7666 29.0927 16.1C29.0927 16.4466 29.1993 16.7333 29.4127 16.96C29.6393 17.2 29.9393 17.38 30.3127 17.5C30.6993 17.62 31.1327 17.68 31.6127 17.68C32.0793 17.68 32.486 17.6133 32.8327 17.48C33.1793 17.36 33.446 17.1866 33.6327 16.96C33.8327 16.7333 33.9327 16.46 33.9327 16.14C33.9327 15.74 33.7927 15.4133 33.5127 15.16C33.2327 14.92 32.6793 14.7733 31.8527 14.72C31.146 14.6666 30.526 14.5933 29.9927 14.5C29.4593 14.3933 28.9993 14.2733 28.6127 14.14C28.2393 14.0066 27.9193 13.86 27.6527 13.7C27.386 13.5266 27.166 13.3533 26.9927 13.18V12.72L29.0927 10.52L30.8727 11.1L28.5127 13.4L29.1327 12.24C29.266 12.3333 29.3993 12.42 29.5327 12.5C29.6793 12.58 29.8593 12.6533 30.0727 12.72C30.2993 12.7733 30.5927 12.8266 30.9527 12.88C31.3127 12.9333 31.7793 12.9866 32.3527 13.04C33.246 13.1066 33.9727 13.2666 34.5327 13.52C35.0927 13.7733 35.506 14.1133 35.7727 14.54C36.0393 14.9666 36.1727 15.48 36.1727 16.08C36.1727 16.6666 36.006 17.22 35.6727 17.74C35.3527 18.26 34.8593 18.6866 34.1927 19.02C33.526 19.3533 32.6727 19.52 31.6327 19.52ZM31.6327 11.86C30.7927 11.86 30.066 11.7 29.4527 11.38C28.8527 11.0466 28.3927 10.6066 28.0727 10.06C27.7527 9.49998 27.5927 8.88665 27.5927 8.21998C27.5927 7.53998 27.7527 6.92665 28.0727 6.37998C28.3927 5.83331 28.8527 5.39331 29.4527 5.05998C30.066 4.72665 30.7927 4.55998 31.6327 4.55998C32.4727 4.55998 33.1927 4.72665 33.7927 5.05998C34.3927 5.39331 34.8527 5.83331 35.1727 6.37998C35.4927 6.92665 35.6527 7.53998 35.6527 8.21998C35.6527 8.88665 35.4927 9.49998 35.1727 10.06C34.8527 10.6066 34.3927 11.0466 33.7927 11.38C33.1927 11.7 32.4727 11.86 31.6327 11.86ZM31.6327 9.99998C32.206 9.99998 32.666 9.84665 33.0127 9.53998C33.3593 9.23331 33.5327 8.79331 33.5327 8.21998C33.5327 7.64665 33.3593 7.21331 33.0127 6.91998C32.666 6.61331 32.206 6.45998 31.6327 6.45998C31.0593 6.45998 30.5927 6.61331 30.2327 6.91998C29.8727 7.21331 29.6927 7.64665 29.6927 8.21998C29.6927 8.79331 29.8727 9.23331 30.2327 9.53998C30.5927 9.84665 31.0593 9.99998 31.6327 9.99998ZM33.2927 6.55998L32.8327 4.79998H36.9727V6.29998L33.2927 6.55998Z" fill="#222325"/>
<path d="M43.4012 15.12C42.4412 15.12 41.5746 14.9 40.8013 14.46C40.0413 14.0066 39.4412 13.3866 39.0013 12.6C38.5746 11.8 38.3613 10.8866 38.3613 9.85998C38.3613 8.80665 38.5813 7.88665 39.0213 7.09998C39.4613 6.29998 40.0613 5.67998 40.8213 5.23998C41.5946 4.78665 42.4613 4.55998 43.4212 4.55998C44.3812 4.55998 45.2413 4.78665 46.0013 5.23998C46.7746 5.67998 47.3746 6.29331 47.8013 7.07998C48.2412 7.86665 48.4613 8.78665 48.4613 9.83998C48.4613 10.8933 48.2412 11.8133 47.8013 12.6C47.3613 13.3866 46.7546 14.0066 45.9813 14.46C45.2213 14.9 44.3612 15.12 43.4012 15.12ZM43.4012 13.06C43.8812 13.06 44.3146 12.94 44.7013 12.7C45.1013 12.46 45.4212 12.1 45.6613 11.62C45.9013 11.14 46.0213 10.5466 46.0213 9.83998C46.0213 9.13331 45.9013 8.54665 45.6613 8.07998C45.4346 7.59998 45.1213 7.23998 44.7213 6.99998C44.3346 6.75998 43.9012 6.63998 43.4212 6.63998C42.9546 6.63998 42.5213 6.75998 42.1213 6.99998C41.7212 7.23998 41.4013 7.59998 41.1613 8.07998C40.9212 8.54665 40.8013 9.13331 40.8013 9.83998C40.8013 10.5466 40.9212 11.14 41.1613 11.62C41.4013 12.1 41.7146 12.46 42.1012 12.7C42.5013 12.94 42.9346 13.06 43.4012 13.06Z" fill="#222325"/>
<path d="M54.8306 15.12C53.9373 15.12 53.1573 14.98 52.4906 14.7C51.8373 14.4066 51.3173 14.0066 50.9306 13.5C50.5573 12.98 50.3373 12.3866 50.2706 11.72H52.6706C52.7373 12 52.8573 12.26 53.0306 12.5C53.204 12.7266 53.4373 12.9066 53.7306 13.04C54.0373 13.1733 54.3973 13.24 54.8106 13.24C55.2106 13.24 55.5373 13.1866 55.7906 13.08C56.044 12.96 56.2306 12.8066 56.3506 12.62C56.4706 12.4333 56.5306 12.2333 56.5306 12.02C56.5306 11.7 56.444 11.4533 56.2706 11.28C56.0973 11.1066 55.844 10.9733 55.5106 10.88C55.1906 10.7733 54.804 10.6733 54.3506 10.58C53.8706 10.4866 53.404 10.3733 52.9506 10.24C52.5106 10.0933 52.1106 9.91331 51.7506 9.69998C51.404 9.48665 51.124 9.21331 50.9106 8.87998C50.7106 8.54665 50.6106 8.13998 50.6106 7.65998C50.6106 7.07331 50.764 6.54665 51.0706 6.07998C51.3906 5.61331 51.844 5.24665 52.4306 4.97998C53.0306 4.69998 53.744 4.55998 54.5706 4.55998C55.744 4.55998 56.6773 4.83331 57.3706 5.37998C58.0773 5.91331 58.4906 6.66665 58.6106 7.63998H56.3306C56.264 7.26665 56.0773 6.97998 55.7706 6.77998C55.464 6.56665 55.0573 6.45998 54.5506 6.45998C54.0306 6.45998 53.6306 6.55998 53.3506 6.75998C53.084 6.94665 52.9506 7.19998 52.9506 7.51998C52.9506 7.71998 53.0306 7.90665 53.1906 8.07998C53.364 8.23998 53.6106 8.37998 53.9306 8.49998C54.2506 8.60665 54.644 8.71331 55.1106 8.81998C55.8573 8.96665 56.5173 9.13998 57.0906 9.33998C57.664 9.53998 58.1173 9.83331 58.4506 10.22C58.784 10.6066 58.9506 11.1533 58.9506 11.86C58.964 12.5 58.7973 13.0666 58.4506 13.56C58.1173 14.0533 57.644 14.44 57.0306 14.72C56.4173 14.9866 55.684 15.12 54.8306 15.12Z" fill="#222325"/>
<path d="M66.2422 14.88V0.87998H75.2822V2.81998H68.6422V6.83998H74.6822V8.73998H68.6422V12.94H75.2822V14.88H66.2422Z" fill="#222325"/>
<path d="M82.2047 15.12C81.2714 15.12 80.438 14.8933 79.7047 14.44C78.9714 13.9866 78.398 13.36 77.9847 12.56C77.5847 11.76 77.3847 10.8533 77.3847 9.83998C77.3847 8.82665 77.5914 7.92665 78.0047 7.13998C78.418 6.33998 78.9914 5.71331 79.7247 5.25998C80.4714 4.79331 81.3114 4.55998 82.2447 4.55998C83.0047 4.55998 83.6647 4.70665 84.2247 4.99998C84.798 5.27998 85.2514 5.67998 85.5847 6.19998V0.47998H87.9847V14.88H85.8247L85.5847 13.42C85.3714 13.7133 85.1114 13.9933 84.8047 14.26C84.498 14.5133 84.1314 14.72 83.7047 14.88C83.278 15.04 82.778 15.12 82.2047 15.12ZM82.7047 13.04C83.278 13.04 83.7847 12.9066 84.2247 12.64C84.6647 12.36 85.0047 11.98 85.2447 11.5C85.4847 11.02 85.6047 10.4666 85.6047 9.83998C85.6047 9.21331 85.4847 8.65998 85.2447 8.17998C85.0047 7.69998 84.6647 7.32665 84.2247 7.05998C83.7847 6.79331 83.278 6.65998 82.7047 6.65998C82.158 6.65998 81.6647 6.79331 81.2247 7.05998C80.7847 7.32665 80.438 7.69998 80.1847 8.17998C79.9447 8.65998 79.8247 9.21331 79.8247 9.83998C79.8247 10.4666 79.9447 11.02 80.1847 11.5C80.438 11.98 80.7847 12.36 81.2247 12.64C81.6647 12.9066 82.158 13.04 82.7047 13.04Z" fill="#222325"/>
<path d="M94.3944 15.12C93.581 15.12 92.881 14.96 92.2944 14.64C91.721 14.3066 91.281 13.8133 90.9744 13.16C90.6677 12.4933 90.5144 11.6733 90.5144 10.7V4.79998H92.9144V10.46C92.9144 11.3266 93.0944 11.9866 93.4544 12.44C93.8277 12.88 94.3877 13.1 95.1344 13.1C95.6144 13.1 96.041 12.9866 96.4144 12.76C96.801 12.5333 97.101 12.2066 97.3144 11.78C97.541 11.34 97.6544 10.8066 97.6544 10.18V4.79998H100.054V14.88H97.9344L97.7544 13.2C97.4477 13.7866 97.001 14.2533 96.4144 14.6C95.841 14.9466 95.1677 15.12 94.3944 15.12Z" fill="#222325"/>
</svg>
