<svg width="36" height="30" viewBox="0 0 36 30" fill="none" xmlns="http://www.w3.org/2000/svg">
<path d="M0.00531553 8.56038C0.00331329 7.51421 0.550418 6.46654 1.64765 5.86536L10.9491 0.766644V11.1528L1.64765 16.2515C0.554422 16.8507 0.00731778 17.8929 0.00531553 18.9355V8.56088V8.56038Z" fill="#0068FF"/>
<path d="M33.3975 11.3204L21.5186 17.8317C19.0459 19.1872 15.9889 19.1872 13.5162 17.8312L1.64185 11.3204C0.549124 10.7212 0.00200772 9.67956 5.47557e-06 8.63689V19.0115C-0.00199677 20.0577 0.545119 21.1049 1.64185 21.7065L13.5122 28.2153C15.9874 29.5724 19.0469 29.5729 21.5221 28.2158L33.397 21.7065C34.4942 21.1054 35.0413 20.0577 35.0393 19.0115V8.63689C35.0378 9.67956 34.4902 10.7217 33.397 11.3209L33.3975 11.3204Z" fill="#0068FF"/>
<path d="M35.0294 8.56038C35.0314 7.51421 34.4842 6.46654 33.387 5.86536L24.0856 0.766644V11.1528L33.387 16.2515C34.4802 16.8507 35.0273 17.8929 35.0294 18.9355V8.56088V8.56038Z" fill="#0068FF"/>
<path d="M16.9686 4.66752C15.8714 5.26869 15.3243 6.31637 15.3263 7.36254V15.9447L17.1799 14.9375L24.0851 11.1523V0.766644L16.9686 4.66752Z" fill="#0068FF"/>
</svg>
