<svg width="24" height="24" viewBox="0 0 24 24" fill="none" xmlns="http://www.w3.org/2000/svg">
<mask id="mask0_301_22165" style="mask-type:luminance" maskUnits="userSpaceOnUse" x="1" y="1" width="22" height="22">
<path d="M21.8734 10.0738H11.9999V14.1677H17.6832C17.1534 16.7686 14.9378 18.2616 11.9999 18.2616C8.53206 18.2616 5.73855 15.4681 5.73855 12.0003C5.73855 8.53255 8.53206 5.73904 11.9999 5.73904C13.4929 5.73904 14.8415 6.26885 15.9011 7.13579L18.9836 4.05331C17.1052 2.41574 14.697 1.4043 11.9999 1.4043C6.12387 1.4043 1.40381 6.12435 1.40381 12.0003C1.40381 17.8763 6.12387 22.5964 11.9999 22.5964C17.2979 22.5964 22.1143 18.7433 22.1143 12.0003C22.1143 11.3742 22.0179 10.6999 21.8734 10.0738Z" fill="white"/>
</mask>
<g mask="url(#mask0_301_22165)">
<path d="M0.44043 18.2614V5.73877L8.62828 12.0001L0.44043 18.2614Z" fill="#222325"/>
</g>
<mask id="mask1_301_22165" style="mask-type:luminance" maskUnits="userSpaceOnUse" x="1" y="1" width="22" height="22">
<path d="M21.8734 10.0738H11.9999V14.1677H17.6832C17.1534 16.7686 14.9378 18.2616 11.9999 18.2616C8.53206 18.2616 5.73855 15.4681 5.73855 12.0003C5.73855 8.53255 8.53206 5.73904 11.9999 5.73904C13.4929 5.73904 14.8415 6.26885 15.9011 7.13579L18.9836 4.05331C17.1052 2.41574 14.697 1.4043 11.9999 1.4043C6.12387 1.4043 1.40381 6.12435 1.40381 12.0003C1.40381 17.8763 6.12387 22.5964 11.9999 22.5964C17.2979 22.5964 22.1143 18.7433 22.1143 12.0003C22.1143 11.3742 22.0179 10.6999 21.8734 10.0738Z" fill="white"/>
</mask>
<g mask="url(#mask1_301_22165)">
<path d="M0.44043 5.73894L8.62828 12.0002L11.9998 9.06225L23.5591 7.18386V0.440918H0.44043V5.73894Z" fill="#222325"/>
</g>
<mask id="mask2_301_22165" style="mask-type:luminance" maskUnits="userSpaceOnUse" x="1" y="1" width="22" height="22">
<path d="M21.8734 10.0738H11.9999V14.1677H17.6832C17.1534 16.7686 14.9378 18.2616 11.9999 18.2616C8.53206 18.2616 5.73855 15.4681 5.73855 12.0003C5.73855 8.53255 8.53206 5.73904 11.9999 5.73904C13.4929 5.73904 14.8415 6.26885 15.9011 7.13579L18.9836 4.05331C17.1052 2.41574 14.697 1.4043 11.9999 1.4043C6.12387 1.4043 1.40381 6.12435 1.40381 12.0003C1.40381 17.8763 6.12387 22.5964 11.9999 22.5964C17.2979 22.5964 22.1143 18.7433 22.1143 12.0003C22.1143 11.3742 22.0179 10.6999 21.8734 10.0738Z" fill="white"/>
</mask>
<g mask="url(#mask2_301_22165)">
<path d="M0.44043 18.2615L14.8896 7.18386L18.6945 7.66549L23.5591 0.440918V23.5596H0.44043V18.2615Z" fill="#222325"/>
</g>
<mask id="mask3_301_22165" style="mask-type:luminance" maskUnits="userSpaceOnUse" x="1" y="1" width="22" height="22">
<path d="M21.8734 10.0738H11.9999V14.1677H17.6832C17.1534 16.7686 14.9378 18.2616 11.9999 18.2616C8.53206 18.2616 5.73855 15.4681 5.73855 12.0003C5.73855 8.53255 8.53206 5.73904 11.9999 5.73904C13.4929 5.73904 14.8415 6.26885 15.9011 7.13579L18.9836 4.05331C17.1052 2.41574 14.697 1.4043 11.9999 1.4043C6.12387 1.4043 1.40381 6.12435 1.40381 12.0003C1.40381 17.8763 6.12387 22.5964 11.9999 22.5964C17.2979 22.5964 22.1143 18.7433 22.1143 12.0003C22.1143 11.3742 22.0179 10.6999 21.8734 10.0738Z" fill="white"/>
</mask>
<g mask="url(#mask3_301_22165)">
<path d="M23.5589 23.5594L8.62809 12.0001L6.70154 10.5552L23.5589 5.73877V23.5594Z" fill="#222325"/>
</g>
</svg>
