<svg width="31" height="19" viewBox="0 0 31 19" fill="none" xmlns="http://www.w3.org/2000/svg">
<path d="M30.213 1.00963C30.0609 0.643282 29.7697 0.352159 29.4033 0.20002C29.223 0.123196 29.0294 0.082447 28.8334 0.0800781H21.3356C20.9379 0.0800781 20.5565 0.238037 20.2753 0.519206C19.994 0.800375 19.8361 1.18172 19.8361 1.57935C19.8361 1.97699 19.994 2.35833 20.2753 2.6395C20.5565 2.92067 20.9379 3.07863 21.3356 3.07863H25.2195L16.8369 11.4596L11.9034 6.51197C11.7639 6.37145 11.5981 6.25991 11.4154 6.18379C11.2326 6.10768 11.0366 6.06849 10.8387 6.06849C10.6407 6.06849 10.4447 6.10768 10.262 6.18379C10.0792 6.25991 9.91337 6.37145 9.77397 6.51197L0.776577 15.5076C0.636025 15.647 0.524466 15.8128 0.448335 15.9955C0.372204 16.1782 0.333008 16.3742 0.333008 16.5721C0.333008 16.77 0.372204 16.966 0.448335 17.1487C0.524466 17.3314 0.636025 17.4972 0.776577 17.6366C0.915981 17.7771 1.08183 17.8887 1.26457 17.9648C1.44731 18.0409 1.64331 18.0801 1.84127 18.0801C2.03923 18.0801 2.23523 18.0409 2.41797 17.9648C2.6007 17.8887 2.76656 17.7771 2.90596 17.6366L10.8387 9.69043L15.7722 14.638C15.9116 14.7786 16.0775 14.8901 16.2602 14.9662C16.443 15.0423 16.639 15.0815 16.8369 15.0815C17.0349 15.0815 17.2309 15.0423 17.4136 14.9662C17.5964 14.8901 17.7622 14.7786 17.9016 14.638L27.3339 5.19261V9.07573C27.3339 9.47336 27.4919 9.85471 27.7731 10.1359C28.0543 10.417 28.4357 10.575 28.8334 10.575C29.2312 10.575 29.6126 10.417 29.8938 10.1359C30.175 9.85471 30.333 9.47336 30.333 9.07573V1.57935C30.3306 1.38343 30.2899 1.18988 30.213 1.00963Z" fill="#429D1B"/>
</svg>
