<svg width="18" height="14" viewBox="0 0 18 14" fill="black" xmlns="http://www.w3.org/2000/svg">
<path d="M17 12L17.1025 12.0049C17.6067 12.0562 18 12.4823 18 13C18 13.5177 17.6067 13.9438 17.1025 13.9951L17 14H4.55566C4.00338 14 3.55566 13.5523 3.55566 13C3.55566 12.4477 4.00338 12 4.55566 12H17ZM17 8L17.1025 8.00488C17.6067 8.05621 18 8.48232 18 9C18 9.51768 17.6067 9.94379 17.1025 9.99512L17 10H1C0.447715 10 0 9.55228 0 9C0 8.44772 0.447715 8 1 8H17ZM17 4L17.1025 4.00488C17.6067 4.05621 18 4.48232 18 5C18 5.51768 17.6067 5.94379 17.1025 5.99512L17 6H4.55566C4.00338 6 3.55566 5.55228 3.55566 5C3.55566 4.44772 4.00338 4 4.55566 4H17ZM17 0L17.1025 0.00488281C17.6067 0.0562144 18 0.482323 18 1C18 1.51768 17.6067 1.94379 17.1025 1.99512L17 2H1C0.447715 2 0 1.55228 0 1C0 0.447715 0.447715 0 1 0H17Z"/>
</svg>
