<svg width="14" height="14" viewBox="0 0 14 14" fill="none" xmlns="http://www.w3.org/2000/svg">
<path d="M6.22222 11.6667H7.77778V10.1111H6.22222V11.6667ZM7 2.33333C6.17488 2.33333 5.38356 2.66111 4.80011 3.24456C4.21667 3.828 3.88889 4.61933 3.88889 5.44444H5.44444C5.44444 5.03189 5.60833 4.63622 5.90006 4.3445C6.19178 4.05278 6.58744 3.88889 7 3.88889C7.41256 3.88889 7.80822 4.05278 8.09994 4.3445C8.39167 4.63622 8.55556 5.03189 8.55556 5.44444C8.55556 7 6.22222 6.80556 6.22222 9.33333H7.77778C7.77778 7.58333 10.1111 7.38889 10.1111 5.44444C10.1111 4.61933 9.78333 3.828 9.19989 3.24456C8.61644 2.66111 7.82512 2.33333 7 2.33333ZM1.55556 0H12.4444C12.857 0 13.2527 0.163888 13.5444 0.455612C13.8361 0.747335 14 1.143 14 1.55556V12.4444C14 12.857 13.8361 13.2527 13.5444 13.5444C13.2527 13.8361 12.857 14 12.4444 14H1.55556C1.143 14 0.747335 13.8361 0.455612 13.5444C0.163888 13.2527 0 12.857 0 12.4444V1.55556C0 1.143 0.163888 0.747335 0.455612 0.455612C0.747335 0.163888 1.143 0 1.55556 0Z" fill="#ADB8CC"/>
</svg>
