<svg width="15" height="17" viewBox="0 0 15 17" fill="none" xmlns="http://www.w3.org/2000/svg">
<path d="M13.1944 7.41325C13.1944 6.83687 12.9788 6.29671 12.6131 5.90215L12.447 5.74186L8.9906 2.76705C8.3101 2.1814 7.363 2.14475 6.64916 2.65717L6.5094 2.76705L3.05295 5.74186C2.58729 6.14263 2.3056 6.75438 2.30556 7.41325V13.0615L2.3167 13.2873C2.42288 14.3965 3.30305 15.2016 4.29355 15.2016H11.2065C12.263 15.2016 13.1944 14.2856 13.1944 13.0615V7.41325ZM14.75 13.0615C14.75 15.0564 13.2045 16.75 11.2065 16.75H4.29355C2.35803 16.75 0.846734 15.1608 0.754051 13.248L0.75 13.0615V7.41325C0.750045 6.3222 1.2147 5.27662 2.03516 4.57049L5.49161 1.59567L5.74479 1.39708C7.03729 0.472512 8.78032 0.538755 10.0084 1.59567L13.4648 4.57049L13.6147 4.70658C14.3418 5.40727 14.75 6.3904 14.75 7.41325V13.0615Z" fill="#ADB8CC"/>
<path d="M8.78704 12.1048C9.21659 12.1048 9.56481 12.4514 9.56481 12.879C9.56481 13.3066 9.21659 13.6532 8.78704 13.6532H6.71296C6.28341 13.6532 5.93518 13.3066 5.93518 12.879C5.93518 12.4514 6.28341 12.1048 6.71296 12.1048H8.78704Z" fill="#ADB8CC"/>
</svg>
