<svg width="24" height="25" viewBox="0 0 24 25" fill="none" xmlns="http://www.w3.org/2000/svg">
<path fill-rule="evenodd" clip-rule="evenodd" d="M8.72892 9.53264C9.59647 8.66509 10.7731 8.17771 12 8.17771C13.2269 8.17771 14.4035 8.66509 15.2711 9.53264C16.1386 10.4002 16.626 11.5768 16.626 12.8037C16.626 14.0306 16.1386 15.2072 15.2711 16.0748C14.4035 16.9423 13.2269 17.4297 12 17.4297C10.7731 17.4297 9.59647 16.9423 8.72892 16.0748C7.86138 15.2072 7.374 14.0306 7.374 12.8037C7.374 11.5768 7.86138 10.4002 8.72892 9.53264ZM10.8508 15.5781C11.2151 15.729 11.6056 15.8067 12 15.8067C12.7964 15.8067 13.5603 15.4903 14.1234 14.9272C14.6866 14.364 15.003 13.6002 15.003 12.8037C15.003 12.0073 14.6866 11.2434 14.1234 10.6803C13.5603 10.1171 12.7964 9.80071 12 9.80071C11.6056 9.80071 11.2151 9.87839 10.8508 10.0293C10.4865 10.1802 10.1554 10.4014 9.87656 10.6803C9.5977 10.9591 9.3765 11.2902 9.22559 11.6545C9.07467 12.0189 8.997 12.4094 8.997 12.8037C8.997 13.1981 9.07467 13.5886 9.22559 13.9529C9.3765 14.3173 9.5977 14.6483 9.87656 14.9272C10.1554 15.206 10.4865 15.4272 10.8508 15.5781Z" fill="#222325"/>
<path d="M17.6515 8.86693C17.8566 8.66186 17.9718 8.38373 17.9718 8.09371C17.9718 7.8037 17.8566 7.52556 17.6515 7.32049C17.4464 7.11542 17.1683 7.00021 16.8783 7.00021C16.5883 7.00021 16.3101 7.11542 16.1051 7.32049C15.9 7.52556 15.7848 7.8037 15.7848 8.09371C15.7848 8.38373 15.9 8.66186 16.1051 8.86693C16.3101 9.07201 16.5883 9.18721 16.8783 9.18721C17.1683 9.18721 17.4464 9.07201 17.6515 8.86693Z" fill="#222325"/>
<path fill-rule="evenodd" clip-rule="evenodd" d="M8.2896 3.85771C9.2496 3.81391 9.5556 3.80371 12 3.80371C14.445 3.80371 14.7504 3.81451 15.7098 3.85771C16.668 3.90151 17.3232 4.05451 17.8956 4.27591C18.4959 4.50203 19.0397 4.85624 19.4892 5.31391C19.947 5.7635 20.3012 6.30755 20.5272 6.90811C20.7498 7.48051 20.9022 8.13511 20.946 9.09331C20.9898 10.0533 21 10.3593 21 12.8037C21 15.2481 20.9898 15.5541 20.946 16.5141C20.9022 17.4723 20.7498 18.1269 20.5278 18.6993C20.3017 19.2996 19.9475 19.8434 19.4898 20.2929C19.0398 20.7513 18.4956 21.1053 17.8956 21.3309C17.3232 21.5535 16.6686 21.7059 15.7104 21.7497C14.7504 21.7935 14.4444 21.8037 12 21.8037C9.5556 21.8037 9.2496 21.7935 8.2896 21.7497C7.3314 21.7059 6.6768 21.5535 6.1044 21.3315C5.50411 21.1054 4.96029 20.7512 4.5108 20.2935C4.0524 19.8435 3.6984 19.2993 3.4728 18.6993C3.2502 18.1269 3.0978 17.4723 3.054 16.5141C3.0102 15.5541 3 15.2487 3 12.8037C3 10.3587 3.0108 10.0533 3.054 9.09391C3.0978 8.13571 3.2508 7.48051 3.4722 6.90811C3.69831 6.30781 4.05253 5.76399 4.5102 5.31451C4.9602 4.85611 5.5044 4.50211 6.1044 4.27651C6.6768 4.05391 7.3314 3.90151 8.2896 3.85771ZM15.6372 5.47771C14.688 5.43451 14.403 5.42551 12 5.42551C9.597 5.42551 9.312 5.43451 8.3628 5.47771C7.4856 5.51791 7.0092 5.66431 6.6918 5.78791C6.30085 5.9319 5.94716 6.16174 5.6568 6.46051C5.3424 6.77551 5.1468 7.07551 4.9842 7.49551C4.86 7.81291 4.7142 8.28931 4.674 9.16651C4.6308 10.1157 4.6218 10.4007 4.6218 12.8037C4.6218 15.2067 4.6308 15.4917 4.674 16.4409C4.7142 17.3181 4.8606 17.7945 4.9842 18.1119C5.12828 18.5028 5.35811 18.8565 5.6568 19.1469C5.9472 19.4456 6.30087 19.6755 6.6918 19.8195C7.0092 19.9437 7.4856 20.0895 8.3628 20.1297C9.312 20.1729 9.5964 20.1819 12 20.1819C14.4036 20.1819 14.688 20.1729 15.6372 20.1297C16.5144 20.0895 16.9908 19.9431 17.3082 19.8195C17.6992 19.6755 18.0528 19.4457 18.3432 19.1469C18.6419 18.8565 18.8718 18.5028 19.0158 18.1119C19.14 17.7945 19.2858 17.3181 19.326 16.4409C19.3692 15.4917 19.3782 15.2067 19.3782 12.8037C19.3782 10.4007 19.3692 10.1157 19.326 9.16651C19.2858 8.28931 19.1394 7.81291 19.0158 7.49551C18.8532 7.07551 18.6582 6.77551 18.3432 6.46051C18.0282 6.14611 17.7282 5.95051 17.3082 5.78791C16.9908 5.66371 16.5144 5.51791 15.6372 5.47771Z" fill="#222325"/>
</svg>
