<svg width="28" height="28" viewBox="0 0 28 28" fill="none" xmlns="http://www.w3.org/2000/svg">
<path d="M27.0477 1.89678C26.9922 1.68685 26.8817 1.49535 26.7275 1.34184C26.5734 1.18833 26.381 1.0783 26.1702 1.023C23.6452 0.369936 20.9862 0.440274 18.4995 1.22592C16.0129 2.01156 13.7996 3.48055 12.1145 5.46376L10.7422 7.08637L7.53589 6.31605C6.7564 6.04545 5.90491 6.06484 5.13867 6.37065C4.37242 6.67646 3.74318 7.24802 3.36715 7.97978L0.658912 12.7599C0.564019 12.9273 0.510015 13.1146 0.501265 13.3067C0.492515 13.4987 0.529264 13.6901 0.608542 13.8654C0.68782 14.0407 0.807404 14.195 0.957629 14.3158C1.10785 14.4365 1.2845 14.5204 1.47331 14.5606L5.25558 15.368C4.93519 16.3392 4.70641 17.338 4.57222 18.3515C4.54789 18.5376 4.56683 18.7269 4.62758 18.9047C4.68833 19.0824 4.78927 19.2439 4.92261 19.3766L8.73855 23.1764C8.8528 23.2903 8.98846 23.3806 9.13779 23.4422C9.28711 23.5038 9.44717 23.5355 9.6088 23.5355C9.64427 23.5355 9.67973 23.5337 9.71579 23.5308C10.7563 23.4376 11.7842 23.2363 12.7827 22.9302L13.575 26.6111C13.6155 26.7991 13.6998 26.9749 13.8211 27.1245C13.9424 27.274 14.0973 27.393 14.2733 27.472C14.4494 27.5509 14.6415 27.5875 14.8344 27.5788C15.0272 27.5702 15.2153 27.5165 15.3835 27.4221L20.1905 24.7223C20.8671 24.313 21.3956 23.7002 21.6998 22.9724C22.004 22.2446 22.0682 21.4394 21.883 20.673L21.0599 17.2913L22.5826 15.8971C24.5817 14.2239 26.0626 12.0198 26.8531 9.54138C27.6435 7.06293 27.711 4.41193 27.0477 1.89678ZM3.625 12.5127L5.54048 9.13007C5.65945 8.90042 5.86215 8.72481 6.107 8.63923C6.35186 8.55366 6.62032 8.5646 6.85733 8.66983L8.9713 9.17997L8.17121 10.1259C7.41267 11.0312 6.75661 12.0169 6.2149 13.0653L3.625 12.5127ZM18.9747 22.5905L15.6318 24.4679L15.1031 22.0109C16.1747 21.4787 17.1732 20.8114 18.0738 20.0254L18.989 19.1874L19.4856 21.2277C19.55 21.4797 19.5356 21.7452 19.4443 21.9887C19.353 22.2323 19.1891 22.4423 18.9747 22.5905ZM20.9617 14.0532L16.4263 18.2037C14.6311 19.7496 12.4168 20.7323 10.062 21.0279L7.10255 18.081C7.50003 15.7301 8.5202 13.5274 10.0578 11.7L12.1237 9.25762C12.1581 9.22177 12.1902 9.18379 12.2199 9.14392L13.9862 7.05573C15.2921 5.51981 16.984 4.35651 18.8891 3.68463C20.7942 3.01275 22.8443 2.85636 24.8299 3.23142C25.2157 5.21486 25.0603 7.26501 24.38 9.16834C23.6996 11.0717 22.5192 12.7585 20.9617 14.0532ZM19.8256 6.49833C19.4604 6.49833 19.1034 6.60616 18.7998 6.80818C18.4962 7.0102 18.2595 7.29734 18.1198 7.63329C17.98 7.96924 17.9434 8.33891 18.0147 8.69555C18.0859 9.05219 18.2618 9.37979 18.52 9.63692C18.7782 9.89404 19.1072 10.0691 19.4654 10.1401C19.8235 10.211 20.1948 10.1746 20.5321 10.0355C20.8695 9.89631 21.1579 9.66066 21.3608 9.35831C21.5636 9.05596 21.6719 8.7005 21.6719 8.33687C21.672 8.09542 21.6242 7.85633 21.5314 7.63326C21.4386 7.41018 21.3026 7.2075 21.1312 7.03677C20.9597 6.86604 20.7562 6.73061 20.5321 6.63822C20.3081 6.54583 20.068 6.49829 19.8255 6.49831L19.8256 6.49833Z" fill="#429D1B"/>
</svg>
