<svg width="24" height="25" viewBox="0 0 24 25" fill="none" xmlns="http://www.w3.org/2000/svg">
<path d="M21 5.12724V20.4802C21 20.8312 20.8606 21.1679 20.6123 21.4161C20.3641 21.6643 20.0275 21.8037 19.6765 21.8037H4.32353C3.97251 21.8037 3.63586 21.6643 3.38765 21.4161C3.13944 21.1679 3 20.8312 3 20.4802V5.12724C3 4.77622 3.13944 4.43957 3.38765 4.19136C3.63586 3.94315 3.97251 3.80371 4.32353 3.80371H19.6765C20.0275 3.80371 20.3641 3.94315 20.6123 4.19136C20.8606 4.43957 21 4.77622 21 5.12724ZM8.29412 10.6861H5.64706V19.1567H8.29412V10.6861ZM8.53235 7.7743C8.53375 7.57407 8.49569 7.37553 8.42035 7.19001C8.34502 7.00449 8.23387 6.83562 8.09328 6.69306C7.95268 6.55049 7.78537 6.43702 7.60091 6.35911C7.41646 6.2812 7.21846 6.24039 7.01824 6.23901H6.97059C6.5634 6.23901 6.17289 6.40076 5.88497 6.68868C5.59705 6.97661 5.43529 7.36711 5.43529 7.7743C5.43529 8.18148 5.59705 8.57199 5.88497 8.85992C6.17289 9.14784 6.5634 9.30959 6.97059 9.30959C7.17083 9.31452 7.37008 9.27994 7.55696 9.20784C7.74383 9.13573 7.91467 9.02751 8.0597 8.88936C8.20474 8.7512 8.32113 8.58583 8.40223 8.40268C8.48333 8.21953 8.52755 8.02219 8.53235 7.82195V7.7743ZM18.3529 14.0108C18.3529 11.4643 16.7329 10.4743 15.1235 10.4743C14.5966 10.4479 14.0719 10.5602 13.6019 10.7998C13.1318 11.0395 12.7328 11.3982 12.4447 11.8402H12.3706V10.6861H9.88235V19.1567H12.5294V14.6514C12.4911 14.1899 12.6365 13.7321 12.9339 13.3772C13.2313 13.0223 13.6567 12.7991 14.1176 12.7561H14.2182C15.06 12.7561 15.6847 13.2855 15.6847 14.6196V19.1567H18.3318L18.3529 14.0108Z" fill="#222325"/>
</svg>
