<svg width="14" height="14" viewBox="0 0 14 14" fill="black" xmlns="http://www.w3.org/2000/svg">
<path d="M1.4 7L-3.0598e-07 7C-3.46162e-07 7.91925 0.18106 8.8295 0.532843 9.67878C0.884626 10.5281 1.40024 11.2997 2.05025 11.9497C3.36301 13.2625 5.14348 14 7 14L7 12.6C5.51479 12.6 4.09041 12.01 3.0402 10.9598C1.99 9.90959 1.4 8.48521 1.4 7Z"/>
<path d="M7 1.4L7 -3.0598e-07C6.08075 -2.65798e-07 5.17049 0.18106 4.32121 0.532842C3.47194 0.884625 2.70026 1.40024 2.05025 2.05025C0.737496 3.36301 -1.43678e-07 5.14348 -3.0598e-07 7L1.4 7C1.4 5.51479 1.99 4.09041 3.0402 3.0402C4.0904 1.99 5.51479 1.4 7 1.4Z"/>
<path d="M12.6 7L14 7C14 7.91925 13.8189 8.8295 13.4672 9.67878C13.1154 10.5281 12.5998 11.2997 11.9497 11.9497C10.637 13.2625 8.85651 14 7 14L7 12.6C8.48521 12.6 9.90959 12.01 10.9598 10.9598C12.01 9.90959 12.6 8.48521 12.6 7Z"/>
</svg>
