<svg width="16" height="18" viewBox="0 0 16 18" fill="black" xmlns="http://www.w3.org/2000/svg">
<path d="M7.11111 8.90954V13.4998C7.11111 13.7385 7.20476 13.9674 7.37146 14.1362C7.53816 14.305 7.76425 14.3998 8 14.3998C8.23575 14.3998 8.46184 14.305 8.62854 14.1362C8.79524 13.9674 8.88889 13.7385 8.88889 13.4998V8.90954C9.96804 8.68649 10.927 8.06566 11.5797 7.16742C12.2325 6.26917 12.5326 5.1575 12.4219 4.04792C12.3112 2.93834 11.7976 1.9099 10.9806 1.162C10.1636 0.414093 9.1014 0 8 0C6.8986 0 5.83643 0.414093 5.01942 1.162C4.20241 1.9099 3.68876 2.93834 3.57806 4.04792C3.46736 5.1575 3.76749 6.26917 4.42027 7.16742C5.07305 8.06566 6.03196 8.68649 7.11111 8.90954ZM8 1.79917C8.52742 1.79917 9.04299 1.95753 9.48152 2.25423C9.92005 2.55092 10.2618 2.97263 10.4637 3.46601C10.6655 3.9594 10.7183 4.50231 10.6154 5.02608C10.5125 5.54986 10.2586 6.03098 9.88562 6.4086C9.51268 6.78622 9.03752 7.04338 8.52024 7.14757C8.00296 7.25175 7.46678 7.19828 6.97951 6.99391C6.49224 6.78955 6.07577 6.44346 5.78275 5.99943C5.48973 5.55539 5.33333 5.03335 5.33333 4.49931C5.33333 3.78319 5.61428 3.0964 6.11438 2.59003C6.61448 2.08365 7.29276 1.79917 8 1.79917ZM11.7422 11.1777C11.6255 11.1528 11.5051 11.1515 11.3878 11.1738C11.2706 11.1961 11.1589 11.2416 11.059 11.3076C10.9591 11.3736 10.8731 11.4589 10.8058 11.5586C10.7384 11.6583 10.6912 11.7705 10.6667 11.8887C10.6422 12.0069 10.6409 12.1288 10.6629 12.2475C10.6849 12.3662 10.7298 12.4793 10.795 12.5805C10.8602 12.6816 10.9445 12.7687 11.0429 12.8369C11.1414 12.9051 11.2522 12.9529 11.3689 12.9777C13.3867 13.3828 14.2222 14.1118 14.2222 14.3998C14.2222 14.9218 12.0444 16.1999 8 16.1999C3.95556 16.1999 1.77778 14.9218 1.77778 14.3998C1.77778 14.1118 2.61333 13.3828 4.63111 12.9417C4.74784 12.9169 4.8586 12.8691 4.95707 12.8009C5.05553 12.7327 5.13977 12.6456 5.20498 12.5445C5.27018 12.4433 5.31508 12.3302 5.3371 12.2115C5.35913 12.0928 5.35785 11.9709 5.33333 11.8527C5.30882 11.7345 5.26156 11.6223 5.19424 11.5226C5.12692 11.4229 5.04087 11.3376 4.94099 11.2716C4.84112 11.2056 4.72938 11.1601 4.61215 11.1378C4.49492 11.1155 4.37451 11.1168 4.25778 11.1417C1.55556 11.7717 0 12.9507 0 14.3998C0 16.7669 4.02667 18 8 18C11.9733 18 16 16.7669 16 14.3998C16 12.9507 14.4444 11.7717 11.7422 11.1777Z"/>
</svg>
