<svg width="19" height="19" viewBox="0 0 19 19" fill="none" xmlns="http://www.w3.org/2000/svg">
<path d="M5.66773 8.34964C5.48998 8.34964 5.31622 8.40242 5.16842 8.50131C5.02063 8.6002 4.90543 8.74076 4.83741 8.9052C4.76939 9.06965 4.75159 9.2506 4.78627 9.42517C4.82095 9.59975 4.90654 9.76011 5.03223 9.88597C5.15792 10.0118 5.31806 10.0975 5.4924 10.1323C5.66674 10.167 5.84744 10.1492 6.01166 10.0811C6.17589 10.0129 6.31625 9.89759 6.415 9.74959C6.51376 9.60159 6.56647 9.4276 6.56647 9.2496C6.56647 9.01092 6.47178 8.78201 6.30323 8.61323C6.13469 8.44446 5.90609 8.34964 5.66773 8.34964ZM9.26267 8.34964C9.08491 8.34964 8.91115 8.40242 8.76336 8.50131C8.61556 8.6002 8.50037 8.74076 8.43234 8.9052C8.36432 9.06965 8.34652 9.2506 8.3812 9.42517C8.41588 9.59975 8.50148 9.76011 8.62717 9.88597C8.75286 10.0118 8.91299 10.0975 9.08733 10.1323C9.26167 10.167 9.44238 10.1492 9.6066 10.0811C9.77082 10.0129 9.91118 9.89759 10.0099 9.74959C10.1087 9.60159 10.1614 9.4276 10.1614 9.2496C10.1614 9.01092 10.0667 8.78201 9.89817 8.61323C9.72962 8.44446 9.50103 8.34964 9.26267 8.34964ZM12.8576 8.34964C12.6798 8.34964 12.5061 8.40242 12.3583 8.50131C12.2105 8.6002 12.0953 8.74076 12.0273 8.9052C11.9593 9.06965 11.9415 9.2506 11.9761 9.42517C12.0108 9.59975 12.0964 9.76011 12.2221 9.88597C12.3478 10.0118 12.5079 10.0975 12.6823 10.1323C12.8566 10.167 13.0373 10.1492 13.2015 10.0811C13.3658 10.0129 13.5061 9.89759 13.6049 9.74959C13.7036 9.60159 13.7563 9.4276 13.7563 9.2496C13.7563 9.01092 13.6616 8.78201 13.4931 8.61323C13.3246 8.44446 13.096 8.34964 12.8576 8.34964ZM9.26267 0.25C8.08243 0.25 6.91376 0.482782 5.82336 0.935054C4.73297 1.38733 3.74221 2.05023 2.90766 2.88592C1.22221 4.57368 0.275332 6.86276 0.275332 9.2496C0.267475 11.3277 0.986044 13.3431 2.30647 14.9463L0.509003 16.7463C0.384297 16.8728 0.299819 17.0335 0.26623 17.2081C0.23264 17.3827 0.251444 17.5633 0.320269 17.7272C0.394916 17.8892 0.515927 18.0252 0.667941 18.1182C0.819955 18.2111 0.996117 18.2567 1.17407 18.2492H9.26267C11.6463 18.2492 13.9322 17.301 15.6177 15.6133C17.3031 13.9255 18.25 11.6364 18.25 9.2496C18.25 6.86276 17.3031 4.57368 15.6177 2.88592C13.9322 1.19817 11.6463 0.25 9.26267 0.25ZM9.26267 16.4493H3.34001L4.17583 15.6123C4.26075 15.529 4.32831 15.4296 4.37459 15.3199C4.42088 15.2102 4.44496 15.0924 4.44545 14.9733C4.44208 14.736 4.34517 14.5095 4.17583 14.3434C2.99902 13.1663 2.26618 11.617 2.10218 9.95948C1.93818 8.30199 2.35315 6.63882 3.27641 5.25335C4.19966 3.86787 5.57408 2.84581 7.16549 2.36128C8.75689 1.87676 10.4668 1.95975 12.004 2.59612C13.5412 3.23249 14.8104 4.38286 15.5955 5.85125C16.3807 7.31964 16.6331 9.0152 16.3097 10.649C15.9864 12.2829 15.1074 13.7539 13.8224 14.8116C12.5374 15.8692 10.926 16.448 9.26267 16.4493Z" fill="#ADB8CC"/>
</svg>
