<svg width="14" height="20" viewBox="0 0 14 20" fill="black" xmlns="http://www.w3.org/2000/svg">
<path d="M7 12.7273C7.92826 12.7273 8.8185 12.3442 9.47487 11.6622C10.1313 10.9803 10.5 10.0553 10.5 9.09091V3.63636C10.5 2.67194 10.1313 1.74702 9.47487 1.06507C8.8185 0.383116 7.92826 0 7 0C6.07174 0 5.1815 0.383116 4.52513 1.06507C3.86875 1.74702 3.5 2.67194 3.5 3.63636V9.09091C3.5 10.0553 3.86875 10.9803 4.52513 11.6622C5.1815 12.3442 6.07174 12.7273 7 12.7273ZM5.25 3.63636C5.25 3.15415 5.43437 2.69169 5.76256 2.35071C6.09075 2.00974 6.53587 1.81818 7 1.81818C7.46413 1.81818 7.90925 2.00974 8.23744 2.35071C8.56563 2.69169 8.75 3.15415 8.75 3.63636V9.09091C8.75 9.57312 8.56563 10.0356 8.23744 10.3766C7.90925 10.7175 7.46413 10.9091 7 10.9091C6.53587 10.9091 6.09075 10.7175 5.76256 10.3766C5.43437 10.0356 5.25 9.57312 5.25 9.09091V3.63636ZM14 9.09091C14 8.8498 13.9078 8.61857 13.7437 8.44809C13.5796 8.2776 13.3571 8.18182 13.125 8.18182C12.8929 8.18182 12.6704 8.2776 12.5063 8.44809C12.3422 8.61857 12.25 8.8498 12.25 9.09091C12.25 10.5375 11.6969 11.9249 10.7123 12.9479C9.72775 13.9708 8.39239 14.5455 7 14.5455C5.60761 14.5455 4.27226 13.9708 3.28769 12.9479C2.30312 11.9249 1.75 10.5375 1.75 9.09091C1.75 8.8498 1.65781 8.61857 1.49372 8.44809C1.32962 8.2776 1.10706 8.18182 0.875 8.18182C0.642936 8.18182 0.420376 8.2776 0.256282 8.44809C0.0921874 8.61857 0 8.8498 0 9.09091C0.00154507 10.8612 0.624507 12.5701 1.7521 13.8972C2.87969 15.2244 4.43448 16.0787 6.125 16.3V18.1818H4.375C4.14294 18.1818 3.92038 18.2776 3.75628 18.4481C3.59219 18.6186 3.5 18.8498 3.5 19.0909C3.5 19.332 3.59219 19.5632 3.75628 19.7337C3.92038 19.9042 4.14294 20 4.375 20H9.625C9.85706 20 10.0796 19.9042 10.2437 19.7337C10.4078 19.5632 10.5 19.332 10.5 19.0909C10.5 18.8498 10.4078 18.6186 10.2437 18.4481C10.0796 18.2776 9.85706 18.1818 9.625 18.1818H7.875V16.3C9.56552 16.0787 11.1203 15.2244 12.2479 13.8972C13.3755 12.5701 13.9985 10.8612 14 9.09091V9.09091Z"/>
</svg>
