<svg width="18" height="20" viewBox="0 0 18 20" fill="black" xmlns="http://www.w3.org/2000/svg">
<path d="M7.66035 2.45454C7.82045 2.25987 8.019 2.101 8.24333 1.98807C8.46765 1.87514 8.71283 1.81062 8.96324 1.79862C9.21364 1.78663 9.46377 1.82743 9.69769 1.91841C9.9316 2.0094 10.1442 2.14857 10.3218 2.32707C10.6475 2.67289 10.8256 3.13387 10.818 3.61088V6.71571C10.818 6.95719 10.9131 7.18878 11.0823 7.35954C11.2515 7.53029 11.4809 7.62622 11.7202 7.62622C11.9595 7.62622 12.189 7.53029 12.3582 7.35954C12.5274 7.18878 12.6224 6.95719 12.6224 6.71571V3.61088C12.6018 2.88006 12.3637 2.17242 11.9391 1.58003C11.5145 0.987648 10.9231 0.537942 10.2418 0.289427C9.56044 0.040913 8.82079 0.00509548 8.11903 0.186635C7.41727 0.368174 6.7859 0.758666 6.30705 1.3073C6.20204 1.39114 6.11683 1.49752 6.05761 1.61871C5.99839 1.73991 5.96665 1.8729 5.96468 2.00801C5.96271 2.14313 5.99057 2.277 6.04623 2.3999C6.10189 2.5228 6.18396 2.63166 6.28649 2.71858C6.38902 2.8055 6.50943 2.86829 6.63899 2.90241C6.76855 2.93653 6.90402 2.94111 7.03555 2.91583C7.16709 2.89055 7.2914 2.83604 7.39946 2.75626C7.50753 2.67647 7.59665 2.5734 7.66035 2.45454V2.45454ZM15.0764 11.1408H15.2568C15.4692 11.1447 15.6761 11.0728 15.8411 10.9379C16.0061 10.803 16.1187 10.6137 16.159 10.4033C16.2237 9.96335 16.2479 9.51834 16.2312 9.07392C16.2312 8.83244 16.1361 8.60085 15.9669 8.4301C15.7978 8.25935 15.5683 8.16342 15.329 8.16342C15.0897 8.16342 14.8602 8.25935 14.691 8.4301C14.5219 8.60085 14.4268 8.83244 14.4268 9.07392C14.4269 9.41028 14.3936 9.7458 14.3276 10.0755C14.3056 10.1952 14.3077 10.3182 14.3337 10.4371C14.3597 10.5561 14.4091 10.6685 14.4789 10.7678C14.5487 10.8672 14.6376 10.9514 14.7402 11.0154C14.8428 11.0795 14.9571 11.1221 15.0764 11.1408V11.1408ZM17.783 16.6584L1.54347 0.269326C1.4596 0.183986 1.35981 0.116249 1.24987 0.0700242C1.13993 0.023799 1.02201 0 0.90291 0C0.783809 0 0.665888 0.023799 0.555947 0.0700242C0.446006 0.116249 0.346222 0.183986 0.262352 0.269326C0.094317 0.439921 0 0.670691 0 0.911233C0 1.15178 0.094317 1.38255 0.262352 1.55314L5.40486 6.77945V9.07392C5.40551 9.71292 5.57273 10.3405 5.88973 10.8936C6.20673 11.4468 6.66236 11.906 7.21085 12.2252C7.75934 12.5444 8.3814 12.7124 9.01456 12.7122C9.64772 12.7121 10.2697 12.5438 10.818 12.2243L12.1352 13.5536C11.3236 14.1318 10.37 14.4734 9.37889 14.541C8.38774 14.6087 7.39726 14.3998 6.51591 13.9372C5.63457 13.4746 4.89636 12.7761 4.38212 11.9183C3.86789 11.0605 3.59747 10.0765 3.60047 9.07392C3.60047 8.83244 3.50542 8.60085 3.33622 8.4301C3.16703 8.25935 2.93755 8.16342 2.69828 8.16342C2.459 8.16342 2.22952 8.25935 2.06033 8.4301C1.89113 8.60085 1.79608 8.83244 1.79608 9.07392C1.79768 10.8469 2.44 12.5585 3.60263 13.8877C4.76527 15.217 6.36839 16.0726 8.11144 16.2942V18.179H6.30705C6.06778 18.179 5.8383 18.2749 5.66911 18.4457C5.49991 18.6164 5.40486 18.848 5.40486 19.0895C5.40486 19.331 5.49991 19.5626 5.66911 19.7333C5.8383 19.9041 6.06778 20 6.30705 20H11.7202C11.9595 20 12.189 19.9041 12.3582 19.7333C12.5274 19.5626 12.6224 19.331 12.6224 19.0895C12.6224 18.848 12.5274 18.6164 12.3582 18.4457C12.189 18.2749 11.9595 18.179 11.7202 18.179H9.91583V16.2942C11.1815 16.1353 12.3813 15.6352 13.3893 14.8465L16.4567 17.9423C16.6254 18.1137 16.8547 18.2105 17.0941 18.2114C17.3335 18.2122 17.5635 18.1171 17.7333 17.9468C17.9032 17.7766 17.9991 17.5452 18 17.3036C18.0008 17.062 17.9065 16.8299 17.7379 16.6584H17.783ZM9.01364 10.8949C8.53508 10.8949 8.07613 10.7031 7.73774 10.3616C7.39935 10.0201 7.20925 9.55689 7.20925 9.07392V8.60046L9.41962 10.8403C9.28724 10.8763 9.15075 10.8947 9.01364 10.8949Z"/>
</svg>
