<svg width="18" height="18" viewBox="0 0 18 18" fill="black" xmlns="http://www.w3.org/2000/svg">
<path d="M14.4 5.4H5.4V14.4H3.6V5.4C3.6 4.92261 3.78964 4.46477 4.12721 4.12721C4.46477 3.78964 4.92261 3.6 5.4 3.6H14.4V5.4ZM10.8 0H1.8C1.32261 0 0.864773 0.189642 0.527208 0.527208C0.189642 0.864773 0 1.32261 0 1.8V10.8H1.8V1.8H10.8V0ZM18 9V16.2C18 16.6774 17.8104 17.1352 17.4728 17.4728C17.1352 17.8104 16.6774 18 16.2 18H9C8.52261 18 8.06477 17.8104 7.72721 17.4728C7.38964 17.1352 7.2 16.6774 7.2 16.2V9C7.2 8.52261 7.38964 8.06477 7.72721 7.72721C8.06477 7.38964 8.52261 7.2 9 7.2H16.2C16.6774 7.2 17.1352 7.38964 17.4728 7.72721C17.8104 8.06477 18 8.52261 18 9ZM16.2 11.7H13.5H11.7H9V13.5H11.7H13.5H16.2V11.7Z"/>
</svg>
