<svg width="4" height="16" viewBox="0 0 4 16" fill="black" xmlns="http://www.w3.org/2000/svg">
<path d="M2 0C1.65388 0 1.31554 0.102636 1.02775 0.294928C0.739967 0.487221 0.515665 0.760533 0.383212 1.0803C0.250758 1.40007 0.216102 1.75194 0.283627 2.09141C0.351151 2.43087 0.517822 2.74269 0.762564 2.98744C1.00731 3.23218 1.31913 3.39885 1.65859 3.46637C1.99806 3.5339 2.34992 3.49924 2.6697 3.36679C2.98947 3.23434 3.26278 3.01003 3.45507 2.72225C3.64736 2.43446 3.75 2.09612 3.75 1.75C3.75 1.28587 3.56562 0.840752 3.23744 0.512563C2.90925 0.184375 2.46413 0 2 0Z"/>
<path d="M2 6.25C1.65388 6.25 1.31554 6.35264 1.02775 6.54493C0.739967 6.73722 0.515665 7.01053 0.383212 7.3303C0.250758 7.65007 0.216102 8.00194 0.283627 8.34141C0.351151 8.68087 0.517822 8.99269 0.762564 9.23744C1.00731 9.48218 1.31913 9.64885 1.65859 9.71637C1.99806 9.7839 2.34992 9.74924 2.6697 9.61679C2.98947 9.48433 3.26278 9.26003 3.45507 8.97225C3.64736 8.68446 3.75 8.34612 3.75 8C3.75 7.53587 3.56562 7.09075 3.23744 6.76256C2.90925 6.43437 2.46413 6.25 2 6.25Z"/>
<path d="M2 12.5C1.65388 12.5 1.31554 12.6026 1.02775 12.7949C0.739967 12.9872 0.515665 13.2605 0.383212 13.5803C0.250758 13.9001 0.216102 14.2519 0.283627 14.5914C0.351151 14.9309 0.517822 15.2427 0.762564 15.4874C1.00731 15.7322 1.31913 15.8988 1.65859 15.9664C1.99806 16.0339 2.34992 15.9992 2.6697 15.8668C2.98947 15.7343 3.26278 15.51 3.45507 15.2222C3.64736 14.9345 3.75 14.5961 3.75 14.25C3.75 13.7859 3.56562 13.3408 3.23744 13.0126C2.90925 12.6844 2.46413 12.5 2 12.5Z"/>
</svg>
