<svg width="19" height="15" viewBox="0 0 19 15" fill="none" xmlns="http://www.w3.org/2000/svg">
<path d="M5.25 9.58333H7.95C8.18869 9.58333 8.41761 9.485 8.5864 9.30997C8.75518 9.13493 8.85 8.89754 8.85 8.65C8.85 8.40246 8.75518 8.16507 8.5864 7.99003C8.41761 7.815 8.18869 7.71667 7.95 7.71667H5.25C5.0113 7.71667 4.78239 7.815 4.6136 7.99003C4.44482 8.16507 4.35 8.40246 4.35 8.65C4.35 8.89754 4.44482 9.13493 4.6136 9.30997C4.78239 9.485 5.0113 9.58333 5.25 9.58333ZM16.05 0.25H3.45C2.73392 0.25 2.04716 0.544999 1.54081 1.0701C1.03446 1.5952 0.75 2.30739 0.75 3.05V11.45C0.75 12.1926 1.03446 12.9048 1.54081 13.4299C2.04716 13.955 2.73392 14.25 3.45 14.25H16.05C16.7661 14.25 17.4528 13.955 17.9592 13.4299C18.4655 12.9048 18.75 12.1926 18.75 11.45V3.05C18.75 2.30739 18.4655 1.5952 17.9592 1.0701C17.4528 0.544999 16.7661 0.25 16.05 0.25ZM16.95 11.45C16.95 11.6975 16.8552 11.9349 16.6864 12.11C16.5176 12.285 16.2887 12.3833 16.05 12.3833H3.45C3.21131 12.3833 2.98239 12.285 2.8136 12.11C2.64482 11.9349 2.55 11.6975 2.55 11.45V5.85H16.95V11.45ZM16.95 3.98333H2.55V3.05C2.55 2.80246 2.64482 2.56507 2.8136 2.39003C2.98239 2.215 3.21131 2.11667 3.45 2.11667H16.05C16.2887 2.11667 16.5176 2.215 16.6864 2.39003C16.8552 2.56507 16.95 2.80246 16.95 3.05V3.98333Z" fill="#ADB8CC"/>
</svg>
