<svg width="18" height="18" viewBox="0 0 18 18" fill="black" xmlns="http://www.w3.org/2000/svg">
<path d="M17.1 10.7998H16.2V1.79997H17.1C17.3387 1.79997 17.5676 1.70516 17.7364 1.53637C17.9052 1.36759 18 1.13868 18 0.899987C18 0.661296 17.9052 0.432381 17.7364 0.2636C17.5676 0.0948198 17.3387 0 17.1 0H0.9C0.661305 0 0.432387 0.0948198 0.263604 0.2636C0.0948211 0.432381 0 0.661296 0 0.899987C0 1.13868 0.0948211 1.36759 0.263604 1.53637C0.432387 1.70516 0.661305 1.79997 0.9 1.79997H1.8V10.7998H0.9C0.661305 10.7998 0.432387 10.8947 0.263604 11.0634C0.0948211 11.2322 0 11.4611 0 11.6998C0 11.9385 0.0948211 12.1674 0.263604 12.3362C0.432387 12.505 0.661305 12.5998 0.9 12.5998H8.1V13.6348L4.005 16.3348C3.837 16.4388 3.70789 16.5951 3.63759 16.7798C3.56729 16.9644 3.55971 17.1671 3.61601 17.3565C3.67232 17.5459 3.78938 17.7115 3.94914 17.8277C4.1089 17.944 4.30247 18.0044 4.5 17.9997C4.67694 18.0018 4.85006 17.9483 4.995 17.8468L8.1 15.7948V17.0998C8.1 17.3385 8.19482 17.5674 8.3636 17.7361C8.53239 17.9049 8.7613 17.9997 9 17.9997C9.23869 17.9997 9.46761 17.9049 9.6364 17.7361C9.80518 17.5674 9.9 17.3385 9.9 17.0998V15.7948L13.005 17.8468C13.1499 17.9483 13.3231 18.0018 13.5 17.9997C13.6923 17.9983 13.879 17.9352 14.0329 17.8199C14.1867 17.7046 14.2996 17.543 14.355 17.3588C14.4103 17.1747 14.4052 16.9776 14.3404 16.7966C14.2757 16.6156 14.1546 16.46 13.995 16.3528L9.9 13.6528V12.5998H17.1C17.3387 12.5998 17.5676 12.505 17.7364 12.3362C17.9052 12.1674 18 11.9385 18 11.6998C18 11.4611 17.9052 11.2322 17.7364 11.0634C17.5676 10.8947 17.3387 10.7998 17.1 10.7998ZM14.4 10.7998H3.6V1.79997H14.4V10.7998Z"/>
</svg>
