<svg width="18" height="18" viewBox="0 0 18 18" fill="black" xmlns="http://www.w3.org/2000/svg">
<path d="M17.2421 0.169098C16.5978 0.0592165 15.9454 0.00265629 15.2917 3.87159e-06C13.0611 -0.00180676 10.8771 0.631503 9 1.82444C7.11803 0.647166 4.93438 0.0294003 2.70835 0.0445024C2.0546 0.0471548 1.4022 0.103715 0.757936 0.213597C0.546902 0.249621 0.355792 0.35907 0.219023 0.522232C0.0822534 0.685394 0.00881238 0.891548 0.0119256 1.10357V11.7832C0.0100006 11.914 0.0372056 12.0436 0.0916049 12.1627C0.146004 12.2819 0.226261 12.3877 0.326664 12.4727C0.427067 12.5577 0.54515 12.6197 0.672509 12.6544C0.799869 12.689 0.933376 12.6954 1.06353 12.6732C2.35154 12.4524 3.67115 12.489 4.94464 12.7809C6.21813 13.0729 7.41974 13.6142 8.47869 14.373L8.58655 14.4353H8.68542C8.7851 14.4765 8.89201 14.4976 9 14.4976C9.10799 14.4976 9.2149 14.4765 9.31458 14.4353H9.41345L9.52131 14.373C10.5729 13.5972 11.771 13.0384 13.0448 12.7296C14.3185 12.4208 15.6419 12.3683 16.9365 12.5753C17.0666 12.5975 17.2001 12.5911 17.3275 12.5565C17.4548 12.5218 17.5729 12.4598 17.6733 12.3748C17.7737 12.2898 17.854 12.184 17.9084 12.0648C17.9628 11.9457 17.99 11.8161 17.9881 11.6853V1.00567C17.9787 0.802894 17.8996 0.609376 17.764 0.457215C17.6283 0.305055 17.4441 0.203395 17.2421 0.169098ZM8.10119 11.9968C6.43829 11.1306 4.58732 10.6785 2.70835 10.6797C2.41174 10.6797 2.11513 10.6797 1.80954 10.6797V1.77995C2.10889 1.76286 2.40899 1.76286 2.70835 1.77995C4.62585 1.77785 6.50151 2.33501 8.10119 3.38189V11.9968ZM16.1905 10.7152C15.8849 10.7152 15.5883 10.7152 15.2917 10.7152C13.4127 10.7141 11.5617 11.1662 9.89881 12.0324V3.38189C11.4985 2.33501 13.3741 1.77785 15.2917 1.77995C15.591 1.76286 15.8911 1.76286 16.1905 1.77995V10.7152ZM17.2421 14.4086C16.5978 14.2987 15.9454 14.2422 15.2917 14.2395C13.0611 14.2377 10.8771 14.871 9 16.064C7.12285 14.871 4.93886 14.2377 2.70835 14.2395C2.0546 14.2422 1.4022 14.2987 0.757936 14.4086C0.640936 14.427 0.52876 14.4681 0.42786 14.5296C0.32696 14.591 0.239325 14.6716 0.169996 14.7668C0.100667 14.8619 0.0510106 14.9696 0.0238831 15.0838C-0.0032444 15.198 -0.00730811 15.3164 0.0119256 15.4321C0.0576018 15.6632 0.193925 15.867 0.391034 15.9988C0.588142 16.1305 0.829966 16.1796 1.06353 16.1352C2.35154 15.9144 3.67115 15.951 4.94464 16.2429C6.21813 16.5349 7.41974 17.0762 8.47869 17.835C8.63092 17.9423 8.81313 18 9 18C9.18687 18 9.36908 17.9423 9.52131 17.835C10.5803 17.0762 11.7819 16.5349 13.0554 16.2429C14.3288 15.951 15.6485 15.9144 16.9365 16.1352C17.17 16.1796 17.4119 16.1305 17.609 15.9988C17.8061 15.867 17.9424 15.6632 17.9881 15.4321C18.0073 15.3164 18.0032 15.198 17.9761 15.0838C17.949 14.9696 17.8993 14.8619 17.83 14.7668C17.7607 14.6716 17.673 14.591 17.5721 14.5296C17.4712 14.4681 17.3591 14.427 17.2421 14.4086V14.4086Z"/>
</svg>
