<svg width="28" height="28" viewBox="0 0 28 28" fill="none" xmlns="http://www.w3.org/2000/svg">
<path d="M10.292 12.0582H13.667C14.025 12.0582 14.3684 11.916 14.6216 11.6628C14.8748 11.4097 15.017 11.0664 15.017 10.7084C15.017 10.3505 14.8748 10.0072 14.6216 9.75403C14.3684 9.5009 14.025 9.3587 13.667 9.3587H12.317V8.68383C12.317 8.32586 12.1748 7.98255 11.9216 7.72943C11.6684 7.47631 11.325 7.3341 10.967 7.3341C10.609 7.3341 10.2656 7.47631 10.0124 7.72943C9.75923 7.98255 9.617 8.32586 9.617 8.68383V9.42619C8.79677 9.59271 8.06769 10.058 7.57129 10.7317C7.07488 11.4055 6.84658 12.2396 6.9307 13.0721C7.01481 13.9047 7.40534 14.6763 8.02647 15.2372C8.64761 15.7981 9.45503 16.1082 10.292 16.1074H11.642C11.821 16.1074 11.9927 16.1785 12.1193 16.305C12.2459 16.4316 12.317 16.6032 12.317 16.7822C12.317 16.9612 12.2459 17.1329 12.1193 17.2594C11.9927 17.386 11.821 17.4571 11.642 17.4571H8.267C7.90896 17.4571 7.56558 17.5993 7.31241 17.8524C7.05923 18.1055 6.917 18.4489 6.917 18.8068C6.917 19.1648 7.05923 19.5081 7.31241 19.7612C7.56558 20.0144 7.90896 20.1566 8.267 20.1566H9.617V20.8314C9.617 21.1894 9.75923 21.5327 10.0124 21.7858C10.2656 22.0389 10.609 22.1812 10.967 22.1812C11.325 22.1812 11.6684 22.0389 11.9216 21.7858C12.1748 21.5327 12.317 21.1894 12.317 20.8314V20.0891C13.1372 19.9226 13.8663 19.4573 14.3627 18.7835C14.8591 18.1098 15.0874 17.2757 15.0033 16.4431C14.9192 15.6105 14.5287 14.8389 13.9075 14.278C13.2864 13.7172 12.479 13.4071 11.642 13.4079H10.292C10.113 13.4079 9.94129 13.3368 9.8147 13.2102C9.68811 13.0837 9.617 12.912 9.617 12.733C9.617 12.554 9.68811 12.3824 9.8147 12.2558C9.94129 12.1293 10.113 12.0582 10.292 12.0582ZM25.817 14.0828H21.767V1.93517C21.7679 1.69734 21.706 1.46348 21.5875 1.25727C21.4689 1.05106 21.298 0.879825 21.092 0.760908C20.8868 0.642444 20.654 0.580078 20.417 0.580078C20.18 0.580078 19.9472 0.642444 19.742 0.760908L15.692 3.08245L11.642 0.760908C11.4368 0.642444 11.204 0.580078 10.967 0.580078C10.73 0.580078 10.4972 0.642444 10.292 0.760908L6.242 3.08245L2.192 0.760908C1.98678 0.642444 1.75398 0.580078 1.517 0.580078C1.28003 0.580078 1.04723 0.642444 0.842003 0.760908C0.635987 0.879825 0.465058 1.05106 0.346523 1.25727C0.227989 1.46348 0.166058 1.69734 0.167003 1.93517V23.5309C0.167003 24.6048 0.593698 25.6347 1.35322 26.3941C2.11274 27.1535 3.14287 27.5801 4.217 27.5801H23.117C24.1911 27.5801 25.2213 27.1535 25.9808 26.3941C26.7403 25.6347 27.167 24.6048 27.167 23.5309V15.4325C27.167 15.0745 27.0248 14.7312 26.7716 14.4781C26.5184 14.225 26.175 14.0828 25.817 14.0828ZM4.217 24.8806C3.85896 24.8806 3.51558 24.7384 3.26241 24.4853C3.00923 24.2322 2.867 23.8889 2.867 23.5309V4.27021L5.567 5.8089C5.77536 5.91771 6.00694 5.97453 6.242 5.97453C6.47707 5.97453 6.70864 5.91771 6.917 5.8089L10.967 3.48737L15.017 5.8089C15.2254 5.91771 15.4569 5.97453 15.692 5.97453C15.9271 5.97453 16.1586 5.91771 16.367 5.8089L19.067 4.27021V23.5309C19.0706 23.9913 19.1528 24.4478 19.31 24.8806H4.217ZM24.467 23.5309C24.467 23.8889 24.3248 24.2322 24.0716 24.4853C23.8184 24.7384 23.475 24.8806 23.117 24.8806C22.759 24.8806 22.4156 24.7384 22.1624 24.4853C21.9092 24.2322 21.767 23.8889 21.767 23.5309V16.7822H24.467V23.5309Z" fill="#429D1B"/>
</svg>
