<svg width="18" height="18" viewBox="0 0 18 18" fill="black" xmlns="http://www.w3.org/2000/svg">
<path d="M16.119 12.159H12.042C11.8033 12.159 11.5744 12.2538 11.4056 12.4226C11.2368 12.5914 11.142 12.8203 11.142 13.059C11.142 13.2977 11.2368 13.5266 11.4056 13.6954C11.5744 13.8642 11.8033 13.959 12.042 13.959H14.202C13.2092 14.9965 11.929 15.7134 10.5256 16.0177C9.12233 16.3219 7.66009 16.1996 6.3268 15.6665C4.99351 15.1334 3.85008 14.2138 3.04343 13.0259C2.23678 11.8379 1.80376 10.4359 1.8 9C1.8 8.7613 1.70518 8.53239 1.5364 8.3636C1.36761 8.19482 1.13869 8.1 0.9 8.1C0.661305 8.1 0.432387 8.19482 0.263604 8.3636C0.0948211 8.53239 0 8.7613 0 9C0.00475799 10.7575 0.523999 12.4752 1.49364 13.941C2.46329 15.4069 3.8409 16.5567 5.45647 17.2487C7.07204 17.9407 8.85486 18.1445 10.5849 17.835C12.315 17.5255 13.9166 16.7162 15.192 15.507V17.1C15.192 17.3387 15.2868 17.5676 15.4556 17.7364C15.6244 17.9052 15.8533 18 16.092 18C16.3307 18 16.5596 17.9052 16.7284 17.7364C16.8972 17.5676 16.992 17.3387 16.992 17.1V13.05C16.9898 12.8175 16.8976 12.5948 16.7349 12.4287C16.5722 12.2626 16.3514 12.166 16.119 12.159ZM9 0C6.69275 0.00658097 4.47614 0.899022 2.808 2.493V0.9C2.808 0.661305 2.71318 0.432387 2.5444 0.263604C2.37561 0.0948211 2.14669 0 1.908 0C1.66931 0 1.44039 0.0948211 1.2716 0.263604C1.10282 0.432387 1.008 0.661305 1.008 0.9V4.95C1.008 5.18869 1.10282 5.41761 1.2716 5.5864C1.44039 5.75518 1.66931 5.85 1.908 5.85H5.958C6.19669 5.85 6.42561 5.75518 6.5944 5.5864C6.76318 5.41761 6.858 5.18869 6.858 4.95C6.858 4.71131 6.76318 4.48239 6.5944 4.3136C6.42561 4.14482 6.19669 4.05 5.958 4.05H3.798C4.79022 3.01308 6.06968 2.29635 7.47216 1.9918C8.87464 1.68724 10.3361 1.80877 11.669 2.34078C13.002 2.87278 14.1455 3.79099 14.9528 4.97754C15.7601 6.1641 16.1945 7.56485 16.2 9C16.2 9.23869 16.2948 9.46761 16.4636 9.6364C16.6324 9.80518 16.8613 9.9 17.1 9.9C17.3387 9.9 17.5676 9.80518 17.7364 9.6364C17.9052 9.46761 18 9.23869 18 9C18 7.8181 17.7672 6.64778 17.3149 5.55585C16.8626 4.46392 16.1997 3.47177 15.364 2.63604C14.5282 1.80031 13.5361 1.13738 12.4442 0.685084C11.3522 0.232792 10.1819 0 9 0Z"/>
</svg>
