<svg width="16" height="16" viewBox="0 0 16 16" fill="black" xmlns="http://www.w3.org/2000/svg">
<path d="M9.77782 11.5555C9.77782 12.2628 9.49667 12.9409 8.99657 13.441C8.55905 13.8785 7.98538 14.1485 7.37503 14.2092L7.11114 14.2222H0.888893C0.397971 14.2222 0 14.6202 0 15.1111C0 15.602 0.397971 16 0.888893 16H7.11114L7.33163 15.9948C8.4301 15.9403 9.47213 15.4793 10.2535 14.6979C11.087 13.8644 11.5556 12.7343 11.5556 11.5555V3.03467L14.4827 5.96176C14.8298 6.3089 15.3925 6.3089 15.7396 5.96176C16.0868 5.61463 16.0868 5.05195 15.7396 4.70481L11.2952 0.26035C10.9481 -0.0867844 10.3854 -0.0867844 10.0382 0.26035L5.59377 4.70481L5.53301 4.77252C5.24825 5.12166 5.26834 5.63632 5.59377 5.96176C5.91921 6.2872 6.43388 6.30728 6.78301 6.02253L6.85072 5.96176L9.77782 3.03467V11.5555Z"/>
</svg>
