<svg width="30" height="31" viewBox="0 0 30 31" fill="none" xmlns="http://www.w3.org/2000/svg">
<path d="M25.483 3.08008H22.583V1.58008C22.583 1.18225 22.4302 0.800722 22.1583 0.519418C21.8864 0.238113 21.5176 0.0800781 21.133 0.0800781C20.7484 0.0800781 20.3796 0.238113 20.1077 0.519418C19.8358 0.800722 19.683 1.18225 19.683 1.58008V3.08008H10.983V1.58008C10.983 1.18225 10.8302 0.800722 10.5583 0.519418C10.2864 0.238113 9.91757 0.0800781 9.53301 0.0800781C9.14844 0.0800781 8.77963 0.238113 8.5077 0.519418C8.23578 0.800722 8.08301 1.18225 8.08301 1.58008V3.08008H5.18301C4.02932 3.08008 2.92288 3.55418 2.10709 4.3981C1.29131 5.24201 0.833008 6.3866 0.833008 7.58008V25.5801C0.833008 26.7736 1.29131 27.9181 2.10709 28.7621C2.92288 29.606 4.02932 30.0801 5.18301 30.0801H25.483C26.6367 30.0801 27.7431 29.606 28.5589 28.7621C29.3747 27.9181 29.833 26.7736 29.833 25.5801V7.58008C29.833 6.3866 29.3747 5.24201 28.5589 4.3981C27.7431 3.55418 26.6367 3.08008 25.483 3.08008ZM26.933 25.5801C26.933 25.9779 26.7802 26.3594 26.5083 26.6407C26.2364 26.922 25.8676 27.0801 25.483 27.0801H5.18301C4.79844 27.0801 4.42963 26.922 4.1577 26.6407C3.88578 26.3594 3.73301 25.9779 3.73301 25.5801V15.0801H26.933V25.5801ZM26.933 12.0801H3.73301V7.58008C3.73301 7.18225 3.88578 6.80072 4.1577 6.51942C4.42963 6.23811 4.79844 6.08008 5.18301 6.08008H8.08301V7.58008C8.08301 7.9779 8.23578 8.35943 8.5077 8.64074C8.77963 8.92204 9.14844 9.08008 9.53301 9.08008C9.91757 9.08008 10.2864 8.92204 10.5583 8.64074C10.8302 8.35943 10.983 7.9779 10.983 7.58008V6.08008H19.683V7.58008C19.683 7.9779 19.8358 8.35943 20.1077 8.64074C20.3796 8.92204 20.7484 9.08008 21.133 9.08008C21.5176 9.08008 21.8864 8.92204 22.1583 8.64074C22.4302 8.35943 22.583 7.9779 22.583 7.58008V6.08008H25.483C25.8676 6.08008 26.2364 6.23811 26.5083 6.51942C26.7802 6.80072 26.933 7.18225 26.933 7.58008V12.0801Z" fill="#429D1B"/>
</svg>
