<svg width="18" height="18" viewBox="0 0 18 18" fill="black" xmlns="http://www.w3.org/2000/svg">
<path d="M17.0243 0.0152675C17.2891 -0.0366952 17.5658 0.0454096 17.7602 0.239788C17.9546 0.434167 18.0367 0.710857 17.9847 0.975674L17.9544 1.08833L12.2271 17.452C12.1163 17.7686 11.8231 17.9856 11.488 17.9993C11.1528 18.013 10.8428 17.8209 10.7066 17.5143L7.56169 10.4383L0.485682 7.29342C0.179125 7.15717 -0.01299 6.84719 0.000684926 6.51199C0.0144422 6.17689 0.231434 5.88371 0.548005 5.77291L16.9117 0.0456297L17.0243 0.0152675ZM3.03691 6.63584L8.5141 9.07041L8.58202 9.10477C8.73528 9.19075 8.85767 9.32408 8.92959 9.4859L11.3634 14.9623L15.8474 2.15181L3.03691 6.63584Z"/>
</svg>
