<svg width="19" height="19" viewBox="0 0 19 19" fill="none" xmlns="http://www.w3.org/2000/svg">
<path d="M17.638 7.045L15.937 6.478L16.738 4.876C16.8192 4.70832 16.8464 4.51957 16.8157 4.3358C16.7851 4.15202 16.6982 3.98229 16.567 3.85L14.65 1.933C14.517 1.79988 14.3456 1.71179 14.16 1.68112C13.9743 1.65044 13.7837 1.67873 13.615 1.762L12.013 2.563L11.446 0.862003C11.3861 0.684696 11.2725 0.530466 11.1208 0.420776C10.9692 0.311086 10.7871 0.251393 10.6 0.250003H7.9C7.71132 0.249516 7.52726 0.30834 7.37383 0.418161C7.22041 0.527981 7.10538 0.683244 7.045 0.862003L6.478 2.563L4.876 1.762C4.70832 1.6808 4.51957 1.65365 4.3358 1.68427C4.15202 1.7149 3.98229 1.80181 3.85 1.933L1.933 3.85C1.79988 3.98299 1.71179 4.15436 1.68112 4.34001C1.65044 4.52566 1.67873 4.71626 1.762 4.885L2.563 6.487L0.862003 7.054C0.684696 7.11388 0.530466 7.22755 0.420776 7.37918C0.311086 7.53081 0.251393 7.71286 0.250003 7.9V10.6C0.249516 10.7887 0.30834 10.9727 0.418161 11.1262C0.527981 11.2796 0.683244 11.3946 0.862003 11.455L2.563 12.022L1.762 13.624C1.6808 13.7917 1.65365 13.9804 1.68427 14.1642C1.7149 14.348 1.80181 14.5177 1.933 14.65L3.85 16.567C3.98299 16.7001 4.15436 16.7882 4.34001 16.8189C4.52566 16.8496 4.71626 16.8213 4.885 16.738L6.487 15.937L7.054 17.638C7.11438 17.8168 7.22941 17.972 7.38283 18.0818C7.53626 18.1917 7.72032 18.2505 7.909 18.25H10.609C10.7977 18.2505 10.9817 18.1917 11.1352 18.0818C11.2886 17.972 11.4036 17.8168 11.464 17.638L12.031 15.937L13.633 16.738C13.7996 16.8171 13.9865 16.8432 14.1684 16.8126C14.3503 16.782 14.5184 16.6963 14.65 16.567L16.567 14.65C16.7001 14.517 16.7882 14.3456 16.8189 14.16C16.8496 13.9743 16.8213 13.7837 16.738 13.615L15.937 12.013L17.638 11.446C17.8153 11.3861 17.9695 11.2725 18.0792 11.1208C18.1889 10.9692 18.2486 10.7871 18.25 10.6V7.9C18.2505 7.71132 18.1917 7.52726 18.0818 7.37383C17.972 7.22041 17.8168 7.10538 17.638 7.045ZM16.45 9.952L15.37 10.312C15.1216 10.3926 14.8938 10.5262 14.7022 10.7036C14.5107 10.881 14.36 11.098 14.2607 11.3394C14.1614 11.5809 14.1158 11.8411 14.1271 12.1019C14.1383 12.3627 14.2062 12.618 14.326 12.85L14.839 13.876L13.849 14.866L12.85 14.326C12.6192 14.211 12.3664 14.147 12.1087 14.1382C11.851 14.1294 11.5944 14.1761 11.3563 14.2751C11.1182 14.374 10.9041 14.523 10.7286 14.712C10.5531 14.9009 10.4202 15.1253 10.339 15.37L9.979 16.45H8.548L8.188 15.37C8.10744 15.1216 7.97382 14.8938 7.79641 14.7022C7.619 14.5107 7.40204 14.36 7.16058 14.2607C6.91912 14.1614 6.65895 14.1158 6.3981 14.1271C6.13726 14.1383 5.88199 14.2062 5.65 14.326L4.624 14.839L3.634 13.849L4.174 12.85C4.29379 12.618 4.36167 12.3627 4.37294 12.1019C4.38422 11.8411 4.33861 11.5809 4.23929 11.3394C4.13996 11.098 3.9893 10.881 3.79775 10.7036C3.6062 10.5262 3.37835 10.3926 3.13 10.312L2.05 9.952V8.548L3.13 8.188C3.37835 8.10744 3.6062 7.97382 3.79775 7.79641C3.9893 7.619 4.13996 7.40204 4.23929 7.16058C4.33861 6.91912 4.38422 6.65895 4.37294 6.3981C4.36167 6.13726 4.29379 5.88199 4.174 5.65L3.661 4.651L4.651 3.661L5.65 4.174C5.88199 4.29379 6.13726 4.36167 6.3981 4.37294C6.65895 4.38422 6.91912 4.33861 7.16058 4.23929C7.40204 4.13996 7.619 3.9893 7.79641 3.79775C7.97382 3.6062 8.10744 3.37835 8.188 3.13L8.548 2.05H9.952L10.312 3.13C10.3926 3.37835 10.5262 3.6062 10.7036 3.79775C10.881 3.9893 11.098 4.13996 11.3394 4.23929C11.5809 4.33861 11.8411 4.38422 12.1019 4.37294C12.3627 4.36167 12.618 4.29379 12.85 4.174L13.876 3.661L14.866 4.651L14.326 5.65C14.211 5.8808 14.147 6.13361 14.1382 6.39132C14.1294 6.64903 14.1761 6.90562 14.2751 7.14371C14.374 7.38181 14.523 7.59586 14.712 7.77137C14.9009 7.94688 15.1253 8.07976 15.37 8.161L16.45 8.521V9.952ZM9.25 11.05C8.89399 11.05 8.54598 10.9444 8.24997 10.7466C7.95396 10.5489 7.72325 10.2677 7.58702 9.93883C7.45078 9.60992 7.41513 9.248 7.48459 8.89884C7.55404 8.54967 7.72547 8.22894 7.97721 7.97721C8.22894 7.72547 8.54967 7.55404 8.89884 7.48459C9.248 7.41513 9.60992 7.45078 9.93883 7.58702C10.2677 7.72325 10.5489 7.95396 10.7466 8.24997C10.9444 8.54598 11.05 8.89399 11.05 9.25C11.05 9.72739 10.8604 10.1852 10.5228 10.5228C10.1852 10.8604 9.72739 11.05 9.25 11.05Z" fill="#ADB8CC"/>
</svg>
