<svg width="20" height="20" viewBox="0 0 20 20" fill="black" xmlns="http://www.w3.org/2000/svg">
<path d="M5.18047 1.48595C5.4373 0.393354 6.94365 0.393354 7.20048 1.48595L7.90716 4.49231C7.99886 4.8824 8.29411 5.18698 8.67226 5.28157L11.5866 6.01057C12.6457 6.27551 12.6457 7.82943 11.5866 8.09437L8.67226 8.82337C8.29411 8.91796 7.99886 9.22253 7.90716 9.61263L7.20048 12.619C6.94365 13.7116 5.4373 13.7116 5.18047 12.619L4.47379 9.61263C4.38209 9.22253 4.08684 8.91796 3.70869 8.82337L0.794365 8.09437C-0.264788 7.82943 -0.264789 6.27551 0.794364 6.01057L3.70869 5.28157C4.08684 5.18698 4.38209 4.8824 4.47379 4.49231L5.18047 1.48595Z"/>
<path d="M13.6642 11.9778C13.8222 11.3054 14.7492 11.3054 14.9073 11.9778L15.3421 13.8279C15.3986 14.0679 15.5803 14.2554 15.813 14.3136L17.6064 14.7622C18.2582 14.9252 18.2582 15.8815 17.6064 16.0445L15.813 16.4931C15.5803 16.5513 15.3986 16.7388 15.3421 16.9788L14.9073 18.8289C14.7492 19.5013 13.8222 19.5013 13.6642 18.8289L13.2293 16.9788C13.1729 16.7388 12.9912 16.5513 12.7585 16.4931L10.965 16.0445C10.3132 15.8815 10.3132 14.9252 10.965 14.7622L12.7585 14.3136C12.9912 14.2554 13.1729 14.0679 13.2293 13.8279L13.6642 11.9778Z"/>
<path fill-rule="evenodd" clip-rule="evenodd" d="M17.609 1.04471C17.4905 0.540434 16.7952 0.540435 16.6767 1.04471L16.3505 2.43226C16.3082 2.6123 16.1719 2.75288 15.9974 2.79653L14.6523 3.13299C14.1635 3.25527 14.1635 3.97247 14.6523 4.09475L15.9974 4.43121C16.1719 4.47487 16.3082 4.61544 16.3505 4.79548L16.6767 6.18303C16.7952 6.68731 17.4905 6.68731 17.609 6.18303L17.9352 4.79548C17.9775 4.61544 18.1138 4.47487 18.2883 4.43121L19.6334 4.09475C20.1222 3.97247 20.1222 3.25527 19.6334 3.13299L18.2883 2.79653C18.1138 2.75288 17.9775 2.6123 17.9352 2.43226L17.609 1.04471Z"/>
</svg>
