<svg width="12" height="12" viewBox="0 0 12 12" fill="black" xmlns="http://www.w3.org/2000/svg">
<path d="M11.9799 4.66099C11.942 4.55578 11.8732 4.46337 11.7817 4.39496C11.6903 4.32656 11.5801 4.2851 11.4646 4.27561L8.05522 3.7982L6.52729 0.82447C6.47823 0.727223 6.40162 0.645208 6.30625 0.587822C6.21087 0.530436 6.10059 0.5 5.98803 0.5C5.87547 0.5 5.76518 0.530436 5.66981 0.587822C5.57443 0.645208 5.49783 0.727223 5.44876 0.82447L3.92084 3.79245L0.511482 4.27561C0.400586 4.29074 0.296329 4.33541 0.210542 4.40454C0.124754 4.47368 0.060871 4.56451 0.0261423 4.66674C-0.00564744 4.76664 -0.00850023 4.87296 0.0178902 4.97429C0.0442805 5.07562 0.0989178 5.16815 0.175938 5.24193L2.65057 7.54269L2.05139 10.8098C2.03 10.9176 2.0412 11.0291 2.08367 11.131C2.12613 11.2329 2.1981 11.321 2.29106 11.385C2.38167 11.4471 2.48854 11.4838 2.59967 11.491C2.7108 11.4981 2.8218 11.4753 2.9202 11.4252L5.98803 9.88947L9.04387 11.431C9.12796 11.4765 9.22294 11.5003 9.31949 11.5C9.44642 11.5004 9.57021 11.4622 9.67301 11.3907C9.76597 11.3268 9.83794 11.2387 9.88041 11.1367C9.92288 11.0348 9.93408 10.9234 9.91269 10.8155L9.3135 7.54844L11.7881 5.24768C11.8746 5.17732 11.9386 5.08485 11.9725 4.98099C12.0065 4.87714 12.009 4.76618 11.9799 4.66099Z"/>
</svg>
