<svg width="28" height="27" viewBox="0 0 28 27" fill="none" xmlns="http://www.w3.org/2000/svg">
<path d="M27.953 9.91025C27.8647 9.6617 27.7041 9.44338 27.4907 9.28178C27.2773 9.12018 27.0202 9.02223 26.7507 8.99981L18.7955 7.87196L15.2304 0.846627C15.1159 0.616883 14.9371 0.423126 14.7146 0.287554C14.492 0.151982 14.2347 0.0800781 13.9721 0.0800781C13.7094 0.0800781 13.4521 0.151982 13.2296 0.287554C13.007 0.423126 12.8283 0.616883 12.7138 0.846627L9.14863 7.85837L1.19346 8.99981C0.934701 9.03556 0.691434 9.14108 0.491263 9.30441C0.291092 9.46774 0.142032 9.68234 0.0609987 9.92384C-0.0131774 10.1598 -0.0198338 10.411 0.0417437 10.6504C0.103321 10.8898 0.230808 11.1084 0.410523 11.2827L6.18466 16.7182L4.78657 24.4365C4.73012 24.6926 4.75099 24.959 4.84666 25.2038C4.94234 25.4486 5.10874 25.6613 5.32585 25.8163C5.54297 25.9713 5.80154 26.0621 6.07048 26.0777C6.33941 26.0932 6.60725 26.033 6.84177 25.9041L13.9721 22.2759L21.1024 25.9041C21.2986 26.0117 21.5202 26.0679 21.7455 26.0671C22.0416 26.0682 22.3305 25.9778 22.5704 25.809C22.7873 25.6579 22.9552 25.4497 23.0543 25.209C23.1534 24.9682 23.1795 24.7049 23.1296 24.4501L21.7315 16.7318L27.5056 11.2963C27.7075 11.1301 27.8567 10.9116 27.9359 10.6663C28.0151 10.4209 28.021 10.1588 27.953 9.91025ZM19.3547 15.3457C19.1929 15.4985 19.0715 15.687 19.0009 15.8952C18.9303 16.1034 18.9126 16.3252 18.9493 16.5415L19.9559 22.2487L14.6991 19.531C14.4948 19.4328 14.2699 19.3817 14.042 19.3817C13.814 19.3817 13.5892 19.4328 13.3849 19.531L8.12802 22.2487L9.13465 16.5415C9.17133 16.3252 9.15362 16.1034 9.08302 15.8952C9.01241 15.687 8.89102 15.4985 8.7292 15.3457L4.53491 11.2691L10.4209 10.4402C10.6474 10.4096 10.8627 10.3254 11.0479 10.1951C11.2332 10.0648 11.3827 9.89237 11.4835 9.69283L13.9721 4.51556L16.6005 9.70642C16.7012 9.90596 16.8507 10.0784 17.036 10.2087C17.2212 10.339 17.4366 10.4232 17.663 10.4538L23.549 11.2827L19.3547 15.3457Z" fill="#429D1B"/>
</svg>
