<svg width="194" height="80" viewBox="0 0 194 80" fill="none" xmlns="http://www.w3.org/2000/svg">
<g filter="url(#filter0_ddd_287_4704)">
<rect x="15" y="13.8037" width="164" height="40" rx="12" fill="white"/>
<path d="M27.71 36.8037V29.8037H30.23C30.79 29.8037 31.2533 29.9004 31.62 30.0937C31.9867 30.2804 32.26 30.5337 32.44 30.8537C32.62 31.1737 32.71 31.5404 32.71 31.9537C32.71 32.3404 32.6233 32.697 32.45 33.0237C32.2767 33.3437 32.0067 33.6037 31.64 33.8037C31.2733 33.997 30.8033 34.0937 30.23 34.0937H28.91V36.8037H27.71ZM28.91 33.1137H30.16C30.6333 33.1137 30.9733 33.0104 31.18 32.8037C31.3867 32.5904 31.49 32.307 31.49 31.9537C31.49 31.587 31.3867 31.3004 31.18 31.0937C30.9733 30.887 30.6333 30.7837 30.16 30.7837H28.91V33.1137ZM35.7915 36.9237C35.3115 36.9237 34.8782 36.8137 34.4915 36.5937C34.1115 36.367 33.8115 36.057 33.5915 35.6637C33.3782 35.2637 33.2715 34.807 33.2715 34.2937C33.2715 33.767 33.3815 33.307 33.6015 32.9137C33.8215 32.5137 34.1215 32.2037 34.5015 31.9837C34.8882 31.757 35.3215 31.6437 35.8015 31.6437C36.2815 31.6437 36.7115 31.757 37.0915 31.9837C37.4782 32.2037 37.7782 32.5104 37.9915 32.9037C38.2115 33.297 38.3215 33.757 38.3215 34.2837C38.3215 34.8104 38.2115 35.2704 37.9915 35.6637C37.7715 36.057 37.4682 36.367 37.0815 36.5937C36.7015 36.8137 36.2715 36.9237 35.7915 36.9237ZM35.7915 35.8937C36.0315 35.8937 36.2482 35.8337 36.4415 35.7137C36.6415 35.5937 36.8015 35.4137 36.9215 35.1737C37.0415 34.9337 37.1015 34.637 37.1015 34.2837C37.1015 33.9304 37.0415 33.637 36.9215 33.4037C36.8082 33.1637 36.6515 32.9837 36.4515 32.8637C36.2582 32.7437 36.0415 32.6837 35.8015 32.6837C35.5682 32.6837 35.3515 32.7437 35.1515 32.8637C34.9515 32.9837 34.7915 33.1637 34.6715 33.4037C34.5515 33.637 34.4915 33.9304 34.4915 34.2837C34.4915 34.637 34.5515 34.9337 34.6715 35.1737C34.7915 35.4137 34.9482 35.5937 35.1415 35.7137C35.3415 35.8337 35.5582 35.8937 35.7915 35.8937ZM40.3204 36.8037L38.8404 31.7637H40.0304L41.0604 35.9037L40.8404 35.8937L41.9904 31.7637H43.3304L44.4904 35.8937H44.2704L45.3004 31.7637H46.4904L45.0104 36.8037H43.7704L42.5404 32.5337H42.7904L41.5604 36.8037H40.3204ZM49.532 36.9237C49.032 36.9237 48.592 36.817 48.212 36.6037C47.832 36.3837 47.5353 36.077 47.322 35.6837C47.1086 35.2904 47.002 34.837 47.002 34.3237C47.002 33.7904 47.1053 33.3237 47.312 32.9237C47.5253 32.5237 47.822 32.2104 48.202 31.9837C48.5886 31.757 49.0353 31.6437 49.542 31.6437C50.0353 31.6437 50.4653 31.7537 50.832 31.9737C51.1986 32.1937 51.482 32.4904 51.682 32.8637C51.882 33.2304 51.982 33.6437 51.982 34.1037C51.982 34.1704 51.982 34.2437 51.982 34.3237C51.982 34.4037 51.9753 34.487 51.962 34.5737H47.862V33.8037H50.772C50.7586 33.437 50.6353 33.1504 50.402 32.9437C50.1686 32.7304 49.8786 32.6237 49.532 32.6237C49.2853 32.6237 49.0586 32.6804 48.852 32.7937C48.6453 32.907 48.482 33.077 48.362 33.3037C48.242 33.5237 48.182 33.8037 48.182 34.1437V34.4337C48.182 34.747 48.2386 35.017 48.352 35.2437C48.472 35.4704 48.632 35.6437 48.832 35.7637C49.0386 35.877 49.2686 35.9337 49.522 35.9337C49.802 35.9337 50.032 35.8737 50.212 35.7537C50.3986 35.6337 50.5353 35.4737 50.622 35.2737H51.842C51.7486 35.587 51.5953 35.8704 51.382 36.1237C51.1686 36.3704 50.9053 36.567 50.592 36.7137C50.2786 36.8537 49.9253 36.9237 49.532 36.9237ZM53.0899 36.8037V31.7637H54.1599L54.2699 32.7037C54.3899 32.4837 54.5399 32.297 54.7199 32.1437C54.8999 31.9837 55.1099 31.8604 55.3499 31.7737C55.5966 31.687 55.8666 31.6437 56.1599 31.6437V32.9137H55.7399C55.5399 32.9137 55.3499 32.9404 55.1699 32.9937C54.9899 33.0404 54.8333 33.1204 54.6999 33.2337C54.5733 33.3404 54.4733 33.4904 54.3999 33.6837C54.3266 33.8704 54.2899 34.107 54.2899 34.3937V36.8037H53.0899ZM59.3171 36.9237C58.8171 36.9237 58.3771 36.817 57.9971 36.6037C57.6171 36.3837 57.3204 36.077 57.1071 35.6837C56.8938 35.2904 56.7871 34.837 56.7871 34.3237C56.7871 33.7904 56.8904 33.3237 57.0971 32.9237C57.3104 32.5237 57.6071 32.2104 57.9871 31.9837C58.3738 31.757 58.8204 31.6437 59.3271 31.6437C59.8204 31.6437 60.2504 31.7537 60.6171 31.9737C60.9838 32.1937 61.2671 32.4904 61.4671 32.8637C61.6671 33.2304 61.7671 33.6437 61.7671 34.1037C61.7671 34.1704 61.7671 34.2437 61.7671 34.3237C61.7671 34.4037 61.7604 34.487 61.7471 34.5737H57.6471V33.8037H60.5571C60.5438 33.437 60.4204 33.1504 60.1871 32.9437C59.9538 32.7304 59.6638 32.6237 59.3171 32.6237C59.0704 32.6237 58.8438 32.6804 58.6371 32.7937C58.4304 32.907 58.2671 33.077 58.1471 33.3037C58.0271 33.5237 57.9671 33.8037 57.9671 34.1437V34.4337C57.9671 34.747 58.0238 35.017 58.1371 35.2437C58.2571 35.4704 58.4171 35.6437 58.6171 35.7637C58.8238 35.877 59.0538 35.9337 59.3071 35.9337C59.5871 35.9337 59.8171 35.8737 59.9971 35.7537C60.1838 35.6337 60.3204 35.4737 60.4071 35.2737H61.6271C61.5338 35.587 61.3804 35.8704 61.1671 36.1237C60.9538 36.3704 60.6904 36.567 60.3771 36.7137C60.0638 36.8537 59.7104 36.9237 59.3171 36.9237ZM65.1151 36.9237C64.6484 36.9237 64.2317 36.8104 63.8651 36.5837C63.4984 36.357 63.2117 36.0437 63.0051 35.6437C62.8051 35.2437 62.7051 34.7904 62.7051 34.2837C62.7051 33.777 62.8084 33.327 63.0151 32.9337C63.2217 32.5337 63.5084 32.2204 63.8751 31.9937C64.2484 31.7604 64.6684 31.6437 65.1351 31.6437C65.5151 31.6437 65.8451 31.717 66.1251 31.8637C66.4117 32.0037 66.6384 32.2037 66.8051 32.4637V29.6037H68.0051V36.8037H66.9251L66.8051 36.0737C66.6984 36.2204 66.5684 36.3604 66.4151 36.4937C66.2617 36.6204 66.0784 36.7237 65.8651 36.8037C65.6517 36.8837 65.4017 36.9237 65.1151 36.9237ZM65.3651 35.8837C65.6517 35.8837 65.9051 35.817 66.1251 35.6837C66.3451 35.5437 66.5151 35.3537 66.6351 35.1137C66.7551 34.8737 66.8151 34.597 66.8151 34.2837C66.8151 33.9704 66.7551 33.6937 66.6351 33.4537C66.5151 33.2137 66.3451 33.027 66.1251 32.8937C65.9051 32.7604 65.6517 32.6937 65.3651 32.6937C65.0917 32.6937 64.8451 32.7604 64.6251 32.8937C64.4051 33.027 64.2317 33.2137 64.1051 33.4537C63.9851 33.6937 63.9251 33.9704 63.9251 34.2837C63.9251 34.597 63.9851 34.8737 64.1051 35.1137C64.2317 35.3537 64.4051 35.5437 64.6251 35.6837C64.8451 35.817 65.0917 35.8837 65.3651 35.8837ZM74.6613 36.9237C74.3947 36.9237 74.1547 36.887 73.9413 36.8137C73.728 36.747 73.5413 36.6537 73.3813 36.5337C73.2213 36.407 73.088 36.2637 72.9813 36.1037L72.8513 36.8037H71.7813V29.6037H72.9813V32.5037C73.1413 32.257 73.358 32.0537 73.6313 31.8937C73.9047 31.727 74.2447 31.6437 74.6513 31.6437C75.1247 31.6437 75.5413 31.7604 75.9013 31.9937C76.268 32.2204 76.5547 32.5337 76.7613 32.9337C76.9747 33.327 77.0813 33.7804 77.0813 34.2937C77.0813 34.7937 76.978 35.2437 76.7713 35.6437C76.5647 36.0437 76.278 36.357 75.9113 36.5837C75.5513 36.8104 75.1347 36.9237 74.6613 36.9237ZM74.4113 35.8837C74.6913 35.8837 74.9413 35.817 75.1613 35.6837C75.3813 35.5437 75.5513 35.357 75.6713 35.1237C75.798 34.8837 75.8613 34.6037 75.8613 34.2837C75.8613 33.9704 75.798 33.6937 75.6713 33.4537C75.5513 33.2137 75.3813 33.027 75.1613 32.8937C74.9413 32.7604 74.6913 32.6937 74.4113 32.6937C74.1247 32.6937 73.8713 32.7604 73.6513 32.8937C73.438 33.027 73.268 33.2137 73.1413 33.4537C73.0213 33.6937 72.9613 33.9704 72.9613 34.2837C72.9613 34.6037 73.0213 34.8837 73.1413 35.1237C73.268 35.357 73.438 35.5437 73.6513 35.6837C73.8713 35.817 74.1247 35.8837 74.4113 35.8837ZM78.4167 39.0037L79.6467 36.2437H79.3467L77.3367 31.7637H78.6467L80.1467 35.1837L81.5667 31.7637H82.8367L79.6867 39.0037H78.4167Z" fill="#32364E"/>
<path fill-rule="evenodd" clip-rule="evenodd" d="M140.955 35.1793H134.378C134.528 36.5853 135.682 36.9992 136.991 36.9992C138.325 36.9992 139.375 36.7489 140.292 36.3359V38.7526C139.378 39.2037 138.174 39.5301 136.567 39.5301C133.295 39.5301 131.002 37.7005 131.002 34.0827C131.002 31.0278 132.947 28.6013 136.144 28.6013C139.335 28.6013 141 31.027 141 34.0989C141 34.3889 140.97 35.0173 140.955 35.1793ZM136.122 31.0472C135.282 31.0472 134.348 31.6133 134.348 32.9651H137.822C137.822 31.615 136.947 31.0472 136.122 31.0472ZM125.674 39.5301C124.499 39.5301 123.78 39.0871 123.298 38.7712L123.29 42.1655L119.931 42.8037L119.93 28.8014H122.889L123.063 29.5424C123.528 29.1545 124.378 28.6013 125.695 28.6013C128.054 28.6013 130.277 30.4989 130.277 33.9912C130.277 37.8034 128.078 39.5301 125.674 39.5301ZM124.892 31.2586C124.12 31.2586 123.638 31.5105 123.288 31.8531L123.308 36.3108C123.633 36.6258 124.104 36.8801 124.892 36.8801C126.134 36.8801 126.967 35.6726 126.967 34.0576C126.967 32.488 126.121 31.2586 124.892 31.2586ZM115.185 28.8014H118.557V39.3155H115.185V28.8014ZM115.185 25.4443L118.557 24.8037V27.2472L115.185 27.887V25.4443ZM111.701 32.1876V39.3155H108.343V28.8014H111.247L111.458 29.6882C112.244 28.3972 113.815 28.6588 114.262 28.8022V31.5591C113.835 31.436 112.494 31.2562 111.701 32.1876ZM104.61 35.6264C104.61 37.3944 106.73 36.8445 107.161 36.6906V39.1324C106.713 39.3519 105.901 39.5301 104.802 39.5301C102.809 39.5301 101.313 38.2189 101.313 36.4428L101.327 26.8187L104.607 26.1967L104.61 28.8014H107.162V31.359H104.61V35.6264ZM100.534 36.1382C100.534 38.2974 98.6089 39.5301 95.8151 39.5301C94.6568 39.5301 93.3905 39.3292 92.1415 38.849V35.9852C93.269 36.5327 94.7058 36.9433 95.8188 36.9433C96.568 36.9433 97.1077 36.7635 97.1077 36.2095C97.1077 34.7776 92 35.317 92 31.9956C92 29.8721 93.8169 28.6013 96.5417 28.6013C97.6547 28.6013 98.7677 28.7544 99.8806 29.1504V31.9754C98.8584 31.4829 97.5613 31.2035 96.539 31.2035C95.8351 31.2035 95.3979 31.3849 95.3979 31.8539C95.3979 33.2032 100.534 32.5617 100.534 36.1382Z" fill="#32364E"/>
<path d="M157.361 36.7647C157.322 36.8075 157.286 36.8526 157.253 36.8997C157.219 36.9499 157.192 37.0044 157.172 37.0617C157.146 37.1127 157.128 37.1673 157.118 37.2237C157.114 37.2836 157.114 37.3438 157.118 37.4037C157.115 37.5218 157.14 37.6389 157.19 37.7457C157.23 37.8574 157.295 37.9588 157.379 38.0428C157.463 38.1268 157.564 38.1913 157.676 38.2317C157.784 38.2793 157.9 38.3039 158.018 38.3039C158.136 38.3039 158.252 38.2793 158.36 38.2317C158.472 38.1913 158.573 38.1268 158.657 38.0428C158.741 37.9588 158.806 37.8574 158.846 37.7457C158.886 37.6363 158.904 37.5201 158.9 37.4037C158.901 37.2853 158.878 37.1678 158.833 37.0582C158.788 36.9485 158.722 36.8488 158.639 36.7647C158.555 36.6804 158.456 36.6134 158.346 36.5677C158.236 36.522 158.119 36.4985 158 36.4985C157.881 36.4985 157.764 36.522 157.654 36.5677C157.544 36.6134 157.445 36.6804 157.361 36.7647ZM158 24.8037C156.22 24.8037 154.48 25.3316 153 26.3205C151.52 27.3094 150.366 28.715 149.685 30.3596C149.004 32.0041 148.826 33.8137 149.173 35.5595C149.52 37.3053 150.377 38.909 151.636 40.1677C152.895 41.4263 154.498 42.2835 156.244 42.6308C157.99 42.978 159.8 42.7998 161.444 42.1186C163.089 41.4374 164.494 40.2839 165.483 38.8038C166.472 37.3238 167 35.5837 167 33.8037C167 32.6218 166.767 31.4515 166.315 30.3596C165.863 29.2676 165.2 28.2755 164.364 27.4397C163.528 26.604 162.536 25.9411 161.444 25.4888C160.352 25.0365 159.182 24.8037 158 24.8037ZM158 41.0037C156.576 41.0037 155.184 40.5814 154 39.7903C152.816 38.9991 151.893 37.8747 151.348 36.559C150.803 35.2434 150.661 33.7957 150.938 32.3991C151.216 31.0024 151.902 29.7195 152.909 28.7125C153.916 27.7056 155.199 27.0199 156.595 26.7421C157.992 26.4642 159.44 26.6068 160.755 27.1518C162.071 27.6967 163.195 28.6196 163.987 29.8036C164.778 30.9876 165.2 32.3797 165.2 33.8037C165.2 35.7133 164.441 37.5446 163.091 38.8949C161.741 40.2451 159.91 41.0037 158 41.0037ZM158 29.3037C157.526 29.3034 157.06 29.428 156.649 29.665C156.238 29.902 155.897 30.243 155.66 30.6537C155.595 30.7561 155.551 30.8707 155.531 30.9905C155.512 31.1102 155.516 31.2328 155.545 31.3507C155.574 31.4686 155.627 31.5794 155.699 31.6765C155.772 31.7736 155.864 31.855 155.969 31.9157C156.074 31.9765 156.191 32.0153 156.311 32.03C156.431 32.0446 156.554 32.0347 156.67 32.0009C156.787 31.9671 156.895 31.91 156.989 31.8332C157.083 31.7563 157.161 31.6613 157.217 31.5537C157.296 31.4164 157.41 31.3024 157.548 31.2234C157.685 31.1444 157.841 31.1031 158 31.1037C158.239 31.1037 158.468 31.1985 158.636 31.3673C158.805 31.5361 158.9 31.765 158.9 32.0037C158.9 32.2424 158.805 32.4713 158.636 32.6401C158.468 32.8089 158.239 32.9037 158 32.9037C157.761 32.9037 157.532 32.9985 157.364 33.1673C157.195 33.3361 157.1 33.565 157.1 33.8037V34.7037C157.1 34.9424 157.195 35.1713 157.364 35.3401C157.532 35.5089 157.761 35.6037 158 35.6037C158.239 35.6037 158.468 35.5089 158.636 35.3401C158.805 35.1713 158.9 34.9424 158.9 34.7037V34.5417C159.495 34.3257 159.996 33.9074 160.314 33.3599C160.632 32.8124 160.747 32.1705 160.64 31.5464C160.533 30.9223 160.21 30.3558 159.727 29.9459C159.245 29.5359 158.633 29.3086 158 29.3037Z" fill="#9B9B9B"/>
<path d="M87.2764 53.8037H106.276L98.9514 61.5142C97.7686 62.7592 95.7841 62.7592 94.6014 61.5142L87.2764 53.8037Z" fill="white"/>
</g>
<defs>
<filter id="filter0_ddd_287_4704" x="0" y="0.803711" width="194" height="78.644" filterUnits="userSpaceOnUse" color-interpolation-filters="sRGB">
<feFlood flood-opacity="0" result="BackgroundImageFix"/>
<feColorMatrix in="SourceAlpha" type="matrix" values="0 0 0 0 0 0 0 0 0 0 0 0 0 0 0 0 0 0 127 0" result="hardAlpha"/>
<feOffset dy="2"/>
<feGaussianBlur stdDeviation="3"/>
<feColorMatrix type="matrix" values="0 0 0 0 0 0 0 0 0 0 0 0 0 0 0 0 0 0 0.03 0"/>
<feBlend mode="normal" in2="BackgroundImageFix" result="effect1_dropShadow_287_4704"/>
<feColorMatrix in="SourceAlpha" type="matrix" values="0 0 0 0 0 0 0 0 0 0 0 0 0 0 0 0 0 0 127 0" result="hardAlpha"/>
<feMorphology radius="3" operator="erode" in="SourceAlpha" result="effect2_dropShadow_287_4704"/>
<feOffset dy="2"/>
<feGaussianBlur stdDeviation="9"/>
<feColorMatrix type="matrix" values="0 0 0 0 0.0666667 0 0 0 0 0.0941176 0 0 0 0 0.14902 0 0 0 0.12 0"/>
<feBlend mode="normal" in2="effect1_dropShadow_287_4704" result="effect2_dropShadow_287_4704"/>
<feColorMatrix in="SourceAlpha" type="matrix" values="0 0 0 0 0 0 0 0 0 0 0 0 0 0 0 0 0 0 127 0" result="hardAlpha"/>
<feMorphology radius="1" operator="dilate" in="SourceAlpha" result="effect3_dropShadow_287_4704"/>
<feOffset/>
<feColorMatrix type="matrix" values="0 0 0 0 0.595 0 0 0 0 0.63 0 0 0 0 0.7 0 0 0 0.1 0"/>
<feBlend mode="normal" in2="effect2_dropShadow_287_4704" result="effect3_dropShadow_287_4704"/>
<feBlend mode="normal" in="SourceGraphic" in2="effect3_dropShadow_287_4704" result="shape"/>
</filter>
</defs>
</svg>
