<svg width="16" height="16" viewBox="0 0 16 16" fill="black" xmlns="http://www.w3.org/2000/svg">
<path d="M13.8333 15.2V13.6C13.8333 12.9635 13.5698 12.3532 13.1009 11.9031C12.6907 11.5094 12.1529 11.2663 11.5807 11.2117L11.3333 11.2H4.66667C4.00363 11.2 3.36793 11.453 2.89909 11.9031C2.43025 12.3532 2.16667 12.9635 2.16667 13.6V15.2C2.16667 15.6418 1.79357 16 1.33333 16C0.873096 16 0.5 15.6418 0.5 15.2V13.6C0.5 12.5391 0.939302 11.522 1.7207 10.7719C2.5021 10.0217 3.5616 9.6 4.66667 9.6H11.3333L11.54 9.60469C12.5699 9.65375 13.5468 10.0686 14.2793 10.7719C15.0607 11.522 15.5 12.5391 15.5 13.6V15.2C15.5 15.6418 15.1269 16 14.6667 16C14.2064 16 13.8333 15.6418 13.8333 15.2ZM10.5 4C10.5 2.67452 9.38071 1.6 8 1.6C6.61929 1.6 5.5 2.67452 5.5 4C5.5 5.32548 6.61929 6.4 8 6.4C9.38071 6.4 10.5 5.32548 10.5 4ZM12.1667 4C12.1667 6.20914 10.3012 8 8 8C5.69881 8 3.83333 6.20914 3.83333 4C3.83333 1.79086 5.69881 0 8 0C10.3012 0 12.1667 1.79086 12.1667 4Z"/>
</svg>
