<svg width="16" height="16" viewBox="0 0 16 16" fill="none" xmlns="http://www.w3.org/2000/svg">
<path d="M13.5833 15.2V13.6C13.5833 12.9635 13.3198 12.3532 12.8509 11.9031C12.4407 11.5094 11.9029 11.2663 11.3307 11.2117L11.0833 11.2H4.41667C3.75363 11.2 3.11793 11.453 2.64909 11.9031C2.18025 12.3532 1.91667 12.9635 1.91667 13.6V15.2C1.91667 15.6418 1.54357 16 1.08333 16C0.623096 16 0.25 15.6418 0.25 15.2V13.6C0.25 12.5391 0.689302 11.522 1.4707 10.7719C2.2521 10.0217 3.3116 9.6 4.41667 9.6H11.0833L11.29 9.60469C12.3199 9.65375 13.2968 10.0686 14.0293 10.7719C14.8107 11.522 15.25 12.5391 15.25 13.6V15.2C15.25 15.6418 14.8769 16 14.4167 16C13.9564 16 13.5833 15.6418 13.5833 15.2ZM10.25 4C10.25 2.67452 9.13071 1.6 7.75 1.6C6.36929 1.6 5.25 2.67452 5.25 4C5.25 5.32548 6.36929 6.4 7.75 6.4C9.13071 6.4 10.25 5.32548 10.25 4ZM11.9167 4C11.9167 6.20914 10.0512 8 7.75 8C5.44881 8 3.58333 6.20914 3.58333 4C3.58333 1.79086 5.44881 0 7.75 0C10.0512 0 11.9167 1.79086 11.9167 4Z" fill="#0068FF"/>
</svg>
