<svg width="20" height="16" viewBox="0 0 20 16" fill="black" xmlns="http://www.w3.org/2000/svg">
<path d="M13.3333 15.2V13.6C13.3333 12.9635 13.0698 12.3532 12.6009 11.9031C12.1907 11.5094 11.6529 11.2663 11.0807 11.2117L10.8333 11.2H4.16667C3.50363 11.2 2.86793 11.453 2.39909 11.9031C1.93025 12.3532 1.66667 12.9635 1.66667 13.6V15.2C1.66667 15.6418 1.29357 16 0.833333 16C0.373096 16 0 15.6418 0 15.2V13.6C0 12.5391 0.439302 11.522 1.2207 10.7719C2.0021 10.0217 3.0616 9.6 4.16667 9.6H10.8333L11.04 9.60469C12.0699 9.65375 13.0468 10.0686 13.7793 10.7719C14.5607 11.522 15 12.5391 15 13.6V15.2C15 15.6418 14.6269 16 14.1667 16C13.7064 16 13.3333 15.6418 13.3333 15.2ZM18.3333 15.2V13.6008L18.3244 13.4023C18.2842 12.9414 18.1062 12.4998 17.8092 12.132C17.5122 11.7642 17.1111 11.4882 16.6561 11.3359L16.4583 11.2789L16.377 11.2539C15.9808 11.1134 15.7523 10.705 15.8602 10.3039C15.9681 9.90301 16.3738 9.65221 16.7912 9.71328L16.875 9.72969L17.041 9.77422C17.8668 10.0143 18.5965 10.4948 19.1268 11.1516C19.6923 11.852 19.9993 12.713 20 13.5992V15.2C20 15.6418 19.6269 16 19.1667 16C18.7064 16 18.3333 15.6418 18.3333 15.2ZM10 4C10 2.67452 8.88071 1.6 7.5 1.6C6.11929 1.6 5 2.67452 5 4C5 5.32548 6.11929 6.4 7.5 6.4C8.88071 6.4 10 5.32548 10 4ZM15.0065 4.00391C15.0065 3.47104 14.822 2.95297 14.4816 2.53203C14.1838 2.16376 13.7813 1.88848 13.3252 1.73672L13.1266 1.67891L13.0452 1.65469C12.6487 1.51496 12.419 1.10676 12.526 0.705469C12.6331 0.304329 13.0387 0.0522608 13.4562 0.1125L13.54 0.128906L13.7069 0.173438C14.5347 0.412502 15.2665 0.893796 15.7983 1.55156C16.3654 2.25309 16.6732 3.1159 16.6732 4.00391L16.6699 4.17031C16.634 4.99948 16.3302 5.7993 15.7983 6.45703C15.2311 7.15861 14.4363 7.65861 13.54 7.87891C13.0942 7.9885 12.6402 7.73036 12.526 7.30234C12.4119 6.87435 12.6808 6.43849 13.1266 6.32891L13.3252 6.27188C13.7814 6.12011 14.1837 5.84416 14.4816 5.47578C14.7794 5.10749 14.9575 4.66492 14.9976 4.20313L15.0065 4.00391ZM11.6667 4C11.6667 6.20914 9.80119 8 7.5 8C5.19881 8 3.33333 6.20914 3.33333 4C3.33333 1.79086 5.19881 0 7.5 0C9.80119 0 11.6667 1.79086 11.6667 4Z"/>
</svg>
