<svg width="20" height="20" viewBox="0 0 20 20" fill="black" xmlns="http://www.w3.org/2000/svg">
<path d="M5.70915 4.28921L1.70915 0.289209C1.61591 0.19597 1.50522 0.122009 1.3834 0.0715491C1.26157 0.0210887 1.13101 -0.00488281 0.999148 -0.00488281C0.867289 -0.00488281 0.736721 0.0210887 0.614899 0.0715491C0.493077 0.122009 0.382386 0.19597 0.289148 0.289209C0.100844 0.477512 -0.00494385 0.732907 -0.00494385 0.999209C-0.00494385 1.26551 0.100844 1.52091 0.289148 1.70921L2.61915 3.99921C1.89104 4.09216 1.22228 4.44882 0.739455 5.00168C0.256627 5.55453 -0.00676141 6.26522 -0.000852227 6.99921V12.9992C-0.000852227 13.7949 0.315218 14.5579 0.877828 15.1205C1.44044 15.6831 2.2035 15.9992 2.99915 15.9992H11.9991C12.6932 15.9959 13.3647 15.7521 13.8991 15.3092L18.2891 19.7092C18.3821 19.8029 18.4927 19.8773 18.6146 19.9281C18.7364 19.9789 18.8671 20.005 18.9991 20.005C19.1312 20.005 19.2619 19.9789 19.3837 19.9281C19.5056 19.8773 19.6162 19.8029 19.7091 19.7092C19.8029 19.6162 19.8773 19.5056 19.928 19.3838C19.9788 19.2619 20.0049 19.1312 20.0049 18.9992C20.0049 18.8672 19.9788 18.7365 19.928 18.6146C19.8773 18.4928 19.8029 18.3822 19.7091 18.2892L5.70915 4.28921ZM11.9991 13.9992H2.99915C2.73393 13.9992 2.47958 13.8939 2.29204 13.7063C2.1045 13.5188 1.99915 13.2644 1.99915 12.9992V6.99921C1.99915 6.73399 2.1045 6.47964 2.29204 6.2921C2.47958 6.10457 2.73393 5.99921 2.99915 5.99921H4.58915L12.4591 13.8792C12.3177 13.9556 12.1599 13.9968 11.9991 13.9992ZM19.5291 5.14921C19.3771 5.06144 19.2047 5.01523 19.0291 5.01523C18.8536 5.01523 18.6812 5.06144 18.5291 5.14921L14.9991 6.88921C14.9707 6.11278 14.6421 5.37768 14.0825 4.83865C13.523 4.29961 12.7761 3.99869 11.9991 3.99921H10.6591C10.3939 3.99921 10.1396 4.10457 9.95204 4.2921C9.7645 4.47964 9.65915 4.73399 9.65915 4.99921C9.65915 5.26443 9.7645 5.51878 9.95204 5.70632C10.1396 5.89385 10.3939 5.99921 10.6591 5.99921H11.9991C12.2644 5.99921 12.5187 6.10457 12.7063 6.2921C12.8938 6.47964 12.9991 6.73399 12.9991 6.99921V8.49921C12.9954 8.56249 12.9954 8.62593 12.9991 8.68921C13.0051 8.75811 13.0219 8.82563 13.0491 8.88921V8.88921C13.0491 8.88921 13.0991 8.94921 13.1191 8.98921C13.1599 9.06539 13.2103 9.13598 13.2691 9.19921C13.2691 9.19921 13.3691 9.25921 13.4191 9.29921L13.5891 9.40921C13.6655 9.41963 13.7428 9.41963 13.8191 9.40921C13.8657 9.41389 13.9126 9.41389 13.9591 9.40921C14.0224 9.41293 14.0859 9.41293 14.1491 9.40921C14.218 9.40329 14.2856 9.38641 14.3491 9.35921V9.35921L17.9991 7.61921V13.3392C17.9991 13.6044 18.1045 13.8588 18.292 14.0463C18.4796 14.2339 18.7339 14.3392 18.9991 14.3392C19.2644 14.3392 19.5187 14.2339 19.7063 14.0463C19.8938 13.8588 19.9991 13.6044 19.9991 13.3392V5.99921C19.9995 5.82926 19.9565 5.66204 19.8743 5.51331C19.792 5.36459 19.6733 5.23928 19.5291 5.14921V5.14921Z"/>
</svg>
