<svg width="22" height="16" viewBox="0 0 22 16" fill="none" xmlns="http://www.w3.org/2000/svg">
<path d="M10.6364 4.90667C10.1637 4.90667 9.78187 4.53333 9.78187 4.05333C9.78187 3.57333 10.1637 3.2 10.6364 3.2C11.1091 3.2 11.491 3.57333 11.491 4.05333C11.491 4.53333 11.1091 4.90667 10.6364 4.90667ZM5.80005 4.90667C5.32732 4.90667 4.9455 4.53333 4.9455 4.05333C4.9455 3.57333 5.32732 3.2 5.80005 3.2C6.27277 3.2 6.65459 3.57333 6.65459 4.05333C6.65459 4.53333 6.27277 4.90667 5.80005 4.90667ZM8.21823 0C4.21823 0 0.963684 2.66667 0.963684 5.95556C0.963684 7.75111 1.9455 9.36889 3.47277 10.4533C3.60005 10.5422 3.67277 10.6844 3.67277 10.8444C3.67277 10.8978 3.65459 10.9511 3.65459 11.0044C3.52732 11.4489 3.3455 12.1778 3.32732 12.2133C3.30914 12.2667 3.29096 12.32 3.29096 12.3911C3.29096 12.5156 3.40005 12.6222 3.52732 12.6222C3.58187 12.6222 3.61823 12.6044 3.67277 12.5867L5.25459 11.68C5.38187 11.6089 5.50914 11.5733 5.63641 11.5733C5.70914 11.5733 5.78187 11.5911 5.85459 11.6089C6.60005 11.8222 7.40005 11.9289 8.21823 11.9289C8.3455 11.9289 8.49096 11.9289 8.61823 11.9111C8.45459 11.4489 8.38187 10.9511 8.38187 10.4533C8.38187 7.44889 11.3455 5.01333 15 5.01333C15.1273 5.01333 15.1637 5.01333 15.291 5.03111C14.7455 2.16889 11.8364 0 8.21823 0Z" fill="#222325"/>
<path d="M17 9.59983C16.5818 9.59983 16.2363 9.26205 16.2363 8.85316C16.2363 8.44427 16.5818 8.1065 17 8.1065C17.4182 8.1065 17.7636 8.44427 17.7636 8.85316C17.7636 9.26205 17.4182 9.59983 17 9.59983ZM12.9818 9.59983C12.5636 9.59983 12.2182 9.26205 12.2182 8.85316C12.2182 8.44427 12.5636 8.1065 12.9818 8.1065C13.4 8.1065 13.7454 8.44427 13.7454 8.85316C13.7454 9.26205 13.4 9.59983 12.9818 9.59983ZM18.9454 14.2043C20.2182 13.2976 21.0363 11.9465 21.0363 10.4532C21.0363 7.71539 18.3272 5.49316 14.9818 5.49316C11.6363 5.49316 8.92725 7.71539 8.92725 10.4532C8.92725 13.1909 11.6363 15.4132 14.9818 15.4132C15.6727 15.4132 16.3454 15.3243 16.9636 15.1465C17.0182 15.1287 17.0727 15.1287 17.1454 15.1287C17.2545 15.1287 17.3636 15.1643 17.4727 15.2176L18.8 15.9643C18.8363 15.9821 18.8727 15.9998 18.9091 15.9998C19.0182 15.9998 19.1091 15.9109 19.1091 15.8043C19.1091 15.7509 19.0909 15.6976 19.0727 15.6621C19.0727 15.6265 18.9091 15.0398 18.8 14.6665C18.7818 14.6309 18.7818 14.5776 18.7818 14.5421C18.7818 14.3998 18.8545 14.2754 18.9454 14.2043Z" fill="#222325"/>
</svg>
