<svg width="30" height="31" viewBox="0 0 30 31" fill="none" xmlns="http://www.w3.org/2000/svg">
<path d="M29.113 10.0253C29.113 10.0253 29.113 10.0253 29.113 9.95011C28.054 7.05601 26.1325 4.55731 23.6083 2.79203C21.0842 1.02675 18.0792 0.0800781 15 0.0800781C11.9208 0.0800781 8.91583 1.02675 6.39168 2.79203C3.86754 4.55731 1.946 7.05601 0.886995 9.95011C0.886995 9.95011 0.886995 9.95011 0.886995 10.0253C-0.295665 13.2912 -0.295665 16.8689 0.886995 20.1348C0.886995 20.1348 0.886995 20.1348 0.886995 20.21C1.946 23.1042 3.86754 25.6028 6.39168 27.3681C8.91583 29.1334 11.9208 30.0801 15 30.0801C18.0792 30.0801 21.0842 29.1334 23.6083 27.3681C26.1325 25.6028 28.054 23.1042 29.113 20.21C29.113 20.21 29.113 20.21 29.113 20.1348C30.2957 16.8689 30.2957 13.2912 29.113 10.0253ZM3.33686 18.0889C2.81566 16.1169 2.81566 14.0432 3.33686 12.0713H6.1324C5.89197 14.0699 5.89197 16.0902 6.1324 18.0889H3.33686ZM4.5693 21.0976H6.67348C7.02626 22.4393 7.5305 23.7364 8.17646 24.9639C6.70248 23.9589 5.47034 22.6382 4.5693 21.0976ZM6.67348 9.06252H4.5693C5.45737 7.52667 6.67377 6.20639 8.13137 5.19625C7.50095 6.4257 7.01186 7.72274 6.67348 9.06252ZM13.467 26.6639C11.6209 25.3079 10.3244 23.332 9.81471 21.0976H13.467V26.6639ZM13.467 18.0889H9.16843C8.88796 16.0928 8.88796 14.0673 9.16843 12.0713H13.467V18.0889ZM13.467 9.06252H9.81471C10.3244 6.82816 11.6209 4.85222 13.467 3.49629V9.06252ZM25.3706 9.06252H23.2664C22.9136 7.72085 22.4094 6.42373 21.7634 5.19625C23.2374 6.20128 24.4695 7.52194 25.3706 9.06252ZM16.4729 3.49629C18.3189 4.85222 19.6154 6.82816 20.1252 9.06252H16.4729V3.49629ZM16.4729 26.6639V21.0976H20.1252C19.6154 23.332 18.3189 25.3079 16.4729 26.6639ZM20.7715 18.0889H16.4729V12.0713H20.7715C21.0519 14.0673 21.0519 16.0928 20.7715 18.0889ZM21.8085 24.9639C22.4545 23.7364 22.9587 22.4393 23.3115 21.0976H25.4157C24.5146 22.6382 23.2825 23.9589 21.8085 24.9639ZM26.603 18.0889H23.8075C23.9297 17.0906 23.99 16.0858 23.9878 15.0801C23.9895 14.0744 23.9293 13.0696 23.8075 12.0713H26.603C27.1242 14.0432 27.1242 16.1169 26.603 18.0889Z" fill="#429D1B"/>
</svg>
