
<svg width="232" height="49" viewBox="0 0 232 49" fill="none" xmlns="http://www.w3.org/2000/svg">
<path d="M18.0596 20.4712V12.3942L32.9968 7.38086V15.4557L18.0596 20.4712Z" fill="#2E8DFF"/>
<path d="M18.0596 20.4715V16.0358L32.9968 11.0225V15.4559L18.0596 20.4715Z" fill="#0068FF"/>
<path d="M18.0596 39.2317V31.1569L32.9968 26.1436V34.2183L18.0596 39.2317Z" fill="#2E8DFF"/>
<path d="M11.0596 18.0728V26.1475L18.0599 28.4956V20.4208L11.0596 18.0728Z" fill="#FF7E78"/>
<path d="M11.0596 10.0464V18.1212L18.0599 20.4714V12.3944L11.0596 10.0464Z" fill="#FF7E78"/>
<path d="M11.0596 22.9111V39.2227L18.0599 41.5707V25.2592L11.0596 22.9111Z" fill="#FF554D"/>
<path d="M32.9972 20.8652V25.7035V28.94V33.7783L25.999 36.1286V31.2902V28.0538V23.2155L32.9972 20.8652Z" fill="#2E8DFF"/>
<path d="M18.0596 41.3978V36.9621L32.9968 31.9487V36.3844L18.0596 41.3978Z" fill="#0068FF"/>
<path d="M59.652 37.896C57.78 37.896 56.04 37.572 54.432 36.924C52.824 36.252 51.408 35.328 50.184 34.152C48.96 32.952 48 31.572 47.304 30.012C46.632 28.428 46.296 26.724 46.296 24.9C46.296 23.076 46.632 21.384 47.304 19.824C48 18.24 48.948 16.86 50.148 15.684C51.348 14.484 52.752 13.56 54.36 12.912C55.992 12.24 57.732 11.904 59.58 11.904C61.668 11.904 63.636 12.324 65.484 13.164C67.332 13.98 68.856 15.132 70.056 16.62L66.42 19.968C65.556 18.888 64.536 18.072 63.36 17.52C62.184 16.968 60.924 16.692 59.58 16.692C58.452 16.692 57.408 16.908 56.448 17.34C55.488 17.748 54.648 18.324 53.928 19.068C53.208 19.788 52.644 20.652 52.236 21.66C51.852 22.644 51.66 23.724 51.66 24.9C51.66 26.076 51.864 27.168 52.272 28.176C52.68 29.184 53.244 30.06 53.964 30.804C54.708 31.524 55.56 32.1 56.52 32.532C57.504 32.94 58.572 33.144 59.724 33.144C60.924 33.144 62.004 32.928 62.964 32.496C63.924 32.04 64.728 31.416 65.376 30.624C66.048 29.808 66.492 28.896 66.708 27.888H59.256V23.352H72.288V24.936C72.288 26.808 71.964 28.536 71.316 30.12C70.692 31.68 69.816 33.048 68.688 34.224C67.56 35.376 66.228 36.276 64.692 36.924C63.156 37.572 61.476 37.896 59.652 37.896ZM84.67 37.86C82.798 37.86 81.106 37.428 79.594 36.564C78.082 35.7 76.882 34.536 75.994 33.072C75.106 31.608 74.662 29.964 74.662 28.14C74.662 26.316 75.094 24.672 75.958 23.208C76.846 21.72 78.046 20.544 79.558 19.68C81.094 18.816 82.798 18.384 84.67 18.384C86.542 18.384 88.234 18.816 89.746 19.68C91.282 20.544 92.482 21.72 93.346 23.208C94.234 24.672 94.678 26.316 94.678 28.14C94.678 29.964 94.234 31.608 93.346 33.072C92.482 34.536 91.294 35.7 89.782 36.564C88.27 37.428 86.566 37.86 84.67 37.86ZM84.67 33.576C85.654 33.576 86.53 33.336 87.298 32.856C88.09 32.376 88.714 31.728 89.17 30.912C89.65 30.072 89.89 29.148 89.89 28.14C89.89 27.108 89.65 26.184 89.17 25.368C88.714 24.552 88.09 23.904 87.298 23.424C86.53 22.92 85.654 22.668 84.67 22.668C83.71 22.668 82.834 22.92 82.042 23.424C81.25 23.904 80.626 24.552 80.17 25.368C79.714 26.184 79.486 27.108 79.486 28.14C79.486 29.148 79.714 30.072 80.17 30.912C80.626 31.728 81.25 32.376 82.042 32.856C82.834 33.336 83.71 33.576 84.67 33.576ZM107.142 45.204C105.702 45.204 104.31 45.048 102.966 44.736C101.622 44.448 100.41 44.028 99.3296 43.476L101.058 39.66C102.09 40.164 103.098 40.536 104.082 40.776C105.066 41.016 106.05 41.136 107.034 41.136C108.498 41.136 109.602 40.824 110.346 40.2C111.114 39.576 111.498 38.64 111.498 37.392V35.916C109.962 37.044 108.246 37.608 106.35 37.608C104.574 37.608 102.966 37.188 101.526 36.348C100.11 35.484 98.9696 34.32 98.1056 32.856C97.2656 31.392 96.8456 29.772 96.8456 27.996C96.8456 26.22 97.2656 24.612 98.1056 23.172C98.9696 21.732 100.134 20.592 101.598 19.752C103.062 18.888 104.694 18.456 106.494 18.456C107.406 18.456 108.294 18.588 109.158 18.852C110.022 19.116 110.826 19.488 111.57 19.968V18.744H116.43V37.464C116.43 39.936 115.626 41.844 114.018 43.188C112.434 44.532 110.142 45.204 107.142 45.204ZM107.106 33.432C108.018 33.432 108.846 33.288 109.59 33C110.334 32.688 110.97 32.256 111.498 31.704V24.36C110.97 23.832 110.322 23.424 109.554 23.136C108.81 22.824 108.006 22.668 107.142 22.668C106.11 22.668 105.186 22.908 104.37 23.388C103.554 23.844 102.906 24.48 102.426 25.296C101.946 26.088 101.706 26.988 101.706 27.996C101.706 29.028 101.934 29.952 102.39 30.768C102.87 31.584 103.518 32.232 104.334 32.712C105.174 33.192 106.098 33.432 107.106 33.432ZM129.424 37.86C127.552 37.86 125.86 37.428 124.348 36.564C122.836 35.7 121.636 34.536 120.748 33.072C119.86 31.608 119.416 29.964 119.416 28.14C119.416 26.316 119.848 24.672 120.712 23.208C121.6 21.72 122.8 20.544 124.312 19.68C125.848 18.816 127.552 18.384 129.424 18.384C131.296 18.384 132.988 18.816 134.5 19.68C136.036 20.544 137.236 21.72 138.1 23.208C138.988 24.672 139.432 26.316 139.432 28.14C139.432 29.964 138.988 31.608 138.1 33.072C137.236 34.536 136.048 35.7 134.536 36.564C133.024 37.428 131.32 37.86 129.424 37.86ZM129.424 33.576C130.408 33.576 131.284 33.336 132.052 32.856C132.844 32.376 133.468 31.728 133.924 30.912C134.404 30.072 134.644 29.148 134.644 28.14C134.644 27.108 134.404 26.184 133.924 25.368C133.468 24.552 132.844 23.904 132.052 23.424C131.284 22.92 130.408 22.668 129.424 22.668C128.464 22.668 127.588 22.92 126.796 23.424C126.004 23.904 125.38 24.552 124.924 25.368C124.468 26.184 124.24 27.108 124.24 28.14C124.24 29.148 124.468 30.072 124.924 30.912C125.38 31.728 126.004 32.376 126.796 32.856C127.588 33.336 128.464 33.576 129.424 33.576ZM149.484 37.86C147.756 37.86 146.16 37.644 144.696 37.212C143.232 36.756 141.96 36.108 140.88 35.268L143.328 31.992C144.408 32.712 145.44 33.252 146.424 33.612C147.432 33.972 148.428 34.152 149.412 34.152C150.516 34.152 151.392 33.972 152.04 33.612C152.712 33.228 153.048 32.736 153.048 32.136C153.048 31.656 152.856 31.272 152.472 30.984C152.112 30.696 151.524 30.492 150.708 30.372L147.108 29.832C145.236 29.544 143.82 28.944 142.86 28.032C141.9 27.096 141.42 25.872 141.42 24.36C141.42 23.136 141.732 22.092 142.356 21.228C143.004 20.34 143.904 19.656 145.056 19.176C146.232 18.672 147.624 18.42 149.232 18.42C150.6 18.42 151.932 18.612 153.228 18.996C154.548 19.38 155.784 19.968 156.936 20.76L154.56 23.964C153.528 23.316 152.544 22.848 151.608 22.56C150.672 22.272 149.724 22.128 148.764 22.128C147.876 22.128 147.156 22.296 146.604 22.632C146.076 22.968 145.812 23.412 145.812 23.964C145.812 24.468 146.004 24.864 146.388 25.152C146.772 25.44 147.432 25.644 148.368 25.764L151.932 26.304C153.804 26.568 155.232 27.168 156.216 28.104C157.2 29.016 157.692 30.204 157.692 31.668C157.692 32.868 157.332 33.936 156.612 34.872C155.892 35.784 154.92 36.516 153.696 37.068C152.472 37.596 151.068 37.86 149.484 37.86ZM167.713 37.5V12.3H187.081V16.836H172.933V22.596H182.257V26.988H172.933V32.964H187.225V37.5H167.713ZM198.214 37.752C196.438 37.752 194.83 37.32 193.39 36.456C191.95 35.592 190.798 34.44 189.934 33C189.094 31.536 188.674 29.904 188.674 28.104C188.674 26.304 189.094 24.684 189.934 23.244C190.798 21.78 191.962 20.628 193.426 19.788C194.89 18.924 196.534 18.492 198.358 18.492C199.294 18.492 200.194 18.624 201.058 18.888C201.922 19.128 202.726 19.488 203.47 19.968V12.3L208.402 11.472V37.5H203.542V35.952C202.006 37.152 200.23 37.752 198.214 37.752ZM199.006 33.54C199.918 33.54 200.746 33.396 201.49 33.108C202.258 32.796 202.918 32.34 203.47 31.74V24.432C202.918 23.88 202.258 23.448 201.49 23.136C200.722 22.824 199.894 22.668 199.006 22.668C197.974 22.668 197.038 22.908 196.198 23.388C195.382 23.844 194.734 24.492 194.254 25.332C193.774 26.148 193.534 27.072 193.534 28.104C193.534 29.136 193.774 30.06 194.254 30.876C194.734 31.692 195.382 32.34 196.198 32.82C197.038 33.3 197.974 33.54 199.006 33.54ZM219.521 37.86C218.081 37.86 216.797 37.548 215.669 36.924C214.565 36.276 213.689 35.388 213.041 34.26C212.417 33.132 212.105 31.836 212.105 30.372V18.744H217.037V29.652C217.037 30.852 217.385 31.812 218.081 32.532C218.801 33.252 219.761 33.612 220.961 33.612C221.777 33.612 222.509 33.456 223.157 33.144C223.829 32.808 224.381 32.34 224.813 31.74V18.744H229.745V37.5H224.813V35.988C223.373 37.236 221.609 37.86 219.521 37.86Z" fill="black"/>
</svg>

