<svg width="30" height="25" viewBox="0 0 30 25" fill="none" xmlns="http://www.w3.org/2000/svg">
<path d="M29.2713 8.53736L27.8425 7.70822L14.9835 0.17053H14.8264C14.7388 0.131453 14.6479 0.101169 14.5549 0.0800781H14.2834H14.0262C13.9286 0.101183 13.833 0.131454 13.7405 0.17053H13.5833L0.724317 7.70822C0.504431 7.8397 0.321535 8.03038 0.194289 8.26079C0.0670428 8.4912 0 8.7531 0 9.01978C0 9.28645 0.0670428 9.54835 0.194289 9.77876C0.321535 10.0092 0.504431 10.1999 0.724317 10.3313L4.28198 12.4117V19.5575C4.28198 20.7569 4.73357 21.9073 5.53742 22.7554C6.34126 23.6036 7.43151 24.0801 8.56831 24.0801H19.9985C21.1354 24.0801 22.2256 23.6036 23.0294 22.7554C23.8333 21.9073 24.2849 20.7569 24.2849 19.5575V12.4117L27.1424 10.7233V15.0349C27.1424 15.4347 27.293 15.8181 27.5609 16.1008C27.8289 16.3836 28.1923 16.5424 28.5712 16.5424C28.9502 16.5424 29.3136 16.3836 29.5815 16.1008C29.8495 15.8181 30 15.4347 30 15.0349V9.84892C29.9996 9.58179 29.9319 9.31958 29.8038 9.08913C29.6758 8.85868 29.492 8.66826 29.2713 8.53736ZM21.4273 19.5575C21.4273 19.9573 21.2768 20.3407 21.0088 20.6235C20.7409 20.9062 20.3775 21.065 19.9985 21.065H8.56831C8.18938 21.065 7.82596 20.9062 7.55801 20.6235C7.29007 20.3407 7.13953 19.9573 7.13953 19.5575V14.0851L13.5833 17.8539L13.7976 17.9444H13.9262C14.0448 17.9602 14.1648 17.9602 14.2834 17.9444C14.402 17.9602 14.522 17.9602 14.6406 17.9444H14.7692C14.8451 17.9275 14.9176 17.8969 14.9835 17.8539L21.4273 14.0851V19.5575ZM14.2834 14.8238L4.3677 9.0047L14.2834 3.18561L24.1992 9.0047L14.2834 14.8238Z" fill="#429D1B"/>
</svg>
